<?xml version="1.0" standalone="no"?>
<!DOCTYPE svg PUBLIC "-//W3C//DTD SVG 1.1//EN" "http://www.w3.org/Graphics/SVG/1.1/DTD/svg11.dtd" >
<svg xmlns="http://www.w3.org/2000/svg" xmlns:xlink="http://www.w3.org/1999/xlink" version="1.1">
<metadata>
Created by FontForge 20170731 at Thu Aug 27 15:36:24 2020
 By Aleksey,,,
Copyright 2018 The Piazzolla Project Authors (https://github.com/huertatipografica/piazzolla)
</metadata>
<defs>
<font id="Piazzolla-ExtraLight" horiz-adv-x="639" >
  <font-face 
    font-family="Piazzolla ExtraLight"
    font-weight="250"
    font-stretch="normal"
    units-per-em="1000"
    panose-1="0 0 0 0 0 0 0 0 0 0"
    ascent="800"
    descent="-200"
    x-height="486"
    cap-height="654"
    bbox="-237 -222.07 1342 969"
    underline-thickness="26"
    underline-position="-232"
    unicode-range="U+000D-FB02"
  />
<missing-glyph horiz-adv-x="764" 
d="M711 -51l-218 193l-440 432l214 -194zM68 -67l195 215l430 441l-192 -214z" />
    <glyph glyph-name="fi" unicode="fi" horiz-adv-x="614" 
d="M59 444v13q20 12 40.5 18.5t44.5 9.5q1 66 13.5 115t36.5 81t58 48t78 16q8 0 17.5 -0.5t18.5 -1.5v-62q-16 2 -32.5 2.5t-31.5 0.5q-18 0 -36.5 -1t-37.5 -4q-12 -22 -18.5 -73t-5.5 -121h146l-5 -41h-286zM205 464v-426l97 -19v-19h-235v19q14 6 31 11.5t40 10.5l7 423
h60zM384 0v19q15 7 33.5 12.5t39.5 9.5l10 355l-51 61q25 15 51.5 25t57.5 14v-458l79 -19v-19h-220zM505 701q13 -13 22.5 -30t12.5 -35q-11 -14 -28 -24t-35 -12q-14 12 -24 29t-13 34q12 15 29 24.5t36 13.5z" />
    <glyph glyph-name="fl" unicode="fl" horiz-adv-x="611" 
d="M59 444v13q20 12 40.5 18.5t44.5 9.5q1 66 13.5 115t36.5 81t58 48t78 16q8 0 17.5 -0.5t18.5 -1.5v-62q-16 2 -32.5 2.5t-31.5 0.5q-18 0 -36.5 -1t-37.5 -4q-12 -22 -18.5 -73t-5.5 -121h146l-5 -41h-286zM205 464v-426l97 -19v-19h-235v19q14 6 31 11.5t40 10.5l7 423
h60zM366 0v19q14 6 31.5 11.5t42.5 10.5l10 601l-52 65q25 14 52 24t58 14v-707l79 -19v-19h-221z" />
    <glyph glyph-name="lambda_lambda.liga" unicode="&#x3bb;&#x3bb;" horiz-adv-x="822" 
d="M247 448l-159 -448h-66v13l200 495zM395 33l34 -33h-77l-156 544q-31 105 -68 146l-107 -14l-9 53q18 10 35 15t34 5q48 0 88 -44.5t65 -128.5zM588 448l-159 -448l-62 13l195 495zM728 57l85 5q-4 -21 -13 -36.5t-22.5 -23t-27.5 -7.5q-24 0 -46 22t-36 66l-133 461
q-15 52 -31.5 88.5t-35.5 57.5l-107 -14l-9 53q18 10 35 15t34 5q48 0 88 -44.5t66 -128.5z" />
    <glyph glyph-name=".notdef" horiz-adv-x="764" 
d="M711 -51l-218 193l-440 432l214 -194zM68 -67l195 215l430 441l-192 -214z" />
    <glyph glyph-name=".null" horiz-adv-x="0" 
 />
    <glyph glyph-name="nonmarkingreturn" horiz-adv-x="333" 
 />
    <glyph glyph-name="CR" unicode="&#xd;" horiz-adv-x="194" 
 />
    <glyph glyph-name="space" unicode=" " horiz-adv-x="194" 
 />
    <glyph glyph-name="exclam" unicode="!" horiz-adv-x="294" 
d="M185 660l-1 -113l-21 -353h-36l-8 353l2 113q9 1 16.5 2t15.5 1q9 0 17 -1t15 -2zM152 94q13 -10 22 -25.5t14 -34.5q-12 -13 -28.5 -22.5t-33.5 -12.5q-13 13 -22 29t-12 33q12 12 28 21.5t32 11.5z" />
    <glyph glyph-name="quotedbl" unicode="&#x22;" horiz-adv-x="399" 
d="M122 488l-17 184q9 2 17.5 2.5t17.5 0.5t18 -0.5t17 -2.5l-17 -184h-36zM233 488l-17 184q9 2 17.5 2.5t17.5 0.5t18 -0.5t17 -2.5l-17 -184h-36z" />
    <glyph glyph-name="numbersign" unicode="#" horiz-adv-x="633" 
d="M341 2l106 602h37l-106 -602h-37zM38 188l7 37h516l-6 -37h-517zM148 2l106 602h38l-107 -602h-37zM71 379l8 39h517l-8 -39h-517z" />
    <glyph glyph-name="dollar" unicode="$" horiz-adv-x="600" 
d="M310 -142h-41l33 876h40zM269 -8q-44 0 -90 6.5t-94 19.5l23 45q65 -16 136.5 -20t147.5 4q31 17 48.5 41.5t17.5 50.5q0 32 -26 56t-67 45t-87 42t-87 46t-66.5 57.5t-25.5 77.5q0 48 29.5 82.5t83.5 53t127 18.5q38 0 77.5 -5.5t80.5 -15.5l-16 -47q-73 14 -140.5 16.5
t-128.5 -8.5q-24 -12 -37.5 -34t-13.5 -49q0 -35 25.5 -61.5t66.5 -47.5t87 -41.5t87 -45t67 -55t26 -74.5q0 -48 -31.5 -83.5t-88 -54.5t-131.5 -19zM150 18h-65l5 177h21zM468 425l-35 171h64l-6 -171h-23z" />
    <glyph glyph-name="percent" unicode="%" horiz-adv-x="857" 
d="M235 242q-67 0 -107 48.5t-40 127.5q0 54 19 96.5t54 66t79 23.5q45 0 78.5 -22t52.5 -62t19 -93q0 -54 -19.5 -96t-54 -65.5t-81.5 -23.5zM237 277q44 0 71.5 40t27.5 108q0 65 -26.5 103t-73.5 38q-38 0 -64 -22q-15 -30 -23 -61t-8 -64q0 -65 26.5 -103.5t69.5 -38.5z
M195 -45l-33 25l514 666l33 -25zM654 -5q-67 0 -107 48.5t-40 127.5q0 54 19 96.5t54 66t79 23.5q45 0 78.5 -22t52.5 -62t19 -93q0 -54 -19.5 -96t-54 -65.5t-81.5 -23.5zM656 30q44 0 71.5 40t27.5 108q0 65 -26.5 103t-73.5 38q-38 0 -64 -22q-15 -30 -23 -61t-8 -64
q0 -65 26.5 -103.5t69.5 -38.5z" />
    <glyph glyph-name="ampersand" unicode="&#x26;" horiz-adv-x="662" 
d="M535 0l-363 372q-43 46 -60 76.5t-17 66.5q0 66 49.5 104t138.5 43.5t208 -23.5l-14 -51q-83 18 -162.5 21t-148.5 -13l17 20q-24 -42 -29.5 -74t9 -62.5t50.5 -66.5l379 -387v-26h-57zM267 -11q-69 0 -121.5 22t-81.5 61.5t-29 92.5q0 62 40 113.5t117 88.5l25 -18
q-63 -40 -93.5 -82t-30.5 -90q0 -45 26.5 -76.5t68.5 -48t91.5 -17.5t97.5 16t85 54q18 58 15.5 125t-27.5 136l44 -3q29 -83 25.5 -152t-34 -118.5t-86.5 -76.5t-132 -27zM538 0v53l118 -28v-25h-118zM475 342l-86 27v26h222v-23q-43 -10 -78.5 -18t-57.5 -12zM461 462
l-42 176l72 1l-4 -177h-26z" />
    <glyph glyph-name="quotesingle" unicode="'" horiz-adv-x="250" 
d="M107 488l-17 184q9 2 17.5 2.5t17.5 0.5t18 -0.5t17 -2.5l-17 -184h-36z" />
    <glyph glyph-name="parenleft" unicode="(" horiz-adv-x="338" 
d="M306 -204q-110 82 -170.5 205t-60.5 269q0 145 60.5 268t170.5 205l18 -21q-93 -86 -142 -201.5t-49 -250.5q0 -136 49 -252t142 -201z" />
    <glyph glyph-name="parenright" unicode=")" horiz-adv-x="338" 
d="M32 744q111 -82 171 -205t60 -269t-60 -269t-171 -205l-18 21q93 87 142 202t49 251q0 135 -49 251t-142 202z" />
    <glyph glyph-name="asterisk" unicode="*" horiz-adv-x="399" 
d="M198 549l-84 43l-29 31q8 13 21 25l36 -21l64 -70zM100 464q-5 5 -9.5 11.5t-9.5 14.5l30 29l88 39l6 -10l-68 -66zM223 418l-17 39l-11 93l12 4l41 -85l6 -42q-8 -2 -15.5 -4t-15.5 -5zM294 527l-92 19v13l93 12l42 -7q2 -16 -1 -33zM207 550l-11 5l16 92l19 38
q8 -2 16.5 -5t14.5 -7l-8 -41z" />
    <glyph glyph-name="plus" unicode="+" horiz-adv-x="545" 
d="M249 65v437h49v-437h-49zM55 259v49h437v-49h-437z" />
    <glyph glyph-name="comma" unicode="," horiz-adv-x="286" 
d="M105 -97l25 133h71q-14 -34 -32 -68t-41 -70zM137 0l-33 60q15 14 31 22t33 13q11 -12 19 -25.5t14 -33.5z" />
    <glyph glyph-name="hyphen" unicode="-" horiz-adv-x="321" 
d="M48 290l221 27l6 -49l-221 -27z" />
    <glyph glyph-name="period" unicode="." horiz-adv-x="284" 
d="M129 -1q-13 11 -22 26.5t-14 33.5q12 13 28.5 22.5t34.5 12.5q13 -12 21.5 -28.5t12.5 -32.5q-11 -13 -27.5 -22t-33.5 -12z" />
    <glyph glyph-name="slash" unicode="/" horiz-adv-x="356" 
d="M40 -201l-39 13l315 930l39 -12z" />
    <glyph glyph-name="zero" unicode="0" horiz-adv-x="631" 
d="M309 -7q-68 0 -120 38t-80.5 105t-28.5 157q0 93 30.5 164.5t84.5 112t124 40.5q69 0 121.5 -38.5t82 -107t29.5 -156.5q0 -92 -30 -163t-85 -111.5t-128 -40.5zM314 40q50 0 88 33t60 92.5t22 139.5q0 77 -21 133.5t-59.5 88.5t-91.5 32q-30 0 -59.5 -11t-50.5 -32
q-27 -52 -41 -108t-14 -114q0 -75 21 -132.5t59 -89.5t87 -32z" />
    <glyph glyph-name="one" unicode="1" horiz-adv-x="406" 
d="M43 0v22q36 9 70.5 14t67.5 8l8 513h-138v22l160 33h42v-568l132 -19v-25h-342z" />
    <glyph glyph-name="two" unicode="2" horiz-adv-x="605" 
d="M88 0l1 65q0 43 25 80.5t64 70t82 63.5t81.5 62.5t62.5 65t24 71.5q0 30 -12 51t-39 36l49 -24q-74 17 -146 17q-41 0 -81 -5t-81 -14l-11 50q50 11 95.5 17t84.5 6q96 0 151.5 -34t55.5 -99q0 -45 -24.5 -84t-63 -72.5t-81.5 -64t-82 -61t-64 -63t-25 -70.5l-1 -64h-65z
M119 0v44l376 9l1 -53h-377zM448 0l42 194h24l3 -194h-69zM110 391l-3 198h65l-38 -198h-24z" />
    <glyph glyph-name="three" unicode="3" horiz-adv-x="591" 
d="M100 18l14 46q43 -11 81 -16.5t71 -5.5q79 0 125.5 31.5t46.5 92.5q0 56 -40.5 90t-111.5 34h-73v50h50q48 0 84 15t56.5 43t20.5 65q0 27 -11 49t-28 40q-39 12 -95 12q-36 0 -77 -5t-88 -16l-14 45q50 13 94.5 19.5t83.5 6.5q64 0 109.5 -16.5t69.5 -48t24 -74.5
q0 -54 -35.5 -95t-100.5 -60q73 -15 111.5 -55t38.5 -102q0 -54 -29 -92t-82.5 -58.5t-122.5 -20.5q-39 0 -82 6.5t-90 19.5zM105 196h24l40 -178h-69zM116 412l-5 176h70l-41 -176h-24z" />
    <glyph glyph-name="four" unicode="4" horiz-adv-x="564" 
d="M214 0v21q28 8 55.5 13t53.5 8l9 518l12 -6l-266 -360l-9 21h450v-44h-476l-11 33l295 397h62v-559l101 -19v-23h-276z" />
    <glyph glyph-name="five" unicode="5" horiz-adv-x="609" 
d="M282 -8q-39 0 -82 6.5t-88 19.5l11 47q46 -11 86 -17t77 -6q71 0 136 22q17 27 25 53t8 50q0 54 -36.5 89.5t-101.5 35.5h-189l26 51h168q92 0 144.5 -44.5t52.5 -123.5q0 -86 -63 -134.5t-174 -48.5zM184 18h-72l5 174h23zM128 292v309h52l-2 -283zM474 550l-320 2
l-26 49h346v-51zM467 419l-43 182h69l-3 -182h-23z" />
    <glyph glyph-name="six" unicode="6" horiz-adv-x="600" 
d="M302 -7q-112 0 -163 69t-51 216q0 169 67 252.5t202 83.5q29 0 62 -4t69 -12l-13 -55q-64 22 -134 22q-39 0 -78 -8.5t-76 -25.5l28 16q-31 -49 -47.5 -119t-16.5 -152q0 -121 37 -177t118 -56q63 0 100 35.5t37 98.5q0 58 -34 87t-102 29h-192v49h200q92 0 142 -42.5
t50 -122.5q0 -85 -55.5 -134.5t-149.5 -49.5zM462 427l-40 171h66l-4 -171h-22z" />
    <glyph glyph-name="seven" unicode="7" horiz-adv-x="520" 
d="M61 392l-4 209h67l-39 -209h-24zM76 546v55h375v-51zM483 585l-261 -585h-58l268 601h51v-16z" />
    <glyph glyph-name="eight" unicode="8" horiz-adv-x="593" 
d="M293 -9q-62 0 -109.5 20t-75 55.5t-27.5 83.5q0 58 43 104.5t123 74.5l13 -23q-63 -30 -92.5 -65.5t-29.5 -82.5q0 -56 46 -88.5t122 -32.5q39 0 83 9q31 17 49 41.5t18 50.5q0 32 -26 56.5t-66.5 45t-86 41t-86.5 45t-67 57t-26 76.5q0 45 26.5 80.5t72.5 55.5t106 20
q55 0 98.5 -18.5t68 -50.5t24.5 -76q0 -56 -41.5 -105.5t-115.5 -80.5l-14 24q59 35 87 72t28 80q0 53 -38 80.5t-104 27.5q-19 0 -39 -2t-40 -7q-27 -14 -43 -38t-16 -50q0 -34 26 -60t66.5 -47t86 -41.5t86.5 -44.5t66.5 -55t25.5 -74q0 -45 -29 -81t-79 -56.5t-114 -20.5
z" />
    <glyph glyph-name="nine" unicode="9" horiz-adv-x="599" 
d="M296 614q112 0 164 -69t52 -216q0 -169 -67 -252.5t-203 -83.5q-30 0 -62.5 4t-68.5 11l13 55q65 -21 135 -21q80 0 154 33l-28 -15q30 48 46.5 118t16.5 152q0 122 -37.5 178t-117.5 56q-64 0 -100.5 -36t-36.5 -98q0 -59 33.5 -88t102.5 -29h192v-48h-200
q-93 0 -142.5 42.5t-49.5 121.5q0 85 55.5 135t148.5 50zM136 180l40 -172h-65l3 172h22z" />
    <glyph glyph-name="colon" unicode=":" horiz-adv-x="291" 
d="M148 -1q-13 11 -22 26.5t-14 33.5q12 13 28.5 22.5t34.5 12.5q13 -12 21.5 -28.5t12.5 -32.5q-11 -13 -27.5 -22t-33.5 -12zM148 273q-13 11 -22 26.5t-14 33.5q12 13 28.5 22.5t34.5 12.5q13 -12 21.5 -28.5t12.5 -32.5q-11 -13 -27.5 -22t-33.5 -12z" />
    <glyph glyph-name="semicolon" unicode=";" horiz-adv-x="293" 
d="M123 -97l25 133h71q-14 -34 -32 -68t-41 -70zM155 0l-33 60q15 14 31 22t33 13q11 -12 19 -25.5t14 -33.5zM147 273q-13 11 -22 26.5t-14 33.5q12 13 28.5 22.5t34.5 12.5q13 -12 21.5 -28.5t12.5 -32.5q-11 -13 -27.5 -22t-33.5 -12z" />
    <glyph glyph-name="less" unicode="&#x3c;" horiz-adv-x="489" 
d="M411 129l-23 -43l-336 185v25l336 186l23 -42l-292 -156z" />
    <glyph glyph-name="equal" unicode="=" horiz-adv-x="669" 
d="M135 336v49h397v-49h-397zM135 182v49h397v-49h-397z" />
    <glyph glyph-name="greater" unicode="&#x3e;" horiz-adv-x="492" 
d="M80 439l23 42l337 -185v-25l-337 -186l-23 44l292 156z" />
    <glyph glyph-name="question" unicode="?" horiz-adv-x="447" 
d="M219 662q93 0 146 -38t53 -107q0 -42 -18 -72t-44.5 -52.5t-54.5 -42.5t-49 -43t-25 -54l-10 -59h-38l-1 64q0 34 17.5 59t44 46.5t53.5 42.5t45 47t18 61q0 46 -38 71t-108 25q-62 0 -142 -21l-13 47q41 13 83 19.5t81 6.5zM122 636l-45 -178h-22v178h67zM208 94
q12 -10 21.5 -25.5t14.5 -34.5q-13 -13 -29 -22.5t-33 -12.5q-14 13 -23 29t-12 33q12 12 28 21.5t33 11.5z" />
    <glyph glyph-name="at" unicode="@" horiz-adv-x="886" 
d="M779 -141q-117 -48 -226.5 -58.5t-203.5 14t-165 79.5t-111 136.5t-40 185.5q0 96 34.5 176.5t96 140t143.5 92t178 32.5q83 0 151.5 -24.5t118.5 -69.5t77.5 -105t27.5 -131q0 -64 -23 -120t-63.5 -97.5t-94 -65t-114.5 -23.5q-35 0 -51.5 9.5t-24.5 33.5l47 179l-5 3
l51 220h51l-94 -424l-18 16q63 -9 118.5 7t98.5 52.5t67 88.5t24 116q0 87 -42.5 155.5t-120 108.5t-180.5 40q-89 0 -166 -30t-134 -85.5t-89.5 -129.5t-32.5 -163q0 -97 37.5 -173.5t104 -127t155.5 -73t192.5 -13t213.5 54.5zM370 21q-64 -8 -99 34t-35 128
q0 61 17 113.5t47 92.5t69.5 62t84.5 22q41 0 72.5 -19t47.5 -52l-4 -26q-30 29 -68 43.5t-89 18.5l32 3q-46 -15 -80.5 -54.5t-54 -93.5t-20.5 -111t23 -105l-27 23q47 -30 95 -37l-23 -9q37 24 71 63t66 96.5t64 136.5l17 -8q-48 -123 -98.5 -202t-107.5 -119z" />
    <glyph glyph-name="A" unicode="A" horiz-adv-x="736" 
d="M635 40q19 -4 36.5 -8.5t35.5 -9.5v-22h-254v23l107 18l-208 586h18l-215 -585q32 -4 62.5 -8.5t61.5 -11.5v-22h-249v23l68 19l233 612h78zM201 223v46h327v-46h-327z" />
    <glyph glyph-name="B" unicode="B" horiz-adv-x="711" 
d="M454 341q81 -14 127 -57.5t46 -105.5q0 -83 -63 -130.5t-174 -47.5h-334v22q16 8 43 13t67 9l9 565l-119 21v24h343q90 0 144 -41.5t54 -108.5q0 -57 -39 -100.5t-104 -62.5zM239 20l-28 28h228q56 13 87.5 46.5t31.5 82.5q0 60 -47.5 97t-125.5 37h-155v48h174
q123 42 123 133q0 53 -37.5 83.5t-102.5 30.5h-176l28 28v-614z" />
    <glyph glyph-name="C" unicode="C" horiz-adv-x="699" 
d="M402 -7q-153 0 -235 85.5t-82 246.5q0 106 39.5 181.5t114 116.5t178.5 41q38 0 80 -5.5t87 -17.5l-14 -58q-40 13 -81 19.5t-81 6.5q-51 0 -102 -11.5t-99 -34.5l27 21q-40 -58 -60 -123t-20 -140q0 -133 67.5 -205t188.5 -72q35 0 74.5 7t82.5 20l17 -54
q-101 -24 -182 -24zM509 17l51 192h24v-192h-75zM560 449l-50 192h74v-192h-24z" />
    <glyph glyph-name="D" unicode="D" horiz-adv-x="770" 
d="M402 654q87 0 151 -39.5t99.5 -111.5t35.5 -167q0 -100 -37 -175.5t-103 -118t-153 -42.5h-339v22q23 8 51 13.5t59 8.5l9 565l-119 21v24h346zM454 48q80 35 121.5 105.5t41.5 173.5q0 70 -16 121.5t-46 86.5t-70.5 53t-89.5 18h-184l28 27v-612l-28 27h243z" />
    <glyph glyph-name="E" unicode="E" horiz-adv-x="718" 
d="M582 215h23v-215h-549v22q28 8 55.5 13.5t54.5 8.5l9 565l-119 21v24h539v-194h-23l-34 146h-327l28 28v-273h200l29 87h21v-222h-21l-30 87h-199v-293l-28 28h336z" />
    <glyph glyph-name="F" unicode="F" horiz-adv-x="635" 
d="M568 654v-195h-23l-34 147h-300l28 28v-289h180l30 87h20v-223h-20l-31 88h-179v-253l138 -20v-24h-321v22q28 8 55.5 13.5t54.5 8.5l9 565l-119 21v24h512z" />
    <glyph glyph-name="G" unicode="G" horiz-adv-x="749" 
d="M414 -7q-159 0 -245 85.5t-86 246.5q0 106 41.5 181.5t120.5 116.5t188 41q37 0 80.5 -5.5t88.5 -17.5l-17 -58q-42 13 -84 19t-85 6q-56 0 -111 -11.5t-107 -34.5l41 22q-42 -58 -64 -123.5t-22 -139.5q0 -134 71 -206t198 -72q37 0 78 6.5t86 20.5l16 -53
q-52 -12 -99 -18t-89 -6zM532 17l4 264l-143 19v25h297v-21q-19 -7 -41.5 -13t-46.5 -9v-265h-70zM578 450l-50 191h74v-191h-24z" />
    <glyph glyph-name="H" unicode="H" horiz-adv-x="832" 
d="M481 0v19q28 9 55.5 15.5t53.5 9.5l9 565l-118 21v24h292v-22q-25 -7 -52.5 -12.5t-57.5 -8.5v-567l110 -20v-24h-292zM56 0v22q28 8 55.5 13.5t54.5 8.5l9 565l-119 21v24h292v-22q-24 -7 -52 -12.5t-57 -8.5v-567l109 -20v-24h-292zM206 311v49h423v-49h-423z" />
    <glyph glyph-name="I" unicode="I" horiz-adv-x="408" 
d="M56 0v22q28 8 55.5 13.5t54.5 8.5l9 565l-119 21v24h294v-22q-25 -7 -53 -12.5t-58 -8.5v-567l111 -20v-24h-294z" />
    <glyph glyph-name="J" unicode="J" horiz-adv-x="527" 
d="M66 0l9 58q26 -8 49.5 -11.5t43.5 -3.5q43 0 71 9.5t47 29t34 52.5l-7 -39l4 514l-146 21v24h315v-22q-21 -7 -46.5 -12.5t-57.5 -8.5v-399q0 -220 -223 -220q-21 0 -44.5 2.5t-48.5 5.5zM66 0v217h22l46 -217h-68z" />
    <glyph glyph-name="K" unicode="K" horiz-adv-x="780" 
d="M56 0v22q28 8 55.5 13.5t54.5 8.5l9 565l-119 21v24h294v-22q-25 -7 -53 -12.5t-58 -8.5v-567l111 -20v-24h-294zM446 0v19q42 15 85 23t88 11l118 -29v-24h-291zM575 601l-137 28v25h279v-20q-35 -14 -70 -22.5t-72 -10.5zM340 325l1 44l319 -340v-19h-81l-301 325
l296 308h60v-13z" />
    <glyph glyph-name="L" unicode="L" horiz-adv-x="623" 
d="M535 261h22v-261h-501v22q28 8 55.5 13.5t54.5 8.5l9 565l-119 21v24h307v-22q-27 -7 -58.5 -12.5t-65.5 -8.5v-563h261z" />
    <glyph glyph-name="M" unicode="M" horiz-adv-x="985" 
d="M819 44l115 -20v-24h-299v22q29 8 57.5 13.5t55.5 8.5l-1 578l9 -1l-259 -621h-32l-246 614l9 1l-9 -571l128 -20v-24h-297v22q29 8 57 13.5t56 8.5l20 565l-123 21v24h211l226 -566h-18l237 566h209v-22q-26 -7 -54.5 -12.5t-60.5 -8.5z" />
    <glyph glyph-name="N" unicode="N" horiz-adv-x="819" 
d="M496 654h281v-22q-29 -8 -56 -13.5t-54 -7.5l-1 -611h-69l-391 584l16 5v-545l126 -20v-24h-292v22q28 8 55.5 13.5t54.5 8.5l9 565l-119 21v24h186l394 -589l-15 -4l-10 550l-115 19v24z" />
    <glyph glyph-name="O" unicode="O" horiz-adv-x="755" 
d="M370 -8q-85 0 -149.5 41t-100.5 114t-36 171q0 100 38.5 177.5t106.5 122t154 44.5q85 0 150.5 -41.5t102 -115t36.5 -170.5q0 -100 -38 -177.5t-106.5 -121.5t-157.5 -44zM377 40q66 0 116.5 36.5t79.5 102t29 152.5q0 84 -27.5 146.5t-78.5 97.5t-119 35
q-45 0 -89 -15.5t-80 -45.5l26 29q-81 -121 -81 -258q0 -82 28.5 -145.5t79.5 -99t116 -35.5z" />
    <glyph glyph-name="P" unicode="P" horiz-adv-x="656" 
d="M392 654q64 0 109.5 -22t70 -63.5t24.5 -99.5q0 -62 -29 -108.5t-81 -72.5t-122 -26h-159v48h230q48 31 70 67t22 86q0 69 -38.5 106t-110.5 37h-139v-562l141 -20v-24h-324v22q17 8 43.5 13.5t66.5 8.5l9 565l-119 21v24h336z" />
    <glyph glyph-name="Q" unicode="Q" horiz-adv-x="758" 
d="M370 -7q-86 0 -150.5 41t-100.5 114t-36 170q0 100 38 178t106 122.5t155 44.5q85 0 150.5 -41.5t102.5 -115.5t37 -170q0 -100 -38.5 -177.5t-107 -121.5t-156.5 -44zM697 -122l-316 123l17 27q47 -9 90.5 -20t97.5 -28l163 -52q-12 -14 -25 -26t-27 -24zM376 41
q66 0 116.5 36.5t79.5 102t29 152.5q0 84 -27.5 146.5t-78.5 97t-119 34.5q-38 0 -77.5 -12t-74.5 -37q-36 -56 -54 -116.5t-18 -123.5q0 -82 28.5 -145.5t79.5 -99t116 -35.5z" />
    <glyph glyph-name="R" unicode="R" horiz-adv-x="731" 
d="M596 46l98 -22v-24h-163l-34 182q-10 61 -37.5 85t-84.5 24h-165v48h208q61 27 88.5 61.5t27.5 80.5q0 58 -38.5 91.5t-103.5 33.5h-153v-562l111 -20v-24h-294v22q16 8 43.5 13t66.5 9l9 565l-119 21v24h347q90 0 144.5 -44t54.5 -116q0 -61 -39.5 -109t-106.5 -66
q47 -12 73.5 -44t38.5 -93z" />
    <glyph glyph-name="S" unicode="S" horiz-adv-x="645" 
d="M290 -9q-46 0 -94.5 7t-99.5 21l25 49q45 -13 94.5 -19t101.5 -6q31 0 62 2t62 6l-29 -8q22 11 40 28t28.5 37t10.5 41q0 34 -27.5 60t-70.5 48.5t-91.5 44.5t-92 48.5t-71 61.5t-27.5 85q0 51 31 87.5t87.5 57t134.5 20.5q42 0 84.5 -5.5t82.5 -17.5l-17 -49
q-44 10 -88.5 15t-87.5 5q-34 0 -65.5 -3.5t-62.5 -8.5l31 9q-29 -15 -47 -41t-18 -57q0 -38 27.5 -66t70.5 -50.5t92 -44.5t92.5 -47.5t71 -59.5t27.5 -80q0 -52 -33.5 -90.5t-93 -59t-140.5 -20.5zM167 19h-71l4 190h24zM501 458l-40 182l70 -1l-6 -181h-24z" />
    <glyph glyph-name="T" unicode="T" horiz-adv-x="721" 
d="M650 654v-250h-23l-35 202h-199v-561l138 -21v-24h-348v22q36 8 70.5 14t67.5 8l9 562h-201l-35 -202h-23v250h579z" />
    <glyph glyph-name="U" unicode="U" horiz-adv-x="793" 
d="M396 -9q-120 0 -183.5 54t-63.5 157l7 407l-120 21v24h293v-22q-21 -8 -47.5 -13t-62.5 -8v-412q0 -78 46 -118t136 -40q66 0 109.5 20.5t76.5 66.5l5 481l-117 21v24h280v-22q-22 -8 -49 -13t-62 -8l1 -399q0 -105 -65.5 -163t-183.5 -58z" />
    <glyph glyph-name="V" unicode="V" horiz-adv-x="735" 
d="M328 0l-236 643h75l216 -612h-16l225 612h58l-244 -643h-78zM145 604q-29 4 -58.5 11t-57.5 17v22h254v-23zM620 604q-41 4 -81.5 11t-81.5 17v22h249v-23z" />
    <glyph glyph-name="W" unicode="W" horiz-adv-x="1062" 
d="M684 0l-202 643h65l190 -612h-15l195 612h58l-215 -643h-76zM297 0l-210 643h74l189 -612h-15l180 567l35 -51l-179 -547h-74zM143 604q-29 4 -57.5 11t-55.5 17v22h249v-23zM535 604q-32 4 -63.5 11t-62.5 17v22h249v-23zM946 604q-40 4 -79.5 11t-77.5 17v22h242v-23z
" />
    <glyph glyph-name="X" unicode="X" horiz-adv-x="797" 
d="M121 10v17l251 344h57l243 -342v-19h-72l-220 317h23l-229 -317h-53zM371 327l-213 299v17h73l190 -271h-21l193 271h55v-14l-219 -302h-58zM455 0v19q41 15 83.5 23t84.5 11l130 -29v-24h-298zM39 0v19q33 15 66.5 23t69.5 11l146 -29v-24h-282zM374 654v-20
q-43 -14 -87.5 -22.5t-88.5 -10.5l-121 28v25h297zM734 654v-20q-34 -14 -69.5 -22.5t-72.5 -10.5l-137 28v25h279z" />
    <glyph glyph-name="Y" unicode="Y" horiz-adv-x="711" 
d="M334 225l-226 401v17h71l193 -356h-22l196 356h53l1 -14l-234 -404h-32zM187 0v22q32 8 63 13.5t62 8.5l4 237h68v-237l127 -20v-24h-324zM148 601l-120 28v25h296v-20q-42 -14 -86.5 -22.5t-89.5 -10.5zM542 601l-136 28v25h279v-20q-35 -14 -70.5 -22.5t-72.5 -10.5z
" />
    <glyph glyph-name="Z" unicode="Z" horiz-adv-x="685" 
d="M76 0v19l426 593l-351 -7l-28 -150h-24l-4 199h502v-19l-425 -593l374 8l27 153h23l5 -203h-525z" />
    <glyph glyph-name="bracketleft" unicode="[" horiz-adv-x="393" 
d="M139 -195v929h216v-24l-198 -23l36 46v-927l-36 45l198 -24v-22h-216z" />
    <glyph glyph-name="backslash" unicode="\" horiz-adv-x="356" 
d="M316 -201l-315 931l39 13l314 -931z" />
    <glyph glyph-name="bracketright" unicode="]" horiz-adv-x="393" 
d="M237 735v-929h-216v23l198 24l-36 -46v927l36 -46l-198 24v23h216z" />
    <glyph glyph-name="asciicircum" unicode="^" horiz-adv-x="440" 
d="M65 233l-43 22l185 337h25l186 -337l-42 -22l-155 291z" />
    <glyph glyph-name="underscore" unicode="_" horiz-adv-x="658" 
d="M111 -161h437v-49h-437v49z" />
    <glyph glyph-name="grave" unicode="`" horiz-adv-x="303" 
d="M239 566q-49 26 -96.5 54.5t-94.5 60.5l26 44h10l168 -139z" />
    <glyph glyph-name="a" unicode="a" horiz-adv-x="529" 
d="M432 -5q-29 0 -54.5 22.5t-34.5 66.5l10 308q-65 55 -161 55q-20 0 -39.5 -2.5t-38.5 -7.5l33 18l-17 -140q-27 7 -42 24t-15 41q0 31 22 57.5t59.5 42t84.5 15.5q50 0 94.5 -20.5t77.5 -57.5v-357l102 4q-5 -23 -17.5 -38.5t-29.5 -23t-34 -7.5zM204 -10q-65 1 -104 37
t-39 93q0 29 12.5 50t45.5 38.5t94 35.5t155 39v-41l-250 -52l22 12q-6 -15 -8 -32.5t-2 -32.5q0 -42 21 -65.5t64 -23.5q31 0 67 13.5t77 41.5v-17q-35 -33 -71.5 -56.5t-83.5 -39.5z" />
    <glyph glyph-name="b" unicode="b" horiz-adv-x="551" 
d="M97 22l31 42q37 -12 68.5 -18.5t57.5 -6.5q83 0 130.5 53.5t47.5 151.5q0 51 -14 96t-43 83l45 -44q-69 57 -137 57q-63 0 -126 -51v22q28 29 58.5 50t63.5 37h6.5h5.5q63 0 108.5 -31.5t70 -86.5t24.5 -125q0 -80 -30 -138.5t-84.5 -89.5t-128.5 -31q-35 0 -73.5 7
t-80.5 23zM97 22l11 620l-50 66q27 14 52.5 23.5t54.5 13.5v-713z" />
    <glyph glyph-name="c" unicode="c" horiz-adv-x="469" 
d="M254 -7q-58 0 -102.5 31.5t-69.5 87t-25 127.5q0 79 28.5 136t78.5 88t115 31q31 0 62.5 -7.5t62.5 -20.5l-13 -51q-59 29 -129 29q-31 0 -61 -8.5t-57 -25.5l29 24q-25 -41 -38.5 -89t-13.5 -97q0 -64 21 -108.5t58 -68.5t85 -24q28 0 59.5 9t64.5 28l5 -13
q-72 -78 -160 -78zM378 330l-37 136h63l-3 -136h-23z" />
    <glyph glyph-name="d" unicode="d" horiz-adv-x="573" 
d="M259 -8q-60 0 -105.5 30.5t-71 85t-25.5 127.5q0 122 66.5 190.5t179.5 68.5q30 0 62 -5t67 -15l-12 -55q-73 27 -135 27q-38 0 -73 -10t-69 -30l25 20q-23 -37 -35.5 -85t-12.5 -101q0 -61 18.5 -103.5t51.5 -64.5t73 -22q30 0 62.5 12.5t66.5 37.5v-21q-26 -25 -57 -48
t-67 -39h-4.5h-4.5zM474 -5q-20 0 -39 10.5t-32.5 31.5t-18.5 51l9 554l-48 66q23 14 48.5 23t57.5 14v-689l101 5q-8 -22 -19.5 -37t-27 -22t-31.5 -7zM415 759l-1 1h1v-1z" />
    <glyph glyph-name="e" unicode="e" horiz-adv-x="507" 
d="M259 -7q-61 0 -106.5 30.5t-70.5 85.5t-25 126q0 75 26.5 133.5t75.5 92t113 33.5q51 0 89.5 -22.5t60.5 -62.5t22 -92l-3 -65q-55 -9 -107 -14.5t-110 -8t-131 -4.5v42l289 5l2 45q0 58 -33 93.5t-87 35.5q-24 0 -50 -8t-49 -22q-24 -38 -35.5 -82t-11.5 -88
q0 -95 46 -147.5t124 -52.5q67 0 150 41l4 -13q-41 -41 -88 -61t-95 -20z" />
    <glyph glyph-name="f" unicode="f" horiz-adv-x="347" 
d="M44 444v13q20 12 40.5 18.5t44.5 9.5q1 66 13.5 115t36.5 81t58 48t78 16q8 0 17.5 -0.5t18.5 -1.5v-62q-16 2 -32.5 2.5t-31.5 0.5q-18 0 -36.5 -1t-37.5 -4q-12 -22 -18.5 -73t-5.5 -121h146l-5 -41h-286zM190 464v-426l97 -19v-19h-235v19q14 6 31 11.5t40 10.5l7 423
h60z" />
    <glyph glyph-name="g" unicode="g" horiz-adv-x="547" 
d="M250 -207q-97 0 -153.5 39.5t-56.5 110.5q21 35 53.5 61t74.5 42h16q-45 -35 -62 -60.5t-17 -47.5q0 -43 42.5 -69.5t114.5 -26.5q80 0 129 31.5t49 82.5q0 18 -8 38.5t-24 37.5h-251q-23 18 -34.5 40.5t-11.5 42.5q0 24 14.5 46.5t39.5 38.5l-2 -109h229q31 0 57 -16
t41 -43.5t15 -63.5q0 -52 -32.5 -92t-90 -61.5t-132.5 -21.5zM259 167q-91 0 -142 41.5t-51 113.5q0 53 25 92t72 60t111 21q91 0 144 -42t53 -115q0 -52 -26.5 -90.5t-73.5 -59.5t-112 -21zM263 211q67 0 105.5 33.5t38.5 89.5q0 54 -37.5 84t-101.5 30q-24 0 -51 -4
t-52 -12q-18 -31 -26.5 -59.5t-8.5 -49.5q0 -51 36 -81.5t97 -30.5zM406 441q-8 17 -13 34t-5 31q0 37 23 56.5t66 19.5q13 0 27.5 -2t32.5 -8l-7 -46h-101l-16 -85h-7z" />
    <glyph glyph-name="h" unicode="h" horiz-adv-x="585" 
d="M35 0v19q14 6 31.5 11.5t42.5 10.5l10 601l-52 65q25 14 52 24t58 14v-707l79 -19v-19h-221zM337 0v19q14 6 31.5 11.5t42.5 10.5l10 346l57 30v-379l80 -19v-19h-221zM170 384l-1 20q30 31 62.5 53t67.5 36q6 0 11.5 0.5t9.5 0.5q46 0 85 -18.5t73 -58.5l-57 -30
q-56 50 -120 50q-65 0 -131 -53z" />
    <glyph glyph-name="i" unicode="i" horiz-adv-x="292" 
d="M53 0v19q15 7 33.5 12.5t39.5 9.5l10 355l-51 61q25 15 51.5 25t57.5 14v-458l79 -19v-19h-220zM174 701q13 -13 22.5 -30t12.5 -35q-11 -14 -28 -24t-35 -12q-14 12 -24 29t-13 34q12 15 29 24.5t36 13.5z" />
    <glyph glyph-name="j" unicode="j" horiz-adv-x="270" 
d="M32 -200l-7 12l88 129l10 455l-52 61q25 15 52 25t57 14v-491q0 -69 -38.5 -118.5t-109.5 -86.5zM161 701q13 -13 22.5 -30t12.5 -35q-11 -14 -28 -24t-35 -12q-14 12 -24 29t-13 34q12 15 29 24.5t36 13.5z" />
    <glyph glyph-name="k" unicode="k" horiz-adv-x="520" 
d="M35 0v19q14 6 31.5 11.5t42.5 10.5l10 601l-52 65q25 14 52 24t58 14v-707l79 -19v-19h-221zM421 -8l-210 265l190 219h50v-10l-192 -221l1 43l232 -277q-16 -6 -34 -11t-37 -8zM412 436q-29 3 -53.5 11t-47.5 19v20h183v-20z" />
    <glyph glyph-name="l" unicode="l" horiz-adv-x="290" 
d="M35 0v19q14 6 31.5 11.5t42.5 10.5l10 601l-52 65q25 14 52 24t58 14v-707l79 -19v-19h-221z" />
    <glyph glyph-name="m" unicode="m" horiz-adv-x="891" 
d="M39 0v19q13 6 30.5 11.5t42.5 10.5l10 355l-51 61q48 29 102 39l7 -93v-365l79 -19v-19h-220zM340 0v19q15 6 32.5 11.5t41.5 10.5l10 346l60 25l-3 -12v-362l81 -19v-19h-222zM424 387q-56 50 -120 50t-130 -53l-2 20q30 31 62.5 53t68.5 36q5 0 10.5 0.5t9.5 0.5
q47 0 87 -20t74 -62zM643 0v19q14 6 31 11.5t42 10.5l10 346l58 30v-379l80 -19v-19h-221zM726 387q-55 50 -119 50q-65 0 -132 -53v20q29 31 62 53t68 36q6 0 11 0.5t10 0.5q46 0 85 -18.5t73 -58.5z" />
    <glyph glyph-name="n" unicode="n" horiz-adv-x="590" 
d="M39 0v19q13 6 30.5 11.5t42.5 10.5l10 355l-51 61q48 29 102 39l7 -93v-365l79 -19v-19h-220zM340 0v19q15 6 32.5 11.5t41.5 10.5l10 346l57 30v-379l81 -19v-19h-222zM174 384l-2 20q30 31 62.5 53t68.5 36q5 0 10.5 0.5t9.5 0.5q46 0 85.5 -18.5t72.5 -58.5l-57 -30
q-56 50 -120 50t-130 -53z" />
    <glyph glyph-name="o" unicode="o" horiz-adv-x="540" 
d="M263 -8q-62 0 -108.5 30.5t-72 85t-25.5 126.5q0 78 27.5 136t76.5 91t113 33q62 0 109.5 -30.5t73.5 -86t26 -127.5q0 -77 -27.5 -135t-77.5 -90.5t-115 -32.5zM268 37q45 0 78.5 25.5t53 72.5t19.5 111q0 62 -19 107t-53 69t-80 24q-28 0 -59.5 -10t-66.5 -31l34 27
q-26 -45 -39.5 -92.5t-13.5 -99.5q0 -62 18.5 -107.5t52 -70.5t75.5 -25z" />
    <glyph glyph-name="p" unicode="p" horiz-adv-x="553" 
d="M254 -8q-32 0 -67 6t-72 19l17 47q36 -12 67.5 -18.5t57.5 -6.5q83 0 130.5 53.5t47.5 151.5q0 51 -14 96t-43 83l46 -44q-69 57 -138 57q-63 0 -126 -51v22q28 29 58.5 50t63.5 37h7.5h5.5q62 0 107.5 -31.5t70.5 -86.5t25 -125q0 -80 -30.5 -138.5t-85 -89.5
t-128.5 -31zM27 -196v19q14 5 31 11.5t42 9.5l9 552l-51 61q26 14 51 24.5t52 14.5l6 -93v-560l102 -20v-19h-242z" />
    <glyph glyph-name="q" unicode="q" horiz-adv-x="547" 
d="M259 -8q-60 0 -105.5 30t-71 84.5t-25.5 128.5q0 122 66.5 190.5t179.5 68.5q30 0 62.5 -5t66.5 -15l-12 -55q-73 27 -135 27q-38 0 -73 -10t-69 -30l25 20q-23 -37 -35.5 -85.5t-12.5 -100.5q0 -61 18.5 -103.5t51.5 -64.5t74 -22q29 0 61.5 12.5t66.5 37.5v-21
q-26 -25 -57 -48t-67 -39h-4.5h-4.5zM290 -196v19q20 8 41.5 13t47.5 8l10 626l57 26v-653l66 -20v-19h-222z" />
    <glyph glyph-name="r" unicode="r" horiz-adv-x="388" 
d="M360 428q-98 2 -186 -52v16q30 33 62.5 57.5t67.5 42.5q18 -2 32 -7t28 -13zM39 0v19q14 6 31 11.5t42 10.5l10 355l-51 61q48 29 102 39l7 -106v-349l111 -22v-19h-252z" />
    <glyph glyph-name="s" unicode="s" horiz-adv-x="486" 
d="M218 -7q-33 0 -70.5 5t-76.5 17l24 52q46 -12 90.5 -18.5t86.5 -6.5q17 0 33 1t32 3l-33 -13q22 9 39 30.5t17 46.5t-20 43.5t-51.5 34t-67 31.5t-67.5 36t-52 47t-20 65q0 60 52.5 94t138.5 34q29 0 61.5 -4t66.5 -14l-16 -55q-44 11 -83 17t-75 6q-16 0 -31.5 -1
t-33.5 -3l23 9q-22 -10 -33 -29.5t-11 -40.5q0 -27 20.5 -46.5t52 -35.5t67 -31.5t67.5 -35t52 -46t20 -63.5q0 -60 -56.5 -94.5t-145.5 -34.5zM71 15l4 147h26l37 -147h-67zM375 340l-39 137h65l-1 -137h-25z" />
    <glyph glyph-name="t" unicode="t" horiz-adv-x="372" 
d="M170 561v-76h175l-4 -41h-171v-390l174 1q-15 -21 -35.5 -35t-44.5 -21t-48 -7q-37 0 -69 16t-45 48l12 388h-73v15q29 29 60.5 55t68.5 47z" />
    <glyph glyph-name="u" unicode="u" horiz-adv-x="586" 
d="M464 56l102 5q-7 -22 -19 -37t-27.5 -22t-31.5 -7q-21 0 -40 10.5t-32.5 31.5t-18.5 51l8 308l-51 61q53 31 110 39v-440zM274 -7q-6 0 -11 -0.5t-9 -0.5q-47 0 -86.5 19t-72.5 59l58 32q57 -51 123 -51q64 0 128 50l1 -19q-30 -31 -62.5 -53t-68.5 -36zM95 70l9 326
l-52 61q54 31 109 39v-412z" />
    <glyph glyph-name="v" unicode="v" horiz-adv-x="505" 
d="M220 -6l-176 482h71l155 -448h-16l160 448h52l-160 -425q-6 -17 -11.5 -27.5t-13 -16.5t-22.5 -8.5t-39 -4.5zM90 435q-24 5 -45 13t-40 18v20h191v-20zM442 435q-63 8 -124 31v20h181v-20z" />
    <glyph glyph-name="w" unicode="w" horiz-adv-x="777" 
d="M492 -6l-175 482h69l154 -448h-16l162 448h53l-162 -425q-6 -17 -11 -27.5t-13 -16.5t-22.5 -8.5t-38.5 -4.5zM220 -6l-176 482h71l155 -448h-16l124 348l26 -64l-98 -261q-6 -18 -11.5 -28.5t-14 -16t-22.5 -8t-38 -4.5zM90 435q-24 5 -45 13t-40 18v20h191v-20z
M362 435q-22 5 -43.5 12.5t-39.5 18.5v20h188v-20zM714 435q-32 4 -62.5 11.5t-61.5 19.5v20h180v-20z" />
    <glyph glyph-name="x" unicode="x" horiz-adv-x="541" 
d="M58 10v16l187 251h53l179 -248v-19h-62l-164 232h23l-169 -232h-47zM19 0v19q37 21 82 29l85 -29v-19h-167zM329 0v19q28 13 56.5 20.5t57.5 9.5l81 -30v-19h-195zM128 437q-27 4 -49 11.5t-42 18.5v19h190v-19zM243 243l-157 216v17h64l139 -198h-21l142 198h48v-15
l-161 -218h-54zM434 438q-27 4 -51 11t-46 18v19h168v-19z" />
    <glyph glyph-name="y" unicode="y" horiz-adv-x="505" 
d="M-23 -185l5 48l174 -11q26 34 44.5 63.5t33.5 64.5t32 82l148 414h52l-159 -429q-49 -130 -103 -190t-129 -60q-22 0 -46.5 4.5t-51.5 13.5zM213 9l-170 467h71l155 -452zM90 435q-23 5 -44.5 12.5t-40.5 18.5v20h191v-20zM442 435q-31 4 -62.5 11.5t-61.5 19.5v20h181
v-20z" />
    <glyph glyph-name="z" unicode="z" horiz-adv-x="514" 
d="M50 0v17l311 427l-242 -1l-26 -112h-21l-3 155h380v-16l-311 -429l266 2l26 118h20l5 -161h-405z" />
    <glyph glyph-name="braceleft" unicode="{" horiz-adv-x="387" 
d="M33 258v33h21q59 0 92.5 31t33.5 91v160q0 50 11 84t43 53.5t96 26.5v-32q-46 -10 -65.5 -26.5t-24 -43t-4.5 -64.5l-2 -157q-2 -66 -37.5 -105t-104.5 -46zM330 -198q-64 8 -96 27.5t-43 53t-11 84.5v159q0 59 -32.5 91t-93.5 32h-21v32l59 -5q67 -6 103.5 -45
t37.5 -107l3 -156q0 -37 4.5 -63.5t24 -43t65.5 -26.5v-33z" />
    <glyph glyph-name="bar" unicode="|" horiz-adv-x="245" 
d="M102 -196v931h41v-931h-41z" />
    <glyph glyph-name="braceright" unicode="}" horiz-adv-x="387" 
d="M354 281v-32h-21q-61 0 -93.5 -31t-32.5 -92v-159q0 -51 -11 -84.5t-43.5 -53t-96.5 -27.5v33q46 10 66 26.5t24.5 42.5t4.5 64l1 157q2 67 37.5 106t105.5 45zM56 737q64 -7 96.5 -26.5t43.5 -53.5t11 -84v-160q0 -59 32 -90.5t94 -31.5h21v-33l-59 5q-69 7 -105 45.5
t-37 107.5l-2 155q-1 38 -5.5 64t-23.5 43t-66 27v32z" />
    <glyph glyph-name="asciitilde" unicode="~" horiz-adv-x="615" 
d="M103 232l-13 14q45 47 69 69.5t41 26t37 -4.5l178 -66l99 66l12 -15q-45 -47 -69 -69.5t-40.5 -26t-37.5 4.5l-178 66z" />
    <glyph glyph-name="uni00A0" unicode="&#xa0;" horiz-adv-x="194" 
 />
    <glyph glyph-name="exclamdown" unicode="&#xa1;" horiz-adv-x="294" 
d="M109 -173l1 114l22 352h36l7 -352l-3 -114q-7 -1 -15 -2t-17 -1q-8 0 -15.5 1t-15.5 2zM141 393q-11 10 -20.5 25.5t-14.5 35.5q12 12 28.5 21.5t33.5 12.5q14 -13 22.5 -29t10.5 -33q-11 -12 -27 -21.5t-33 -11.5z" />
    <glyph glyph-name="cent" unicode="&#xa2;" horiz-adv-x="509" 
d="M260 -134l-40 1l62 756l41 -1zM270 -7q-57 0 -101 31t-69.5 86.5t-25.5 128.5q0 78 29 135.5t79 88.5t114 31q31 0 62 -7t63 -21l-13 -51q-56 30 -122.5 28t-123.5 -33l27 24q-24 -41 -37.5 -89t-13.5 -97q0 -68 23.5 -114t64 -68.5t92 -19t108.5 36.5l5 -12
q-38 -40 -78 -59t-83 -19zM396 330l-39 136h64l-3 -136h-22z" />
    <glyph glyph-name="sterling" unicode="&#xa3;" horiz-adv-x="628" 
d="M85 291v13q25 11 51 18.5t54 10.5q7 85 27 142t56 89t91 42.5t133 3.5v-60q-47 4 -94.5 3.5t-95.5 -6.5q-45 -48 -56 -214h208l-3 -42h-371zM56 0v22q28 8 56 14t55 9l21 264h62l-10 -181q-2 -35 -11 -67t-27 -61h-146zM184 0v50l330 3l1 -53h-331zM465 0l42 192h23
l4 -192h-69z" />
    <glyph glyph-name="currency" unicode="&#xa4;" horiz-adv-x="651" 
d="M323 125q-49 0 -89 23t-62 63t-22 90t22 89.5t62 62.5t89 23q51 0 90.5 -23t62 -62.5t22.5 -89.5t-22.5 -90t-62 -63t-90.5 -23zM135 77l-33 34l103 102l32 -34zM324 171q36 0 65.5 17.5t46.5 47t17 65.5q-1 37 -18 66t-46 46t-65 17q-37 -1 -67 -17.5t-47 -45.5t-16 -66
q0 -36 17.5 -66t47 -47.5t65.5 -16.5zM517 77l-103 103l33 32l102 -101zM202 392l-100 99l33 34l101 -102zM448 390l-32 34l101 101l32 -34z" />
    <glyph glyph-name="yen" unicode="&#xa5;" horiz-adv-x="714" 
d="M123 259v38h459v-38h-459zM123 128v37h459v-37h-459zM338 233l-212 351v17h65l182 -311h-22l187 311h50v-15l-220 -353h-30zM203 0v20q30 8 59 13t56 8l5 245h62v-246l117 -17v-23h-299zM168 552l-111 26v23h273v-17q-40 -13 -80.5 -20.5t-81.5 -11.5zM531 552l-126 26
v23h256v-17q-31 -13 -63.5 -20.5t-66.5 -11.5z" />
    <glyph glyph-name="brokenbar" unicode="&#xa6;" horiz-adv-x="245" 
d="M102 386v349h41v-349h-41zM102 -196v349h41v-349h-41z" />
    <glyph glyph-name="section" unicode="&#xa7;" horiz-adv-x="529" 
d="M225 -200q-39 0 -80 7t-83 21l22 44q118 -34 246 -16q26 17 41 40.5t15 46.5q0 29 -23 50t-59 39.5t-76.5 37.5t-76.5 43t-58.5 58t-22.5 82q0 54 32 93t92 54l22 -27q-41 -14 -64.5 -42.5t-23.5 -67.5t23 -65.5t59.5 -47t77 -38.5t76.5 -39.5t59 -50.5t23 -71
q0 -45 -27.5 -79t-77.5 -53t-116 -19zM126 -174l-65 2l4 178l23 -4zM320 57l-17 22q47 12 78.5 46.5t31.5 74.5q0 36 -23 61t-59 44.5t-76 38t-76 41.5t-59 53t-23 74q0 67 57 106t153 39q34 0 69 -5t71 -16l-13 -44q-60 14 -119.5 16t-115.5 -9q-21 -12 -32.5 -33
t-11.5 -44q0 -34 23 -57.5t59 -41.5t76.5 -36.5t77.5 -41.5t60 -55.5t23 -79.5q0 -38 -18.5 -69.5t-53 -53t-82.5 -30.5zM420 467l-36 171l63 -2l-5 -169h-22z" />
    <glyph glyph-name="dieresis" unicode="&#xa8;" horiz-adv-x="403" 
d="M151 694q12 -12 20.5 -27t11.5 -32q-10 -12 -26 -21t-32 -11q-11 11 -20.5 26t-13.5 32q12 12 27 21.5t33 11.5zM312 694q12 -12 21 -27t11 -32q-11 -12 -26.5 -21t-31.5 -11q-13 11 -21.5 26.5t-12.5 31.5q12 12 27 21.5t33 11.5z" />
    <glyph glyph-name="copyright" unicode="&#xa9;" horiz-adv-x="751" 
d="M389 126q-94 0 -144.5 51.5t-50.5 148.5q0 98 54.5 152t149.5 54q24 0 50.5 -3t54.5 -10l-11 -41q-51 15 -102.5 13.5t-102.5 -21.5q-41 -60 -41 -145q0 -103 64.5 -142t179.5 -3l13 -39q-32 -8 -60.5 -11.5t-53.5 -3.5zM450 141l34 120h19v-120h-53zM484 400l-34 119h53
v-119h-19zM374 -8q-72 0 -133 25t-106 70t-70.5 106.5t-25.5 134.5q0 72 25 132.5t70.5 106t106.5 70.5t133 25t134 -25t107.5 -70.5t70.5 -106t25 -132.5q0 -73 -25.5 -134.5t-70.5 -106.5t-106.5 -70t-134.5 -25zM374 23q88 0 157 39.5t109 108.5t40 157q0 87 -40 155.5
t-109 108t-157 39.5q-87 0 -155.5 -39.5t-108 -108t-39.5 -155.5q0 -88 39.5 -157t108 -108.5t155.5 -39.5z" />
    <glyph glyph-name="ordfeminine" unicode="&#xaa;" horiz-adv-x="366" 
d="M306 408q-20 0 -37.5 13.5t-23.5 42.5l7 186q-20 15 -47 23.5t-59 8.5q-14 0 -25.5 -2t-24.5 -4l26 14l-11 -88q-20 4 -31 15t-11 25q0 21 15 37t40.5 26t56.5 10q69 0 115 -49v-214l65 4q-4 -23 -20 -35.5t-35 -12.5zM158 405q-44 1 -70 23t-26 58q0 23 15 38.5t58 30
t127 32.5v-29l-159 -28l17 8q-3 -9 -5 -19.5t-2 -20.5q0 -24 13.5 -38t40.5 -14q19 0 41.5 7t47.5 23v-9q-22 -21 -45.5 -36t-52.5 -26z" />
    <glyph glyph-name="guillemotleft" unicode="&#xab;" horiz-adv-x="438" 
d="M195 41l-161 195v13l161 196l28 -21l-126 -181l126 -183zM374 41l-161 195v13l161 196l28 -21l-126 -181l126 -183z" />
    <glyph glyph-name="logicalnot" unicode="&#xac;" horiz-adv-x="656" 
d="M521 328v-171h-47v122h-388v49h435z" />
    <glyph glyph-name="uni00AD" unicode="&#xad;" horiz-adv-x="321" 
d="M62 290l221 27l6 -49l-221 -27z" />
    <glyph glyph-name="registered" unicode="&#xae;" horiz-adv-x="626" 
d="M311 207q-76 0 -136 35t-95 95.5t-35 137.5q0 75 35 135.5t95 95t136 34.5q78 0 138.5 -34.5t95.5 -95t35 -136.5t-35 -136.5t-95.5 -95.5t-138.5 -35zM184 350v13q7 4 17.5 6.5t23.5 3.5l5 219l-46 11v14h87v-244l41 -9v-14h-128zM311 236q69 0 123.5 31t86 84.5
t31.5 123.5q0 67 -31.5 120.5t-86 85t-123.5 31.5q-68 0 -121.5 -31t-84.5 -85t-31 -121q0 -70 31 -123.5t84.5 -84.5t121.5 -31zM374 350l-10 78q-2 20 -12.5 28t-31.5 8h-70v27h67q25 0 42 15t17 37q0 21 -14 33.5t-37 12.5h-75v28h82q40 0 64 -18t24 -47t-20 -49.5
t-52 -25.5l-7 7q34 -4 49.5 -17.5t19.5 -38.5l11 -78l-24 29l57 -15v-14h-80z" />
    <glyph glyph-name="macron" unicode="&#xaf;" horiz-adv-x="446" 
d="M107 627v45h236v-45h-236z" />
    <glyph glyph-name="degree" unicode="&#xb0;" horiz-adv-x="439" 
d="M218 306q-45 0 -81 21t-56 57t-20 80q0 46 20 81.5t56 56t81 20.5q46 0 82 -20.5t56.5 -56t20.5 -81.5q0 -44 -21 -80t-56.5 -57t-81.5 -21zM218 341q53 0 88 35t35 88q0 54 -35 89t-88 35q-52 0 -86.5 -35t-34.5 -89q0 -53 34.5 -88t86.5 -35z" />
    <glyph glyph-name="plusminus" unicode="&#xb1;" horiz-adv-x="576" 
d="M89 347v49h397v-49h-397zM89 97v49h397v-49h-397zM263 209v323h49v-323h-49z" />
    <glyph glyph-name="uni00B2" unicode="&#xb2;" horiz-adv-x="414" 
d="M87 376v39q0 31 21 56t51.5 47t61.5 43t52 43.5t21 48.5q0 13 -6.5 26t-23.5 24l32 -20q-19 4 -40.5 6.5t-44.5 2.5q-25 0 -51.5 -2.5t-53.5 -9.5l-8 40q31 7 60 10.5t55 3.5q61 0 96.5 -20.5t35.5 -58.5q0 -32 -21 -58.5t-51.5 -48.5t-61.5 -43t-52 -42.5t-21 -47.5v-39
h-51zM107 376v34l236 6l1 -40h-237zM306 376l32 117h20l1 -117h-53zM99 599l-1 121l49 1l-28 -122h-20z" />
    <glyph glyph-name="uni00B3" unicode="&#xb3;" horiz-adv-x="402" 
d="M92 387l11 35q29 -7 53 -10.5t43 -3.5q46 0 73 17t27 49q0 30 -23.5 48t-63.5 18h-46v37h32q41 0 66.5 18t25.5 49q0 12 -5.5 24.5t-15.5 22.5q-13 2 -26.5 3.5t-30.5 1.5q-22 0 -48 -3t-54 -9l-10 34q29 8 57.5 12.5t55.5 4.5q60 0 95.5 -21.5t35.5 -61.5
q0 -32 -22 -55.5t-62 -34.5q44 -8 68 -31.5t24 -58.5q0 -48 -41 -74.5t-108 -26.5q-26 0 -54 4t-57 12zM95 493h20l29 -106h-52zM103 613l-3 105l53 1l-31 -106h-19z" />
    <glyph glyph-name="acute" unicode="&#xb4;" horiz-adv-x="303" 
d="M61 566l-13 20l167 139h10l27 -44q-46 -32 -94.5 -60.5t-96.5 -54.5z" />
    <glyph glyph-name="uni00B5" unicode="&#xb5;" horiz-adv-x="603" 
d="M491 56l104 5q-7 -22 -19.5 -37t-27.5 -22t-32 -7q-20 0 -39 10.5t-32.5 31.5t-19.5 51l9 308l-51 61q52 31 108 39v-440zM119 -196l13 592l-51 61q54 31 109 39v-420l-12 -27l14 -235v-10h-73zM305 -7q-4 0 -9.5 -1t-10.5 -1q-77 0 -137 60l34 51q57 -51 122 -51
q63 0 128 50l1 -19q-29 -31 -61 -53t-67 -36z" />
    <glyph glyph-name="paragraph" unicode="&#xb6;" horiz-adv-x="543" 
d="M269 -122l-10 11l109 161v604h176v-22q-28 -8 -55 -13t-55 -8v-491q0 -75 -40 -133.5t-125 -108.5zM238 246q-102 0 -160.5 55.5t-58.5 150.5q0 94 58 148t161 54v-408zM229 604l9 50h165v-50h-174z" />
    <glyph glyph-name="periodcentered" unicode="&#xb7;" horiz-adv-x="281" 
d="M143 230q-13 11 -22 26.5t-14 33.5q12 13 28.5 22.5t34.5 12.5q13 -12 21.5 -28.5t12.5 -32.5q-11 -13 -27.5 -22t-33.5 -12z" />
    <glyph glyph-name="cedilla" unicode="&#xb8;" horiz-adv-x="314" 
d="M77 -206l4 47q36 -10 66.5 -15.5t64.5 -6.5q8 6 13 15.5t5 18.5q0 12 -10 22t-34 20t-65 24l19 40q70 -17 102 -41t32 -58q0 -36 -27 -56.5t-72 -24t-98 14.5zM142 13h30l-21 -94h-30z" />
    <glyph glyph-name="uni00B9" unicode="&#xb9;" horiz-adv-x="296" 
d="M60 376v18q22 5 43 8.5t41 4.5l5 284h-85v17l104 25h32v-326l81 -11v-20h-221z" />
    <glyph glyph-name="ordmasculine" unicode="&#xba;" horiz-adv-x="375" 
d="M197 406q-63 0 -100.5 41t-37.5 109q0 71 40 115t106 44q62 0 100.5 -41t38.5 -109q0 -72 -41 -115.5t-106 -43.5zM201 440q40 0 65.5 32t25.5 90q0 55 -25 86.5t-68 31.5q-19 0 -39 -6.5t-44 -18.5l28 21q-16 -28 -24.5 -56.5t-8.5 -59.5q0 -57 25 -88.5t65 -31.5z" />
    <glyph glyph-name="guillemotright" unicode="&#xbb;" horiz-adv-x="438" 
d="M256 445l161 -194v-14l-161 -196l-27 21l126 183l-126 181zM76 445l160 -194v-14l-160 -196l-28 21l125 183l-125 181z" />
    <glyph glyph-name="onequarter" unicode="&#xbc;" horiz-adv-x="751" 
d="M74 247v18q22 5 43 8.5t41 4.5l5 284h-85v17l104 25h32v-326l81 -11v-20h-221zM141 -45l-33 25l514 666l33 -25zM518 0v17q18 4 34.5 7.5t32.5 5.5l6 290l10 -4l-163 -204l-7 17h284v-31h-302l-7 25l183 229h48v-322l60 -12v-18h-179z" />
    <glyph glyph-name="onehalf" unicode="&#xbd;" horiz-adv-x="829" 
d="M74 247v18q22 5 43 8.5t41 4.5l5 284h-85v17l104 25h32v-326l81 -11v-20h-221zM141 -45l-33 25l514 666l33 -25zM496 0v39q0 31 21 56t51.5 47t61.5 43t52 43.5t21 48.5q0 13 -6.5 26t-23.5 24l32 -20q-19 4 -40.5 6.5t-44.5 2.5q-25 0 -51.5 -2.5t-53.5 -9.5l-8 40
q31 7 60 10.5t55 3.5q61 0 96.5 -20.5t35.5 -58.5q0 -32 -21 -58.5t-51.5 -48.5t-61.5 -43t-52 -42.5t-21 -47.5v-39h-51zM516 0v34l236 6l1 -40h-237zM715 0l32 117h20l1 -117h-53zM508 223l-1 121l49 1l-28 -122h-20z" />
    <glyph glyph-name="threequarters" unicode="&#xbe;" horiz-adv-x="802" 
d="M107 258l11 35q29 -7 53 -10.5t43 -3.5q46 0 73 17t27 49q0 30 -23.5 48t-63.5 18h-46v37h32q41 0 66.5 18t25.5 49q0 12 -5.5 24.5t-15.5 22.5q-13 2 -26.5 3.5t-30.5 1.5q-22 0 -48 -3t-54 -9l-10 34q29 8 57.5 12.5t55.5 4.5q60 0 95.5 -21.5t35.5 -61.5
q0 -32 -22 -55.5t-62 -34.5q44 -8 68 -31.5t24 -58.5q0 -48 -41 -74.5t-108 -26.5q-26 0 -54 4t-57 12zM110 364h20l29 -106h-52zM118 484l-3 105l53 1l-31 -106h-19zM192 -45l-33 25l514 666l33 -25zM570 0v17q18 4 34.5 7.5t32.5 5.5l6 290l10 -4l-163 -204l-7 17h284v-31
h-302l-7 25l183 229h48v-322l60 -12v-18h-179z" />
    <glyph glyph-name="questiondown" unicode="&#xbf;" horiz-adv-x="442" 
d="M232 -176q-94 0 -147 39t-53 107q0 42 18.5 72t45.5 52.5t55 42.5t48.5 43t25.5 54l8 59h39l1 -64q0 -33 -18 -58.5t-44.5 -47t-53 -42.5t-45 -47t-18.5 -61q0 -46 38.5 -71t107.5 -25q63 0 143 21l14 -47q-43 -12 -84.5 -19.5t-80.5 -7.5zM329 -149l45 178h23v-178h-68z
M243 393q-13 10 -21.5 25.5t-13.5 35.5q12 12 28.5 21.5t33.5 12.5q13 -13 22 -29t11 -33q-11 -12 -27.5 -21.5t-32.5 -11.5z" />
    <glyph glyph-name="Agrave" unicode="&#xc0;" horiz-adv-x="736" 
d="M649 40q19 -4 36.5 -8.5t35.5 -9.5v-22h-254v23l107 18l-208 586h18l-215 -585q32 -4 62.5 -8.5t61.5 -11.5v-22h-249v23l68 19l233 612h78zM215 223v46h327v-46h-327zM469 732q-49 26 -96.5 54.5t-94.5 60.5l26 44h10l168 -139z" />
    <glyph glyph-name="Aacute" unicode="&#xc1;" horiz-adv-x="736" 
d="M649 40q19 -4 36.5 -8.5t35.5 -9.5v-22h-254v23l107 18l-208 586h18l-215 -585q32 -4 62.5 -8.5t61.5 -11.5v-22h-249v23l68 19l233 612h78zM215 223v46h327v-46h-327zM307 732l-13 20l167 139h10l27 -44q-46 -32 -94.5 -60.5t-96.5 -54.5z" />
    <glyph glyph-name="Acircumflex" unicode="&#xc2;" horiz-adv-x="736" 
d="M649 40q19 -4 36.5 -8.5t35.5 -9.5v-22h-254v23l107 18l-208 586h18l-215 -585q32 -4 62.5 -8.5t61.5 -11.5v-22h-249v23l68 19l233 612h78zM215 223v46h327v-46h-327zM411 882l110 -105l-23 -22l-105 78l-103 -78l-22 22l108 105h35z" />
    <glyph glyph-name="Atilde" unicode="&#xc3;" horiz-adv-x="736" 
d="M649 40q19 -4 36.5 -8.5t35.5 -9.5v-22h-254v23l107 18l-208 586h18l-215 -585q32 -4 62.5 -8.5t61.5 -11.5v-22h-249v23l68 19l233 612h78zM215 223v46h327v-46h-327zM249 757l-14 13q24 35 39.5 53.5t25.5 25.5t18.5 7t19.5 -3l116 -29l60 52l13 -12q-30 -45 -47.5 -64
t-29 -22t-25.5 1l-116 31z" />
    <glyph glyph-name="Adieresis" unicode="&#xc4;" horiz-adv-x="736" 
d="M649 40q19 -4 36.5 -8.5t35.5 -9.5v-22h-254v23l107 18l-208 586h18l-215 -585q32 -4 62.5 -8.5t61.5 -11.5v-22h-249v23l68 19l233 612h78zM215 223v46h327v-46h-327zM316 860q12 -12 20.5 -27t11.5 -32q-10 -12 -26 -21t-32 -11q-11 11 -20.5 26t-13.5 32
q12 12 27 21.5t33 11.5zM477 860q12 -12 21 -27t11 -32q-11 -12 -26.5 -21t-31.5 -11q-13 11 -21.5 26.5t-12.5 31.5q12 12 27 21.5t33 11.5z" />
    <glyph glyph-name="Aring" unicode="&#xc5;" horiz-adv-x="736" 
d="M649 40q19 -4 36.5 -8.5t35.5 -9.5v-22h-254v23l107 18l-208 586h18l-215 -585q32 -4 62.5 -8.5t61.5 -11.5v-22h-249v23l68 19l233 612h78zM215 223v46h327v-46h-327zM381 732q-24 0 -42.5 11t-29.5 29.5t-11 42.5q0 23 11 42t29.5 29.5t42.5 10.5q36 0 59 -23t23 -59
q0 -25 -10.5 -43t-29 -29t-42.5 -11zM381 766q21 0 35 14t14 34q0 22 -14 35.5t-35 13.5q-20 0 -34.5 -14t-14.5 -35q0 -20 14.5 -34t34.5 -14z" />
    <glyph glyph-name="AE" unicode="&#xc6;" horiz-adv-x="985" 
d="M860 214h22v-214h-447v23l113 18l-152 590l18 -1l-277 -589q32 -4 61.5 -9t58.5 -10v-22h-227v23l51 20l274 569l-109 18v24h607v-194h-22l-34 146h-360l21 27l163 -612l-34 27h238zM737 228l-39 111l39 110h20v-221h-20zM205 223l1 46h324v-46h-325zM505 315v48h237v-48
h-237z" />
    <glyph glyph-name="Ccedilla" unicode="&#xc7;" horiz-adv-x="699" 
d="M417 -7q-153 0 -235 85.5t-82 246.5q0 106 39.5 181.5t114 116.5t178.5 41q38 0 80 -5.5t87 -17.5l-14 -58q-40 13 -81 19.5t-81 6.5q-51 0 -102 -11.5t-99 -34.5l27 21q-40 -58 -60 -123t-20 -140q0 -133 67.5 -205t188.5 -72q35 0 74.5 7t82.5 20l17 -54
q-101 -24 -182 -24zM524 17l51 192h24v-192h-75zM575 449l-50 192h74v-192h-24zM338 -206l4 47q36 -10 66.5 -15.5t64.5 -6.5q8 6 13 15.5t5 18.5q0 12 -10 22t-34 20t-65 24l19 40q70 -17 102 -41t32 -58q0 -36 -27 -56.5t-72 -24t-98 14.5zM403 13h30l-21 -94h-30z" />
    <glyph glyph-name="Egrave" unicode="&#xc8;" horiz-adv-x="718" 
d="M597 215h23v-215h-549v22q28 8 55.5 13.5t54.5 8.5l9 565l-119 21v24h539v-194h-23l-34 146h-327l28 28v-273h200l29 87h21v-222h-21l-30 87h-199v-293l-28 28h336zM469 732q-49 26 -96.5 54.5t-94.5 60.5l26 44h10l168 -139z" />
    <glyph glyph-name="Eacute" unicode="&#xc9;" horiz-adv-x="718" 
d="M597 215h23v-215h-549v22q28 8 55.5 13.5t54.5 8.5l9 565l-119 21v24h539v-194h-23l-34 146h-327l28 28v-273h200l29 87h21v-222h-21l-30 87h-199v-293l-28 28h336zM308 732l-13 20l167 139h10l27 -44q-46 -32 -94.5 -60.5t-96.5 -54.5z" />
    <glyph glyph-name="Ecircumflex" unicode="&#xca;" horiz-adv-x="718" 
d="M597 215h23v-215h-549v22q28 8 55.5 13.5t54.5 8.5l9 565l-119 21v24h539v-194h-23l-34 146h-327l28 28v-273h200l29 87h21v-222h-21l-30 87h-199v-293l-28 28h336zM411 882l110 -105l-23 -22l-105 78l-103 -78l-22 22l108 105h35z" />
    <glyph glyph-name="Edieresis" unicode="&#xcb;" horiz-adv-x="718" 
d="M597 215h23v-215h-549v22q28 8 55.5 13.5t54.5 8.5l9 565l-119 21v24h539v-194h-23l-34 146h-327l28 28v-273h200l29 87h21v-222h-21l-30 87h-199v-293l-28 28h336zM316 860q12 -12 20.5 -27t11.5 -32q-10 -12 -26 -21t-32 -11q-11 11 -20.5 26t-13.5 32q12 12 27 21.5
t33 11.5zM477 860q12 -12 21 -27t11 -32q-11 -12 -26.5 -21t-31.5 -11q-13 11 -21.5 26.5t-12.5 31.5q12 12 27 21.5t33 11.5z" />
    <glyph glyph-name="Igrave" unicode="&#xcc;" horiz-adv-x="408" 
d="M71 0v22q28 8 55.5 13.5t54.5 8.5l9 565l-119 21v24h294v-22q-25 -7 -53 -12.5t-58 -8.5v-567l111 -20v-24h-294zM307 732q-49 26 -96.5 54.5t-94.5 60.5l26 44h10l168 -139z" />
    <glyph glyph-name="Iacute" unicode="&#xcd;" horiz-adv-x="408" 
d="M71 0v22q28 8 55.5 13.5t54.5 8.5l9 565l-119 21v24h294v-22q-25 -7 -53 -12.5t-58 -8.5v-567l111 -20v-24h-294zM145 732l-13 20l167 139h10l27 -44q-46 -32 -94.5 -60.5t-96.5 -54.5z" />
    <glyph glyph-name="Icircumflex" unicode="&#xce;" horiz-adv-x="408" 
d="M71 0v22q28 8 55.5 13.5t54.5 8.5l9 565l-119 21v24h294v-22q-25 -7 -53 -12.5t-58 -8.5v-567l111 -20v-24h-294zM248 882l110 -105l-23 -22l-105 78l-103 -78l-22 22l108 105h35z" />
    <glyph glyph-name="Idieresis" unicode="&#xcf;" horiz-adv-x="408" 
d="M71 0v22q28 8 55.5 13.5t54.5 8.5l9 565l-119 21v24h294v-22q-25 -7 -53 -12.5t-58 -8.5v-567l111 -20v-24h-294zM153 860q12 -12 20.5 -27t11.5 -32q-10 -12 -26 -21t-32 -11q-11 11 -20.5 26t-13.5 32q12 12 27 21.5t33 11.5zM314 860q12 -12 21 -27t11 -32
q-11 -12 -26.5 -21t-31.5 -11q-13 11 -21.5 26.5t-12.5 31.5q12 12 27 21.5t33 11.5z" />
    <glyph glyph-name="Eth" unicode="&#xd0;" horiz-adv-x="794" 
d="M440 654q87 0 151 -39.5t99.5 -111.5t35.5 -167q0 -100 -37 -175.5t-103 -118t-153 -42.5h-339v22q23 8 51 13.5t59 8.5l9 565l-119 21v24h346zM492 48q80 35 121.5 105.5t41.5 173.5q0 70 -16 121.5t-46 86.5t-70.5 53t-89.5 18h-184l28 27v-612l-28 27h243zM102 357
h330v-42h-330v42z" />
    <glyph glyph-name="Ntilde" unicode="&#xd1;" horiz-adv-x="819" 
d="M511 654h281v-22q-29 -8 -56 -13.5t-54 -7.5l-1 -611h-69l-391 584l16 5v-545l126 -20v-24h-292v22q28 8 55.5 13.5t54.5 8.5l9 565l-119 21v24h186l394 -589l-15 -4l-10 550l-115 19v24zM291 757l-14 13q24 35 39.5 53.5t25.5 25.5t18.5 7t19.5 -3l116 -29l60 52l13 -12
q-30 -45 -47.5 -64t-29 -22t-25.5 1l-116 31z" />
    <glyph glyph-name="Ograve" unicode="&#xd2;" horiz-adv-x="755" 
d="M385 -8q-85 0 -149.5 41t-100.5 114t-36 171q0 100 38.5 177.5t106.5 122t154 44.5q85 0 150.5 -41.5t102 -115t36.5 -170.5q0 -100 -38 -177.5t-106.5 -121.5t-157.5 -44zM392 40q66 0 116.5 36.5t79.5 102t29 152.5q0 84 -27.5 146.5t-78.5 97.5t-119 35
q-45 0 -89 -15.5t-80 -45.5l26 29q-81 -121 -81 -258q0 -82 28.5 -145.5t79.5 -99t116 -35.5zM479 732q-49 26 -96.5 54.5t-94.5 60.5l26 44h10l168 -139z" />
    <glyph glyph-name="Oacute" unicode="&#xd3;" horiz-adv-x="755" 
d="M385 -8q-85 0 -149.5 41t-100.5 114t-36 171q0 100 38.5 177.5t106.5 122t154 44.5q85 0 150.5 -41.5t102 -115t36.5 -170.5q0 -100 -38 -177.5t-106.5 -121.5t-157.5 -44zM392 40q66 0 116.5 36.5t79.5 102t29 152.5q0 84 -27.5 146.5t-78.5 97.5t-119 35
q-45 0 -89 -15.5t-80 -45.5l26 29q-81 -121 -81 -258q0 -82 28.5 -145.5t79.5 -99t116 -35.5zM317 732l-13 20l167 139h10l27 -44q-46 -32 -94.5 -60.5t-96.5 -54.5z" />
    <glyph glyph-name="Ocircumflex" unicode="&#xd4;" horiz-adv-x="755" 
d="M385 -8q-85 0 -149.5 41t-100.5 114t-36 171q0 100 38.5 177.5t106.5 122t154 44.5q85 0 150.5 -41.5t102 -115t36.5 -170.5q0 -100 -38 -177.5t-106.5 -121.5t-157.5 -44zM392 40q66 0 116.5 36.5t79.5 102t29 152.5q0 84 -27.5 146.5t-78.5 97.5t-119 35
q-45 0 -89 -15.5t-80 -45.5l26 29q-81 -121 -81 -258q0 -82 28.5 -145.5t79.5 -99t116 -35.5zM421 882l110 -105l-23 -22l-105 78l-103 -78l-22 22l108 105h35z" />
    <glyph glyph-name="Otilde" unicode="&#xd5;" horiz-adv-x="755" 
d="M385 -8q-85 0 -149.5 41t-100.5 114t-36 171q0 100 38.5 177.5t106.5 122t154 44.5q85 0 150.5 -41.5t102 -115t36.5 -170.5q0 -100 -38 -177.5t-106.5 -121.5t-157.5 -44zM392 40q66 0 116.5 36.5t79.5 102t29 152.5q0 84 -27.5 146.5t-78.5 97.5t-119 35
q-45 0 -89 -15.5t-80 -45.5l26 29q-81 -121 -81 -258q0 -82 28.5 -145.5t79.5 -99t116 -35.5zM260 757l-14 13q24 35 39.5 53.5t25.5 25.5t18.5 7t19.5 -3l116 -29l60 52l13 -12q-30 -45 -47.5 -64t-29 -22t-25.5 1l-116 31z" />
    <glyph glyph-name="Odieresis" unicode="&#xd6;" horiz-adv-x="755" 
d="M385 -8q-85 0 -149.5 41t-100.5 114t-36 171q0 100 38.5 177.5t106.5 122t154 44.5q85 0 150.5 -41.5t102 -115t36.5 -170.5q0 -100 -38 -177.5t-106.5 -121.5t-157.5 -44zM392 40q66 0 116.5 36.5t79.5 102t29 152.5q0 84 -27.5 146.5t-78.5 97.5t-119 35
q-45 0 -89 -15.5t-80 -45.5l26 29q-81 -121 -81 -258q0 -82 28.5 -145.5t79.5 -99t116 -35.5zM326 860q12 -12 20.5 -27t11.5 -32q-10 -12 -26 -21t-32 -11q-11 11 -20.5 26t-13.5 32q12 12 27 21.5t33 11.5zM487 860q12 -12 21 -27t11 -32q-11 -12 -26.5 -21t-31.5 -11
q-13 11 -21.5 26.5t-12.5 31.5q12 12 27 21.5t33 11.5z" />
    <glyph glyph-name="multiply" unicode="&#xd7;" horiz-adv-x="508" 
d="M117 112l-35 35l309 308l35 -34zM391 112l-309 309l35 34l309 -308z" />
    <glyph glyph-name="Oslash" unicode="&#xd8;" horiz-adv-x="759" 
d="M259 50l-64 -134l-40 16l68 137zM373 -8q-85 0 -149.5 41t-101 114t-36.5 171q0 100 38.5 177.5t106 122t155.5 44.5q84 0 150 -41.5t102.5 -115t36.5 -170.5q0 -100 -38 -177.5t-106.5 -121.5t-157.5 -44zM379 40q67 0 117.5 36.5t79.5 102t29 152.5q0 84 -28 146.5
t-78.5 97.5t-119.5 35q-39 0 -78.5 -12.5t-72.5 -36.5q-72 -114 -72 -241q0 -82 28.5 -145.5t78.5 -99t116 -35.5zM483 614l58 120l39 -15l-59 -123zM223 69l260 545l38 -18l-262 -546z" />
    <glyph glyph-name="Ugrave" unicode="&#xd9;" horiz-adv-x="793" 
d="M411 -9q-120 0 -183.5 54t-63.5 157l7 407l-120 21v24h293v-22q-21 -8 -47.5 -13t-62.5 -8v-412q0 -78 46 -118t136 -40q66 0 109.5 20.5t76.5 66.5l5 481l-117 21v24h280v-22q-22 -8 -49 -13t-62 -8l1 -399q0 -105 -65.5 -163t-183.5 -58zM503 732q-49 26 -96.5 54.5
t-94.5 60.5l26 44h10l168 -139z" />
    <glyph glyph-name="Uacute" unicode="&#xda;" horiz-adv-x="793" 
d="M410 -9q-120 0 -183.5 54t-63.5 157l7 407l-120 21v24h293v-22q-21 -8 -47.5 -13t-62.5 -8v-412q0 -78 46 -118t136 -40q66 0 109.5 20.5t76.5 66.5l5 481l-117 21v24h280v-22q-22 -8 -49 -13t-62 -8l1 -399q0 -105 -65.5 -163t-183.5 -58zM341 732l-13 20l167 139h10
l27 -44q-46 -32 -94.5 -60.5t-96.5 -54.5z" />
    <glyph glyph-name="Ucircumflex" unicode="&#xdb;" horiz-adv-x="793" 
d="M411 -9q-120 0 -183.5 54t-63.5 157l7 407l-120 21v24h293v-22q-21 -8 -47.5 -13t-62.5 -8v-412q0 -78 46 -118t136 -40q66 0 109.5 20.5t76.5 66.5l5 481l-117 21v24h280v-22q-22 -8 -49 -13t-62 -8l1 -399q0 -105 -65.5 -163t-183.5 -58zM445 882l110 -105l-23 -22
l-105 78l-103 -78l-22 22l108 105h35z" />
    <glyph glyph-name="Udieresis" unicode="&#xdc;" horiz-adv-x="793" 
d="M410 -9q-120 0 -183.5 54t-63.5 157l7 407l-120 21v24h293v-22q-21 -8 -47.5 -13t-62.5 -8v-412q0 -78 46 -118t136 -40q66 0 109.5 20.5t76.5 66.5l5 481l-117 21v24h280v-22q-22 -8 -49 -13t-62 -8l1 -399q0 -105 -65.5 -163t-183.5 -58zM349 860q12 -12 20.5 -27
t11.5 -32q-10 -12 -26 -21t-32 -11q-11 11 -20.5 26t-13.5 32q12 12 27 21.5t33 11.5zM510 860q12 -12 21 -27t11 -32q-11 -12 -26.5 -21t-31.5 -11q-13 11 -21.5 26.5t-12.5 31.5q12 12 27 21.5t33 11.5z" />
    <glyph glyph-name="Yacute" unicode="&#xdd;" horiz-adv-x="711" 
d="M348 225l-226 401v17h71l193 -356h-22l196 356h53l1 -14l-234 -404h-32zM201 0v22q32 8 63 13.5t62 8.5l4 237h68v-237l127 -20v-24h-324zM162 601l-120 28v25h296v-20q-42 -14 -86.5 -22.5t-89.5 -10.5zM556 601l-136 28v25h279v-20q-35 -14 -70.5 -22.5t-72.5 -10.5z
M300 732l-13 20l167 139h10l27 -44q-46 -32 -94.5 -60.5t-96.5 -54.5z" />
    <glyph glyph-name="Thorn" unicode="&#xde;" horiz-adv-x="655" 
d="M56 0v22q28 8 55.5 13.5t54.5 8.5l9 565l-119 21v24h294v-20q-25 -8 -53 -14t-58 -8v-569l111 -19v-24h-294zM205 147v47h232q49 30 70.5 65.5t21.5 83.5q0 68 -38 104t-110 36h-176v47h187q96 0 150 -47.5t54 -131.5q0 -63 -28.5 -108.5t-81 -70.5t-122.5 -25h-159z" />
    <glyph glyph-name="germandbls" unicode="&#xdf;" horiz-adv-x="652" 
d="M293 13l16 45q42 -10 80 -14.5t79 -4.5q18 0 37.5 0.5t40.5 3.5l-37 -6q22 7 37 28.5t15 44.5q0 26 -17.5 45.5t-44.5 36.5t-57 34.5t-57.5 37.5t-44.5 46t-17 61q0 30 15 52.5t38 40.5t45.5 36t38 40.5t15.5 52.5q0 48 -37 72t-107 24q-22 0 -48.5 -2.5t-55.5 -8.5
q-20 -24 -29 -81t-9 -153h-145v13q20 11 40.5 18t44.5 10q3 89 26.5 146.5t70 84.5t116.5 27q88 0 139.5 -39t51.5 -102q0 -37 -15 -63.5t-38 -46.5t-45.5 -37.5t-37.5 -36t-15 -43.5q0 -24 17 -42.5t43.5 -35t57 -33t57.5 -36t44 -45t17 -61.5q0 -40 -25.5 -69t-68.5 -44.5
t-98 -15.5q-32 0 -65.5 5t-67.5 15zM53 0v19q17 7 34 12.5t35 9.5l8 403h59v-444h-136zM353 13h-60l4 144h20z" />
    <glyph glyph-name="agrave" unicode="&#xe0;" horiz-adv-x="527" 
d="M447 -5q-29 0 -54.5 22.5t-34.5 66.5l10 308q-65 55 -161 55q-20 0 -39.5 -2.5t-38.5 -7.5l33 18l-17 -140q-27 7 -42 24t-15 41q0 31 22 57.5t59.5 42t84.5 15.5q50 0 94.5 -20.5t77.5 -57.5v-357l102 4q-5 -23 -17.5 -38.5t-29.5 -23t-34 -7.5zM219 -10q-65 1 -104 37
t-39 93q0 29 12.5 50t45.5 38.5t94 35.5t155 39v-41l-250 -52l22 12q-6 -15 -8 -32.5t-2 -32.5q0 -42 21 -65.5t64 -23.5q31 0 67 13.5t77 41.5v-17q-35 -33 -71.5 -56.5t-83.5 -39.5zM359 566q-49 26 -96.5 54.5t-94.5 60.5l26 44h10l168 -139z" />
    <glyph glyph-name="aacute" unicode="&#xe1;" horiz-adv-x="527" 
d="M447 -5q-29 0 -54.5 22.5t-34.5 66.5l10 308q-65 55 -161 55q-20 0 -39.5 -2.5t-38.5 -7.5l33 18l-17 -140q-27 7 -42 24t-15 41q0 31 22 57.5t59.5 42t84.5 15.5q50 0 94.5 -20.5t77.5 -57.5v-357l102 4q-5 -23 -17.5 -38.5t-29.5 -23t-34 -7.5zM219 -10q-65 1 -104 37
t-39 93q0 29 12.5 50t45.5 38.5t94 35.5t155 39v-41l-250 -52l22 12q-6 -15 -8 -32.5t-2 -32.5q0 -42 21 -65.5t64 -23.5q31 0 67 13.5t77 41.5v-17q-35 -33 -71.5 -56.5t-83.5 -39.5zM196 566l-13 20l167 139h10l27 -44q-46 -32 -94.5 -60.5t-96.5 -54.5z" />
    <glyph glyph-name="acircumflex" unicode="&#xe2;" horiz-adv-x="527" 
d="M447 -5q-29 0 -54.5 22.5t-34.5 66.5l10 308q-65 55 -161 55q-20 0 -39.5 -2.5t-38.5 -7.5l33 18l-17 -140q-27 7 -42 24t-15 41q0 31 22 57.5t59.5 42t84.5 15.5q50 0 94.5 -20.5t77.5 -57.5v-357l102 4q-5 -23 -17.5 -38.5t-29.5 -23t-34 -7.5zM219 -10q-65 1 -104 37
t-39 93q0 29 12.5 50t45.5 38.5t94 35.5t155 39v-41l-250 -52l22 12q-6 -15 -8 -32.5t-2 -32.5q0 -42 21 -65.5t64 -23.5q31 0 67 13.5t77 41.5v-17q-35 -33 -71.5 -56.5t-83.5 -39.5zM301 716l110 -105l-23 -22l-105 78l-103 -78l-22 22l108 105h35z" />
    <glyph glyph-name="atilde" unicode="&#xe3;" horiz-adv-x="527" 
d="M447 -5q-29 0 -54.5 22.5t-34.5 66.5l10 308q-65 55 -161 55q-20 0 -39.5 -2.5t-38.5 -7.5l33 18l-17 -140q-27 7 -42 24t-15 41q0 31 22 57.5t59.5 42t84.5 15.5q50 0 94.5 -20.5t77.5 -57.5v-357l102 4q-5 -23 -17.5 -38.5t-29.5 -23t-34 -7.5zM219 -10q-65 1 -104 37
t-39 93q0 29 12.5 50t45.5 38.5t94 35.5t155 39v-41l-250 -52l22 12q-6 -15 -8 -32.5t-2 -32.5q0 -42 21 -65.5t64 -23.5q31 0 67 13.5t77 41.5v-17q-35 -33 -71.5 -56.5t-83.5 -39.5zM139 591l-14 13q24 35 39.5 53.5t25.5 25.5t18.5 7t19.5 -3l116 -29l60 52l13 -12
q-30 -45 -47.5 -64t-29 -22t-25.5 1l-116 31z" />
    <glyph glyph-name="adieresis" unicode="&#xe4;" horiz-adv-x="527" 
d="M447 -5q-29 0 -54.5 22.5t-34.5 66.5l10 308q-65 55 -161 55q-20 0 -39.5 -2.5t-38.5 -7.5l33 18l-17 -140q-27 7 -42 24t-15 41q0 31 22 57.5t59.5 42t84.5 15.5q50 0 94.5 -20.5t77.5 -57.5v-357l102 4q-5 -23 -17.5 -38.5t-29.5 -23t-34 -7.5zM219 -10q-65 1 -104 37
t-39 93q0 29 12.5 50t45.5 38.5t94 35.5t155 39v-41l-250 -52l22 12q-6 -15 -8 -32.5t-2 -32.5q0 -42 21 -65.5t64 -23.5q31 0 67 13.5t77 41.5v-17q-35 -33 -71.5 -56.5t-83.5 -39.5zM205 694q12 -12 20.5 -27t11.5 -32q-10 -12 -26 -21t-32 -11q-11 11 -20.5 26t-13.5 32
q12 12 27 21.5t33 11.5zM366 694q12 -12 21 -27t11 -32q-11 -12 -26.5 -21t-31.5 -11q-13 11 -21.5 26.5t-12.5 31.5q12 12 27 21.5t33 11.5z" />
    <glyph glyph-name="aring" unicode="&#xe5;" horiz-adv-x="527" 
d="M447 -5q-29 0 -54.5 22.5t-34.5 66.5l10 308q-65 55 -161 55q-20 0 -39.5 -2.5t-38.5 -7.5l33 18l-17 -140q-27 7 -42 24t-15 41q0 31 22 57.5t59.5 42t84.5 15.5q50 0 94.5 -20.5t77.5 -57.5v-357l102 4q-5 -23 -17.5 -38.5t-29.5 -23t-34 -7.5zM219 -10q-65 1 -104 37
t-39 93q0 29 12.5 50t45.5 38.5t94 35.5t155 39v-41l-250 -52l22 12q-6 -15 -8 -32.5t-2 -32.5q0 -42 21 -65.5t64 -23.5q31 0 67 13.5t77 41.5v-17q-35 -33 -71.5 -56.5t-83.5 -39.5zM270 566q-24 0 -42.5 11t-29.5 29.5t-11 42.5q0 23 11 42t29.5 29.5t42.5 10.5
q36 0 59 -23t23 -59q0 -25 -10.5 -43t-29 -29t-42.5 -11zM270 600q21 0 35 14t14 34q0 22 -14 35.5t-35 13.5q-20 0 -34.5 -14t-14.5 -35q0 -20 14.5 -34t34.5 -14z" />
    <glyph glyph-name="ae" unicode="&#xe6;" horiz-adv-x="796" 
d="M548 -7q-96 0 -148.5 68.5t-52.5 193.5q0 118 55 178t162 60q50 0 88 -22t59.5 -62t20.5 -92l-4 -63q-56 -9 -106.5 -15t-106.5 -9t-133 -3v39l288 3l5 48q0 59 -33.5 94.5t-90.5 35.5q-25 0 -55.5 -8.5t-59.5 -22.5q-13 -35 -21.5 -76t-8.5 -82q0 -104 46 -158.5
t124 -54.5q33 0 71 10t79 29l5 -11q-87 -80 -183 -80zM214 -9q-73 0 -112 33.5t-39 93.5q0 30 12.5 51.5t45.5 39t93 35t155 38.5v-39l-234 -51q-4 -16 -6 -30t-2 -27q0 -43 22.5 -66.5t64.5 -23.5q39 0 84 20t95 60l2 -20q-41 -41 -84.5 -68.5t-96.5 -45.5zM376 373
q-75 76 -181 76q-39 0 -80 -12l31 18l-17 -139q-27 7 -41 24t-14 40q0 33 22 58.5t58.5 40t82.5 14.5q54 0 102.5 -23t83.5 -67z" />
    <glyph glyph-name="ccedilla" unicode="&#xe7;" horiz-adv-x="469" 
d="M269 -7q-58 0 -102.5 31.5t-69.5 87t-25 127.5q0 79 28.5 136t78.5 88t115 31q31 0 62.5 -7.5t62.5 -20.5l-13 -51q-59 29 -129 29q-31 0 -61 -8.5t-57 -25.5l29 24q-25 -41 -38.5 -89t-13.5 -97q0 -64 21 -108.5t58 -68.5t85 -24q28 0 59.5 9t64.5 28l5 -13
q-72 -78 -160 -78zM393 330l-37 136h63l-3 -136h-23zM183 -206l4 47q36 -10 66.5 -15.5t64.5 -6.5q8 6 13 15.5t5 18.5q0 12 -10 22t-34 20t-65 24l19 40q70 -17 102 -41t32 -58q0 -36 -27 -56.5t-72 -24t-98 14.5zM248 13h30l-21 -94h-30z" />
    <glyph glyph-name="egrave" unicode="&#xe8;" horiz-adv-x="507" 
d="M274 -7q-61 0 -106.5 30.5t-70.5 85.5t-25 126q0 75 26.5 133.5t75.5 92t113 33.5q51 0 89.5 -22.5t60.5 -62.5t22 -92l-3 -65q-55 -9 -107 -14.5t-110 -8t-131 -4.5v42l289 5l2 45q0 58 -33 93.5t-87 35.5q-24 0 -50 -8t-49 -22q-24 -38 -35.5 -82t-11.5 -88
q0 -95 46 -147.5t124 -52.5q67 0 150 41l4 -13q-41 -41 -88 -61t-95 -20zM369 566q-49 26 -96.5 54.5t-94.5 60.5l26 44h10l168 -139z" />
    <glyph glyph-name="eacute" unicode="&#xe9;" horiz-adv-x="507" 
d="M274 -7q-61 0 -106.5 30.5t-70.5 85.5t-25 126q0 75 26.5 133.5t75.5 92t113 33.5q51 0 89.5 -22.5t60.5 -62.5t22 -92l-3 -65q-55 -9 -107 -14.5t-110 -8t-131 -4.5v42l289 5l2 45q0 58 -33 93.5t-87 35.5q-24 0 -50 -8t-49 -22q-24 -38 -35.5 -82t-11.5 -88
q0 -95 46 -147.5t124 -52.5q67 0 150 41l4 -13q-41 -41 -88 -61t-95 -20zM208 566l-13 20l167 139h10l27 -44q-46 -32 -94.5 -60.5t-96.5 -54.5z" />
    <glyph glyph-name="ecircumflex" unicode="&#xea;" horiz-adv-x="507" 
d="M274 -7q-61 0 -106.5 30.5t-70.5 85.5t-25 126q0 75 26.5 133.5t75.5 92t113 33.5q51 0 89.5 -22.5t60.5 -62.5t22 -92l-3 -65q-55 -9 -107 -14.5t-110 -8t-131 -4.5v42l289 5l2 45q0 58 -33 93.5t-87 35.5q-24 0 -50 -8t-49 -22q-24 -38 -35.5 -82t-11.5 -88
q0 -95 46 -147.5t124 -52.5q67 0 150 41l4 -13q-41 -41 -88 -61t-95 -20zM311 716l110 -105l-23 -22l-105 78l-103 -78l-22 22l108 105h35z" />
    <glyph glyph-name="edieresis" unicode="&#xeb;" horiz-adv-x="507" 
d="M274 -7q-61 0 -106.5 30.5t-70.5 85.5t-25 126q0 75 26.5 133.5t75.5 92t113 33.5q51 0 89.5 -22.5t60.5 -62.5t22 -92l-3 -65q-55 -9 -107 -14.5t-110 -8t-131 -4.5v42l289 5l2 45q0 58 -33 93.5t-87 35.5q-24 0 -50 -8t-49 -22q-24 -38 -35.5 -82t-11.5 -88
q0 -95 46 -147.5t124 -52.5q67 0 150 41l4 -13q-41 -41 -88 -61t-95 -20zM216 694q12 -12 20.5 -27t11.5 -32q-10 -12 -26 -21t-32 -11q-11 11 -20.5 26t-13.5 32q12 12 27 21.5t33 11.5zM377 694q12 -12 21 -27t11 -32q-11 -12 -26.5 -21t-31.5 -11q-13 11 -21.5 26.5
t-12.5 31.5q12 12 27 21.5t33 11.5z" />
    <glyph glyph-name="igrave" unicode="&#xec;" horiz-adv-x="292" 
d="M53 0v19q15 7 33.5 12.5t39.5 9.5l10 355l-51 61q25 15 51.5 25t57.5 14v-458l79 -19v-19h-220zM247 566q-49 26 -96.5 54.5t-94.5 60.5l26 44h10l168 -139z" />
    <glyph glyph-name="iacute" unicode="&#xed;" horiz-adv-x="292" 
d="M53 0v19q15 7 33.5 12.5t39.5 9.5l10 355l-51 61q25 15 51.5 25t57.5 14v-458l79 -19v-19h-220zM84 566l-13 20l167 139h10l27 -44q-46 -32 -94.5 -60.5t-96.5 -54.5z" />
    <glyph glyph-name="icircumflex" unicode="&#xee;" horiz-adv-x="292" 
d="M53 0v19q15 7 33.5 12.5t39.5 9.5l10 355l-51 61q25 15 51.5 25t57.5 14v-458l79 -19v-19h-220zM189 716l110 -105l-23 -22l-105 78l-103 -78l-22 22l108 105h35z" />
    <glyph glyph-name="idieresis" unicode="&#xef;" horiz-adv-x="292" 
d="M53 0v19q15 7 33.5 12.5t39.5 9.5l10 355l-51 61q25 15 51.5 25t57.5 14v-458l79 -19v-19h-220zM93 694q12 -12 20.5 -27t11.5 -32q-10 -12 -26 -21t-32 -11q-11 11 -20.5 26t-13.5 32q12 12 27 21.5t33 11.5zM254 694q12 -12 21 -27t11 -32q-11 -12 -26.5 -21t-31.5 -11
q-13 11 -21.5 26.5t-12.5 31.5q12 12 27 21.5t33 11.5z" />
    <glyph glyph-name="eth" unicode="&#xf0;" horiz-adv-x="549" 
d="M265 -8q-64 0 -110.5 30t-72 84t-25.5 127q0 79 28.5 136.5t76 88t105.5 30.5q41 0 82.5 -18t79.5 -56l-2 -44q-33 35 -75.5 53.5t-87.5 18.5q-24 0 -49 -6.5t-48 -20.5q-24 -41 -35 -86t-11 -91q0 -61 18.5 -106t52.5 -70t77 -25q46 0 79 26.5t51.5 74.5t18.5 114
q0 87 -32 167t-97 155t-165 148l26 21q109 -68 182.5 -145.5t111.5 -163.5t38 -177q0 -81 -26.5 -140t-75.5 -92t-115 -33zM141 547l-12 36l291 94l12 -36z" />
    <glyph glyph-name="ntilde" unicode="&#xf1;" horiz-adv-x="590" 
d="M53 0v19q13 6 30.5 11.5t42.5 10.5l10 355l-51 61q48 29 102 39l7 -93v-365l79 -19v-19h-220zM354 0v19q15 6 32.5 11.5t41.5 10.5l10 346l57 30v-379l81 -19v-19h-222zM188 384l-2 20q30 31 62.5 53t68.5 36q5 0 10.5 0.5t9.5 0.5q46 0 85.5 -18.5t72.5 -58.5l-57 -30
q-56 50 -120 50t-130 -53zM182 591l-14 13q24 35 39.5 53.5t25.5 25.5t18.5 7t19.5 -3l116 -29l60 52l13 -12q-30 -45 -47.5 -64t-29 -22t-25.5 1l-116 31z" />
    <glyph glyph-name="ograve" unicode="&#xf2;" horiz-adv-x="540" 
d="M278 -8q-62 0 -108.5 30.5t-72 85t-25.5 126.5q0 78 27.5 136t76.5 91t113 33q62 0 109.5 -30.5t73.5 -86t26 -127.5q0 -77 -27.5 -135t-77.5 -90.5t-115 -32.5zM283 37q45 0 78.5 25.5t53 72.5t19.5 111q0 62 -19 107t-53 69t-80 24q-28 0 -59.5 -10t-66.5 -31l34 27
q-26 -45 -39.5 -92.5t-13.5 -99.5q0 -62 18.5 -107.5t52 -70.5t75.5 -25zM372 566q-49 26 -96.5 54.5t-94.5 60.5l26 44h10l168 -139z" />
    <glyph glyph-name="oacute" unicode="&#xf3;" horiz-adv-x="540" 
d="M278 -8q-62 0 -108.5 30.5t-72 85t-25.5 126.5q0 78 27.5 136t76.5 91t113 33q62 0 109.5 -30.5t73.5 -86t26 -127.5q0 -77 -27.5 -135t-77.5 -90.5t-115 -32.5zM283 37q45 0 78.5 25.5t53 72.5t19.5 111q0 62 -19 107t-53 69t-80 24q-28 0 -59.5 -10t-66.5 -31l34 27
q-26 -45 -39.5 -92.5t-13.5 -99.5q0 -62 18.5 -107.5t52 -70.5t75.5 -25zM210 566l-13 20l167 139h10l27 -44q-46 -32 -94.5 -60.5t-96.5 -54.5z" />
    <glyph glyph-name="ocircumflex" unicode="&#xf4;" horiz-adv-x="540" 
d="M278 -8q-62 0 -108.5 30.5t-72 85t-25.5 126.5q0 78 27.5 136t76.5 91t113 33q62 0 109.5 -30.5t73.5 -86t26 -127.5q0 -77 -27.5 -135t-77.5 -90.5t-115 -32.5zM283 37q45 0 78.5 25.5t53 72.5t19.5 111q0 62 -19 107t-53 69t-80 24q-28 0 -59.5 -10t-66.5 -31l34 27
q-26 -45 -39.5 -92.5t-13.5 -99.5q0 -62 18.5 -107.5t52 -70.5t75.5 -25zM315 716l110 -105l-23 -22l-105 78l-103 -78l-22 22l108 105h35z" />
    <glyph glyph-name="otilde" unicode="&#xf5;" horiz-adv-x="540" 
d="M278 -8q-62 0 -108.5 30.5t-72 85t-25.5 126.5q0 78 27.5 136t76.5 91t113 33q62 0 109.5 -30.5t73.5 -86t26 -127.5q0 -77 -27.5 -135t-77.5 -90.5t-115 -32.5zM283 37q45 0 78.5 25.5t53 72.5t19.5 111q0 62 -19 107t-53 69t-80 24q-28 0 -59.5 -10t-66.5 -31l34 27
q-26 -45 -39.5 -92.5t-13.5 -99.5q0 -62 18.5 -107.5t52 -70.5t75.5 -25zM152 591l-14 13q24 35 39.5 53.5t25.5 25.5t18.5 7t19.5 -3l116 -29l60 52l13 -12q-30 -45 -47.5 -64t-29 -22t-25.5 1l-116 31z" />
    <glyph glyph-name="odieresis" unicode="&#xf6;" horiz-adv-x="540" 
d="M278 -8q-62 0 -108.5 30.5t-72 85t-25.5 126.5q0 78 27.5 136t76.5 91t113 33q62 0 109.5 -30.5t73.5 -86t26 -127.5q0 -77 -27.5 -135t-77.5 -90.5t-115 -32.5zM283 37q45 0 78.5 25.5t53 72.5t19.5 111q0 62 -19 107t-53 69t-80 24q-28 0 -59.5 -10t-66.5 -31l34 27
q-26 -45 -39.5 -92.5t-13.5 -99.5q0 -62 18.5 -107.5t52 -70.5t75.5 -25zM219 694q12 -12 20.5 -27t11.5 -32q-10 -12 -26 -21t-32 -11q-11 11 -20.5 26t-13.5 32q12 12 27 21.5t33 11.5zM380 694q12 -12 21 -27t11 -32q-11 -12 -26.5 -21t-31.5 -11q-13 11 -21.5 26.5
t-12.5 31.5q12 12 27 21.5t33 11.5z" />
    <glyph glyph-name="divide" unicode="&#xf7;" horiz-adv-x="546" 
d="M53 259v49h437v-49h-437zM257 53q-10 10 -17.5 25.5t-10.5 30.5q12 11 27 18.5t31 9.5q11 -11 18.5 -26.5t8.5 -30.5q-11 -11 -26 -18t-31 -9zM257 429q-10 11 -17.5 26t-10.5 31q12 11 27 18.5t31 9.5q11 -11 18.5 -26.5t8.5 -30.5q-11 -11 -26 -18.5t-31 -9.5z" />
    <glyph glyph-name="oslash" unicode="&#xf8;" horiz-adv-x="549" 
d="M204 29l-60 -141l-38 13l61 146zM268 -8q-63 0 -109.5 30.5t-72.5 85t-26 126.5q0 78 28 136t77.5 91t113.5 33q62 0 109.5 -30.5t74 -86t26.5 -127.5q0 -77 -28 -135t-78 -90.5t-115 -32.5zM273 37q45 0 79 25.5t53 72t19 111.5q0 62 -18.5 107t-53.5 69t-80 24
q-52 0 -101 -30q-24 -41 -35.5 -86t-11.5 -90q0 -62 19.5 -107.5t52.5 -70.5t77 -25zM341 458l59 140l39 -13l-61 -145zM167 47l174 411l37 -18l-174 -411z" />
    <glyph glyph-name="ugrave" unicode="&#xf9;" horiz-adv-x="587" 
d="M479 56l102 5q-7 -22 -19 -37t-27.5 -22t-31.5 -7q-21 0 -40 10.5t-32.5 31.5t-18.5 51l8 308l-51 61q53 31 110 39v-440zM289 -7q-6 0 -11 -0.5t-9 -0.5q-47 0 -86.5 19t-72.5 59l58 32q57 -51 123 -51q64 0 128 50l1 -19q-30 -31 -62.5 -53t-68.5 -36zM110 70l9 326
l-52 61q54 31 109 39v-412zM387 566q-49 26 -96.5 54.5t-94.5 60.5l26 44h10l168 -139z" />
    <glyph glyph-name="uacute" unicode="&#xfa;" horiz-adv-x="587" 
d="M479 56l102 5q-7 -22 -19 -37t-27.5 -22t-31.5 -7q-21 0 -40 10.5t-32.5 31.5t-18.5 51l8 308l-51 61q53 31 110 39v-440zM289 -7q-6 0 -11 -0.5t-9 -0.5q-47 0 -86.5 19t-72.5 59l58 32q57 -51 123 -51q64 0 128 50l1 -19q-30 -31 -62.5 -53t-68.5 -36zM110 70l9 326
l-52 61q54 31 109 39v-412zM224 566l-13 20l167 139h10l27 -44q-46 -32 -94.5 -60.5t-96.5 -54.5z" />
    <glyph glyph-name="ucircumflex" unicode="&#xfb;" horiz-adv-x="587" 
d="M479 56l102 5q-7 -22 -19 -37t-27.5 -22t-31.5 -7q-21 0 -40 10.5t-32.5 31.5t-18.5 51l8 308l-51 61q53 31 110 39v-440zM289 -7q-6 0 -11 -0.5t-9 -0.5q-47 0 -86.5 19t-72.5 59l58 32q57 -51 123 -51q64 0 128 50l1 -19q-30 -31 -62.5 -53t-68.5 -36zM110 70l9 326
l-52 61q54 31 109 39v-412zM329 716l110 -105l-23 -22l-105 78l-103 -78l-22 22l108 105h35z" />
    <glyph glyph-name="udieresis" unicode="&#xfc;" horiz-adv-x="587" 
d="M479 56l102 5q-7 -22 -19 -37t-27.5 -22t-31.5 -7q-21 0 -40 10.5t-32.5 31.5t-18.5 51l8 308l-51 61q53 31 110 39v-440zM289 -7q-6 0 -11 -0.5t-9 -0.5q-47 0 -86.5 19t-72.5 59l58 32q57 -51 123 -51q64 0 128 50l1 -19q-30 -31 -62.5 -53t-68.5 -36zM110 70l9 326
l-52 61q54 31 109 39v-412zM233 694q12 -12 20.5 -27t11.5 -32q-10 -12 -26 -21t-32 -11q-11 11 -20.5 26t-13.5 32q12 12 27 21.5t33 11.5zM394 694q12 -12 21 -27t11 -32q-11 -12 -26.5 -21t-31.5 -11q-13 11 -21.5 26.5t-12.5 31.5q12 12 27 21.5t33 11.5z" />
    <glyph glyph-name="yacute" unicode="&#xfd;" horiz-adv-x="505" 
d="M-10 -185l5 48l174 -11q26 34 44.5 63.5t33.5 64.5t32 82l148 414h52l-159 -429q-49 -130 -103 -190t-129 -60q-22 0 -46.5 4.5t-51.5 13.5zM226 9l-170 467h71l155 -452zM103 435q-23 5 -44.5 12.5t-40.5 18.5v20h191v-20zM455 435q-31 4 -62.5 11.5t-61.5 19.5v20h181
v-20zM192 566l-13 20l167 139h10l27 -44q-46 -32 -94.5 -60.5t-96.5 -54.5z" />
    <glyph glyph-name="thorn" unicode="&#xfe;" horiz-adv-x="552" 
d="M23 -196v19q14 5 31 11.5t42 9.5l11 798l-52 65q25 14 51.5 24t57.5 14v-902l102 -20v-19h-243zM112 17l15 47q37 -13 69 -19.5t58 -6.5q83 0 130.5 54t47.5 152q0 51 -13.5 96t-41.5 83l43 -44q-68 58 -138 58q-65 0 -126 -51v21q26 27 57 49t67 38h10h10
q89 -4 142.5 -69.5t53.5 -173.5q0 -80 -30.5 -138.5t-86 -89.5t-129.5 -31q-65 0 -138 25z" />
    <glyph glyph-name="ydieresis" unicode="&#xff;" horiz-adv-x="505" 
d="M-10 -185l5 48l174 -11q26 34 44.5 63.5t33.5 64.5t32 82l148 414h52l-159 -429q-49 -130 -103 -190t-129 -60q-22 0 -46.5 4.5t-51.5 13.5zM226 9l-170 467h71l155 -452zM103 435q-23 5 -44.5 12.5t-40.5 18.5v20h191v-20zM455 435q-31 4 -62.5 11.5t-61.5 19.5v20h181
v-20zM201 694q12 -12 20.5 -27t11.5 -32q-10 -12 -26 -21t-32 -11q-11 11 -20.5 26t-13.5 32q12 12 27 21.5t33 11.5zM362 694q12 -12 21 -27t11 -32q-11 -12 -26.5 -21t-31.5 -11q-13 11 -21.5 26.5t-12.5 31.5q12 12 27 21.5t33 11.5z" />
    <glyph glyph-name="Amacron" unicode="&#x100;" horiz-adv-x="736" 
d="M649 40q19 -4 36.5 -8.5t35.5 -9.5v-22h-254v23l107 18l-208 586h18l-215 -585q32 -4 62.5 -8.5t61.5 -11.5v-22h-249v23l68 19l233 612h78zM215 223v46h327v-46h-327zM264 793v45h236v-45h-236z" />
    <glyph glyph-name="amacron" unicode="&#x101;" horiz-adv-x="527" 
d="M447 -5q-29 0 -54.5 22.5t-34.5 66.5l10 308q-65 55 -161 55q-20 0 -39.5 -2.5t-38.5 -7.5l33 18l-17 -140q-27 7 -42 24t-15 41q0 31 22 57.5t59.5 42t84.5 15.5q50 0 94.5 -20.5t77.5 -57.5v-357l102 4q-5 -23 -17.5 -38.5t-29.5 -23t-34 -7.5zM219 -10q-65 1 -104 37
t-39 93q0 29 12.5 50t45.5 38.5t94 35.5t155 39v-41l-250 -52l22 12q-6 -15 -8 -32.5t-2 -32.5q0 -42 21 -65.5t64 -23.5q31 0 67 13.5t77 41.5v-17q-35 -33 -71.5 -56.5t-83.5 -39.5zM154 627v45h236v-45h-236z" />
    <glyph glyph-name="Abreve" unicode="&#x102;" horiz-adv-x="736" 
d="M649 40q19 -4 36.5 -8.5t35.5 -9.5v-22h-254v23l107 18l-208 586h18l-215 -585q32 -4 62.5 -8.5t61.5 -11.5v-22h-249v23l68 19l233 612h78zM215 223v46h327v-46h-327zM381 753q-32 0 -58.5 14t-42 36.5t-17.5 49.5l37 9q5 -27 27.5 -45t53.5 -18q32 0 54 18t28 45l37 -9
q-2 -27 -17.5 -49.5t-42 -36.5t-59.5 -14z" />
    <glyph glyph-name="abreve" unicode="&#x103;" horiz-adv-x="527" 
d="M447 -5q-29 0 -54.5 22.5t-34.5 66.5l10 308q-65 55 -161 55q-20 0 -39.5 -2.5t-38.5 -7.5l33 18l-17 -140q-27 7 -42 24t-15 41q0 31 22 57.5t59.5 42t84.5 15.5q50 0 94.5 -20.5t77.5 -57.5v-357l102 4q-5 -23 -17.5 -38.5t-29.5 -23t-34 -7.5zM219 -10q-65 1 -104 37
t-39 93q0 29 12.5 50t45.5 38.5t94 35.5t155 39v-41l-250 -52l22 12q-6 -15 -8 -32.5t-2 -32.5q0 -42 21 -65.5t64 -23.5q31 0 67 13.5t77 41.5v-17q-35 -33 -71.5 -56.5t-83.5 -39.5zM271 587q-32 0 -58.5 14t-42 36.5t-17.5 49.5l37 9q5 -27 27.5 -45t53.5 -18q32 0 54 18
t28 45l37 -9q-2 -27 -17.5 -49.5t-42 -36.5t-59.5 -14z" />
    <glyph glyph-name="Aogonek" unicode="&#x104;" horiz-adv-x="736" 
d="M649 40q19 -4 36.5 -8.5t35.5 -9.5v-22h-254v23l107 18l-208 586h18l-215 -585q32 -4 62.5 -8.5t61.5 -11.5v-22h-249v23l68 19l233 612h78zM215 223v46h327v-46h-327zM587 -207q-29 0 -47 12t-24 31t0.5 40.5t27.5 41.5l95 100h23l-77 -102q-23 -30 -16.5 -52.5
t38.5 -22.5q20 0 38.5 9t33.5 26l8 -19q-16 -30 -42.5 -47t-57.5 -17z" />
    <glyph glyph-name="aogonek" unicode="&#x105;" horiz-adv-x="527" 
d="M447 -5q-29 0 -54.5 22.5t-34.5 66.5l10 308q-65 55 -161 55q-20 0 -39.5 -2.5t-38.5 -7.5l33 18l-17 -140q-27 7 -42 24t-15 41q0 31 22 57.5t59.5 42t84.5 15.5q50 0 94.5 -20.5t77.5 -57.5v-357l102 4q-5 -23 -17.5 -38.5t-29.5 -23t-34 -7.5zM219 -10q-65 1 -104 37
t-39 93q0 29 12.5 50t45.5 38.5t94 35.5t155 39v-41l-250 -52l22 12q-6 -15 -8 -32.5t-2 -32.5q0 -42 21 -65.5t64 -23.5q31 0 67 13.5t77 41.5v-17q-35 -33 -71.5 -56.5t-83.5 -39.5zM420 -206q-29 0 -47 12t-24 31t0.5 40.5t27.5 41.5l95 100h23l-77 -102
q-23 -30 -16.5 -52.5t38.5 -22.5q20 0 38.5 9t33.5 26l8 -19q-16 -30 -42.5 -47t-57.5 -17z" />
    <glyph glyph-name="Cacute" unicode="&#x106;" horiz-adv-x="699" 
d="M417 -7q-153 0 -235 85.5t-82 246.5q0 106 39.5 181.5t114 116.5t178.5 41q38 0 80 -5.5t87 -17.5l-14 -58q-40 13 -81 19.5t-81 6.5q-51 0 -102 -11.5t-99 -34.5l27 21q-40 -58 -60 -123t-20 -140q0 -133 67.5 -205t188.5 -72q35 0 74.5 7t82.5 20l17 -54
q-101 -24 -182 -24zM524 17l51 192h24v-192h-75zM575 449l-50 192h74v-192h-24zM339 732l-13 20l167 139h10l27 -44q-46 -32 -94.5 -60.5t-96.5 -54.5z" />
    <glyph glyph-name="cacute" unicode="&#x107;" horiz-adv-x="469" 
d="M269 -7q-58 0 -102.5 31.5t-69.5 87t-25 127.5q0 79 28.5 136t78.5 88t115 31q31 0 62.5 -7.5t62.5 -20.5l-13 -51q-59 29 -129 29q-31 0 -61 -8.5t-57 -25.5l29 24q-25 -41 -38.5 -89t-13.5 -97q0 -64 21 -108.5t58 -68.5t85 -24q28 0 59.5 9t64.5 28l5 -13
q-72 -78 -160 -78zM393 330l-37 136h63l-3 -136h-23zM206 566l-13 20l167 139h10l27 -44q-46 -32 -94.5 -60.5t-96.5 -54.5z" />
    <glyph glyph-name="Ccircumflex" unicode="&#x108;" horiz-adv-x="699" 
d="M417 -7q-153 0 -235 85.5t-82 246.5q0 106 39.5 181.5t114 116.5t178.5 41q38 0 80 -5.5t87 -17.5l-14 -58q-40 13 -81 19.5t-81 6.5q-51 0 -102 -11.5t-99 -34.5l27 21q-40 -58 -60 -123t-20 -140q0 -133 67.5 -205t188.5 -72q35 0 74.5 7t82.5 20l17 -54
q-101 -24 -182 -24zM524 17l51 192h24v-192h-75zM575 449l-50 192h74v-192h-24zM444 882l110 -105l-23 -22l-105 78l-103 -78l-22 22l108 105h35z" />
    <glyph glyph-name="ccircumflex" unicode="&#x109;" horiz-adv-x="469" 
d="M269 -7q-58 0 -102.5 31.5t-69.5 87t-25 127.5q0 79 28.5 136t78.5 88t115 31q31 0 62.5 -7.5t62.5 -20.5l-13 -51q-59 29 -129 29q-31 0 -61 -8.5t-57 -25.5l29 24q-25 -41 -38.5 -89t-13.5 -97q0 -64 21 -108.5t58 -68.5t85 -24q28 0 59.5 9t64.5 28l5 -13
q-72 -78 -160 -78zM393 330l-37 136h63l-3 -136h-23zM310 716l110 -105l-23 -22l-105 78l-103 -78l-22 22l108 105h35z" />
    <glyph glyph-name="Cdotaccent" unicode="&#x10a;" horiz-adv-x="699" 
d="M417 -7q-153 0 -235 85.5t-82 246.5q0 106 39.5 181.5t114 116.5t178.5 41q38 0 80 -5.5t87 -17.5l-14 -58q-40 13 -81 19.5t-81 6.5q-51 0 -102 -11.5t-99 -34.5l27 21q-40 -58 -60 -123t-20 -140q0 -133 67.5 -205t188.5 -72q35 0 74.5 7t82.5 20l17 -54
q-101 -24 -182 -24zM524 17l51 192h24v-192h-75zM575 449l-50 192h74v-192h-24zM429 867q13 -13 22.5 -30t12.5 -35q-11 -14 -28 -24t-35 -12q-14 12 -24 29t-13 34q12 15 29 24.5t36 13.5z" />
    <glyph glyph-name="cdotaccent" unicode="&#x10b;" horiz-adv-x="469" 
d="M269 -7q-58 0 -102.5 31.5t-69.5 87t-25 127.5q0 79 28.5 136t78.5 88t115 31q31 0 62.5 -7.5t62.5 -20.5l-13 -51q-59 29 -129 29q-31 0 -61 -8.5t-57 -25.5l29 24q-25 -41 -38.5 -89t-13.5 -97q0 -64 21 -108.5t58 -68.5t85 -24q28 0 59.5 9t64.5 28l5 -13
q-72 -78 -160 -78zM393 330l-37 136h63l-3 -136h-23zM295 701q13 -13 22.5 -30t12.5 -35q-11 -14 -28 -24t-35 -12q-14 12 -24 29t-13 34q12 15 29 24.5t36 13.5z" />
    <glyph glyph-name="Ccaron" unicode="&#x10c;" horiz-adv-x="699" 
d="M417 -7q-153 0 -235 85.5t-82 246.5q0 106 39.5 181.5t114 116.5t178.5 41q38 0 80 -5.5t87 -17.5l-14 -58q-40 13 -81 19.5t-81 6.5q-51 0 -102 -11.5t-99 -34.5l27 21q-40 -58 -60 -123t-20 -140q0 -133 67.5 -205t188.5 -72q35 0 74.5 7t82.5 20l17 -54
q-101 -24 -182 -24zM524 17l51 192h24v-192h-75zM575 449l-50 192h74v-192h-24zM396 748l-109 106l22 23l106 -79l103 79l22 -23l-109 -106h-35z" />
    <glyph glyph-name="ccaron" unicode="&#x10d;" horiz-adv-x="469" 
d="M269 -7q-58 0 -102.5 31.5t-69.5 87t-25 127.5q0 79 28.5 136t78.5 88t115 31q31 0 62.5 -7.5t62.5 -20.5l-13 -51q-59 29 -129 29q-31 0 -61 -8.5t-57 -25.5l29 24q-25 -41 -38.5 -89t-13.5 -97q0 -64 21 -108.5t58 -68.5t85 -24q28 0 59.5 9t64.5 28l5 -13
q-72 -78 -160 -78zM393 330l-37 136h63l-3 -136h-23zM262 582l-109 106l22 23l106 -79l103 79l22 -23l-109 -106h-35z" />
    <glyph glyph-name="Dcaron" unicode="&#x10e;" horiz-adv-x="770" 
d="M417 654q87 0 151 -39.5t99.5 -111.5t35.5 -167q0 -100 -37 -175.5t-103 -118t-153 -42.5h-339v22q23 8 51 13.5t59 8.5l9 565l-119 21v24h346zM469 48q80 35 121.5 105.5t41.5 173.5q0 70 -16 121.5t-46 86.5t-70.5 53t-89.5 18h-184l28 27v-612l-28 27h243zM367 748
l-109 106l22 23l106 -79l103 79l22 -23l-109 -106h-35z" />
    <glyph glyph-name="dcaron" unicode="&#x10f;" horiz-adv-x="576" 
d="M274 -8q-60 0 -105.5 30.5t-71 85t-25.5 127.5q0 122 66.5 190.5t179.5 68.5q30 0 62 -5t67 -15l-12 -55q-73 27 -135 27q-38 0 -73 -10t-69 -30l25 20q-23 -37 -35.5 -85t-12.5 -101q0 -61 18.5 -103.5t51.5 -64.5t73 -22q30 0 62.5 12.5t66.5 37.5v-21q-26 -25 -57 -48
t-67 -39h-4.5h-4.5zM489 -5q-20 0 -39 10.5t-32.5 31.5t-18.5 51l9 554l-48 66q23 14 48.5 23t57.5 14v-689l101 5q-8 -22 -19.5 -37t-27 -22t-31.5 -7zM430 759l-1 1h1v-1zM542 641l-17 162q35 6 69 0l-17 -162h-35z" />
    <glyph glyph-name="Dcroat" unicode="&#x110;" horiz-adv-x="794" 
d="M455 654q87 0 151 -39.5t99.5 -111.5t35.5 -167q0 -100 -37 -175.5t-103 -118t-153 -42.5h-339v22q23 8 51 13.5t59 8.5l9 565l-119 21v24h346zM507 48q80 35 121.5 105.5t41.5 173.5q0 70 -16 121.5t-46 86.5t-70.5 53t-89.5 18h-184l28 27v-612l-28 27h243zM117 357
h330v-42h-330v42z" />
    <glyph glyph-name="dcroat" unicode="&#x111;" horiz-adv-x="573" 
d="M274 -8q-60 0 -105.5 30.5t-71 85t-25.5 127.5q0 122 66.5 190.5t179.5 68.5q30 0 62 -5t67 -15l-12 -55q-73 27 -135 27q-38 0 -73 -10t-69 -30l25 20q-23 -37 -35.5 -85t-12.5 -101q0 -61 18.5 -103.5t51.5 -64.5t73 -22q30 0 62.5 12.5t66.5 37.5v-21q-26 -25 -57 -48
t-67 -39h-4.5h-4.5zM489 -5q-20 0 -39 10.5t-32.5 31.5t-18.5 51l9 554l-48 66q23 14 48.5 23t57.5 14v-689l101 5q-8 -22 -19.5 -37t-27 -22t-31.5 -7zM430 759l-1 1h1v-1zM219 602h330v-42h-330v42z" />
    <glyph glyph-name="Emacron" unicode="&#x112;" horiz-adv-x="718" 
d="M597 215h23v-215h-549v22q28 8 55.5 13.5t54.5 8.5l9 565l-119 21v24h539v-194h-23l-34 146h-327l28 28v-273h200l29 87h21v-222h-21l-30 87h-199v-293l-28 28h336zM265 793v45h236v-45h-236z" />
    <glyph glyph-name="emacron" unicode="&#x113;" horiz-adv-x="507" 
d="M274 -7q-61 0 -106.5 30.5t-70.5 85.5t-25 126q0 75 26.5 133.5t75.5 92t113 33.5q51 0 89.5 -22.5t60.5 -62.5t22 -92l-3 -65q-55 -9 -107 -14.5t-110 -8t-131 -4.5v42l289 5l2 45q0 58 -33 93.5t-87 35.5q-24 0 -50 -8t-49 -22q-24 -38 -35.5 -82t-11.5 -88
q0 -95 46 -147.5t124 -52.5q67 0 150 41l4 -13q-41 -41 -88 -61t-95 -20zM165 627v45h236v-45h-236z" />
    <glyph glyph-name="Ebreve" unicode="&#x114;" horiz-adv-x="718" 
d="M597 215h23v-215h-549v22q28 8 55.5 13.5t54.5 8.5l9 565l-119 21v24h539v-194h-23l-34 146h-327l28 28v-273h200l29 87h21v-222h-21l-30 87h-199v-293l-28 28h336zM382 753q-32 0 -58.5 14t-42 36.5t-17.5 49.5l37 9q5 -27 27.5 -45t53.5 -18q32 0 54 18t28 45l37 -9
q-2 -27 -17.5 -49.5t-42 -36.5t-59.5 -14z" />
    <glyph glyph-name="ebreve" unicode="&#x115;" horiz-adv-x="507" 
d="M274 -7q-61 0 -106.5 30.5t-70.5 85.5t-25 126q0 75 26.5 133.5t75.5 92t113 33.5q51 0 89.5 -22.5t60.5 -62.5t22 -92l-3 -65q-55 -9 -107 -14.5t-110 -8t-131 -4.5v42l289 5l2 45q0 58 -33 93.5t-87 35.5q-24 0 -50 -8t-49 -22q-24 -38 -35.5 -82t-11.5 -88
q0 -95 46 -147.5t124 -52.5q67 0 150 41l4 -13q-41 -41 -88 -61t-95 -20zM282 587q-32 0 -58.5 14t-42 36.5t-17.5 49.5l37 9q5 -27 27.5 -45t53.5 -18q32 0 54 18t28 45l37 -9q-2 -27 -17.5 -49.5t-42 -36.5t-59.5 -14z" />
    <glyph glyph-name="Edotaccent" unicode="&#x116;" horiz-adv-x="718" 
d="M597 215h23v-215h-549v22q28 8 55.5 13.5t54.5 8.5l9 565l-119 21v24h539v-194h-23l-34 146h-327l28 28v-273h200l29 87h21v-222h-21l-30 87h-199v-293l-28 28h336zM397 867q13 -13 22.5 -30t12.5 -35q-11 -14 -28 -24t-35 -12q-14 12 -24 29t-13 34q12 15 29 24.5
t36 13.5z" />
    <glyph glyph-name="edotaccent" unicode="&#x117;" horiz-adv-x="507" 
d="M274 -7q-61 0 -106.5 30.5t-70.5 85.5t-25 126q0 75 26.5 133.5t75.5 92t113 33.5q51 0 89.5 -22.5t60.5 -62.5t22 -92l-3 -65q-55 -9 -107 -14.5t-110 -8t-131 -4.5v42l289 5l2 45q0 58 -33 93.5t-87 35.5q-24 0 -50 -8t-49 -22q-24 -38 -35.5 -82t-11.5 -88
q0 -95 46 -147.5t124 -52.5q67 0 150 41l4 -13q-41 -41 -88 -61t-95 -20zM297 701q13 -13 22.5 -30t12.5 -35q-11 -14 -28 -24t-35 -12q-14 12 -24 29t-13 34q12 15 29 24.5t36 13.5z" />
    <glyph glyph-name="Eogonek" unicode="&#x118;" horiz-adv-x="717" 
d="M597 215h23v-215h-549v22q28 8 55.5 13.5t54.5 8.5l9 565l-119 21v24h539v-194h-23l-34 146h-327l28 28v-273h200l29 87h21v-222h-21l-30 87h-199v-293l-28 28h336zM517 -206q-29 0 -47 12t-24 31t0.5 40.5t27.5 41.5l95 100h23l-77 -102q-23 -30 -16.5 -52.5t38.5 -22.5
q20 0 38.5 9t33.5 26l8 -19q-16 -30 -42.5 -47t-57.5 -17z" />
    <glyph glyph-name="eogonek" unicode="&#x119;" horiz-adv-x="507" 
d="M274 -7q-61 0 -106.5 30.5t-70.5 85.5t-25 126q0 75 26.5 133.5t75.5 92t113 33.5q51 0 89.5 -22.5t60.5 -62.5t22 -92l-3 -65q-55 -9 -107 -14.5t-110 -8t-131 -4.5v42l289 5l2 45q0 58 -33 93.5t-87 35.5q-24 0 -50 -8t-49 -22q-24 -38 -35.5 -82t-11.5 -88
q0 -95 46 -147.5t124 -52.5q67 0 150 41l4 -13q-41 -41 -88 -61t-95 -20zM295 -202q-29 0 -47 12t-24 31t0.5 40.5t27.5 41.5l95 100h23l-77 -102q-23 -30 -16.5 -52.5t38.5 -22.5q20 0 38.5 9t33.5 26l8 -19q-16 -30 -42.5 -47t-57.5 -17z" />
    <glyph glyph-name="Ecaron" unicode="&#x11a;" horiz-adv-x="718" 
d="M597 215h23v-215h-549v22q28 8 55.5 13.5t54.5 8.5l9 565l-119 21v24h539v-194h-23l-34 146h-327l28 28v-273h200l29 87h21v-222h-21l-30 87h-199v-293l-28 28h336zM364 748l-109 106l22 23l106 -79l103 79l22 -23l-109 -106h-35z" />
    <glyph glyph-name="ecaron" unicode="&#x11b;" horiz-adv-x="507" 
d="M274 -7q-61 0 -106.5 30.5t-70.5 85.5t-25 126q0 75 26.5 133.5t75.5 92t113 33.5q51 0 89.5 -22.5t60.5 -62.5t22 -92l-3 -65q-55 -9 -107 -14.5t-110 -8t-131 -4.5v42l289 5l2 45q0 58 -33 93.5t-87 35.5q-24 0 -50 -8t-49 -22q-24 -38 -35.5 -82t-11.5 -88
q0 -95 46 -147.5t124 -52.5q67 0 150 41l4 -13q-41 -41 -88 -61t-95 -20zM264 582l-109 106l22 23l106 -79l103 79l22 -23l-109 -106h-35z" />
    <glyph glyph-name="Gcircumflex" unicode="&#x11c;" horiz-adv-x="749" 
d="M429 -7q-159 0 -245 85.5t-86 246.5q0 106 41.5 181.5t120.5 116.5t188 41q37 0 80.5 -5.5t88.5 -17.5l-17 -58q-42 13 -84 19t-85 6q-56 0 -111 -11.5t-107 -34.5l41 22q-42 -58 -64 -123.5t-22 -139.5q0 -134 71 -206t198 -72q37 0 78 6.5t86 20.5l16 -53
q-52 -12 -99 -18t-89 -6zM547 17l4 264l-143 19v25h297v-21q-19 -7 -41.5 -13t-46.5 -9v-265h-70zM593 450l-50 191h74v-191h-24zM471 882l110 -105l-23 -22l-105 78l-103 -78l-22 22l108 105h35z" />
    <glyph glyph-name="gcircumflex" unicode="&#x11d;" horiz-adv-x="544" 
d="M264 -207q-97 0 -153.5 39.5t-56.5 110.5q21 35 53.5 61t74.5 42h16q-45 -35 -62 -60.5t-17 -47.5q0 -43 42.5 -69.5t114.5 -26.5q80 0 129 31.5t49 82.5q0 18 -8 38.5t-24 37.5h-251q-23 18 -34.5 40.5t-11.5 42.5q0 24 14.5 46.5t39.5 38.5l-2 -109h229q31 0 57 -16
t41 -43.5t15 -63.5q0 -52 -32.5 -92t-90 -61.5t-132.5 -21.5zM273 167q-91 0 -142 41.5t-51 113.5q0 53 25 92t72 60t111 21q91 0 144 -42t53 -115q0 -52 -26.5 -90.5t-73.5 -59.5t-112 -21zM277 211q67 0 105.5 33.5t38.5 89.5q0 54 -37.5 84t-101.5 30q-24 0 -51 -4
t-52 -12q-18 -31 -26.5 -59.5t-8.5 -49.5q0 -51 36 -81.5t97 -30.5zM420 441q-8 17 -13 34t-5 31q0 37 23 56.5t66 19.5q13 0 27.5 -2t32.5 -8l-7 -46h-101l-16 -85h-7zM320 745l110 -105l-23 -22l-105 78l-103 -78l-22 22l108 105h35z" />
    <glyph glyph-name="Gbreve" unicode="&#x11e;" horiz-adv-x="749" 
d="M429 -7q-159 0 -245 85.5t-86 246.5q0 106 41.5 181.5t120.5 116.5t188 41q37 0 80.5 -5.5t88.5 -17.5l-17 -58q-42 13 -84 19t-85 6q-56 0 -111 -11.5t-107 -34.5l41 22q-42 -58 -64 -123.5t-22 -139.5q0 -134 71 -206t198 -72q37 0 78 6.5t86 20.5l16 -53
q-52 -12 -99 -18t-89 -6zM547 17l4 264l-143 19v25h297v-21q-19 -7 -41.5 -13t-46.5 -9v-265h-70zM593 450l-50 191h74v-191h-24zM440 753q-32 0 -58.5 14t-42 36.5t-17.5 49.5l37 9q5 -27 27.5 -45t53.5 -18q32 0 54 18t28 45l37 -9q-2 -27 -17.5 -49.5t-42 -36.5
t-59.5 -14z" />
    <glyph glyph-name="gbreve" unicode="&#x11f;" horiz-adv-x="544" 
d="M264 -207q-97 0 -153.5 39.5t-56.5 110.5q21 35 53.5 61t74.5 42h16q-45 -35 -62 -60.5t-17 -47.5q0 -43 42.5 -69.5t114.5 -26.5q80 0 129 31.5t49 82.5q0 18 -8 38.5t-24 37.5h-251q-23 18 -34.5 40.5t-11.5 42.5q0 24 14.5 46.5t39.5 38.5l-2 -109h229q31 0 57 -16
t41 -43.5t15 -63.5q0 -52 -32.5 -92t-90 -61.5t-132.5 -21.5zM273 167q-91 0 -142 41.5t-51 113.5q0 53 25 92t72 60t111 21q91 0 144 -42t53 -115q0 -52 -26.5 -90.5t-73.5 -59.5t-112 -21zM277 211q67 0 105.5 33.5t38.5 89.5q0 54 -37.5 84t-101.5 30q-24 0 -51 -4
t-52 -12q-18 -31 -26.5 -59.5t-8.5 -49.5q0 -51 36 -81.5t97 -30.5zM420 441q-8 17 -13 34t-5 31q0 37 23 56.5t66 19.5q13 0 27.5 -2t32.5 -8l-7 -46h-101l-16 -85h-7zM283 598q-32 0 -58.5 14t-42 36.5t-17.5 49.5l37 9q5 -27 27.5 -45t53.5 -18q32 0 54 18t28 45l37 -9
q-2 -27 -17.5 -49.5t-42 -36.5t-59.5 -14z" />
    <glyph glyph-name="Gdotaccent" unicode="&#x120;" horiz-adv-x="749" 
d="M429 -7q-159 0 -245 85.5t-86 246.5q0 106 41.5 181.5t120.5 116.5t188 41q37 0 80.5 -5.5t88.5 -17.5l-17 -58q-42 13 -84 19t-85 6q-56 0 -111 -11.5t-107 -34.5l41 22q-42 -58 -64 -123.5t-22 -139.5q0 -134 71 -206t198 -72q37 0 78 6.5t86 20.5l16 -53
q-52 -12 -99 -18t-89 -6zM547 17l4 264l-143 19v25h297v-21q-19 -7 -41.5 -13t-46.5 -9v-265h-70zM593 450l-50 191h74v-191h-24zM456 867q13 -13 22.5 -30t12.5 -35q-11 -14 -28 -24t-35 -12q-14 12 -24 29t-13 34q12 15 29 24.5t36 13.5z" />
    <glyph glyph-name="gdotaccent" unicode="&#x121;" horiz-adv-x="544" 
d="M264 -207q-97 0 -153.5 39.5t-56.5 110.5q21 35 53.5 61t74.5 42h16q-45 -35 -62 -60.5t-17 -47.5q0 -43 42.5 -69.5t114.5 -26.5q80 0 129 31.5t49 82.5q0 18 -8 38.5t-24 37.5h-251q-23 18 -34.5 40.5t-11.5 42.5q0 24 14.5 46.5t39.5 38.5l-2 -109h229q31 0 57 -16
t41 -43.5t15 -63.5q0 -52 -32.5 -92t-90 -61.5t-132.5 -21.5zM273 167q-91 0 -142 41.5t-51 113.5q0 53 25 92t72 60t111 21q91 0 144 -42t53 -115q0 -52 -26.5 -90.5t-73.5 -59.5t-112 -21zM277 211q67 0 105.5 33.5t38.5 89.5q0 54 -37.5 84t-101.5 30q-24 0 -51 -4
t-52 -12q-18 -31 -26.5 -59.5t-8.5 -49.5q0 -51 36 -81.5t97 -30.5zM420 441q-8 17 -13 34t-5 31q0 37 23 56.5t66 19.5q13 0 27.5 -2t32.5 -8l-7 -46h-101l-16 -85h-7zM299 712q13 -13 22.5 -30t12.5 -35q-11 -14 -28 -24t-35 -12q-14 12 -24 29t-13 34q12 15 29 24.5
t36 13.5z" />
    <glyph glyph-name="uni0122" unicode="&#x122;" horiz-adv-x="749" 
d="M429 -7q-159 0 -245 85.5t-86 246.5q0 106 41.5 181.5t120.5 116.5t188 41q37 0 80.5 -5.5t88.5 -17.5l-17 -58q-42 13 -84 19t-85 6q-56 0 -111 -11.5t-107 -34.5l41 22q-42 -58 -64 -123.5t-22 -139.5q0 -134 71 -206t198 -72q37 0 78 6.5t86 20.5l16 -53
q-52 -12 -99 -18t-89 -6zM547 17l4 264l-143 19v25h297v-21q-19 -7 -41.5 -13t-46.5 -9v-265h-70zM593 450l-50 191h74v-191h-24zM382 -206l22 117l61 2q-12 -31 -27.5 -61.5t-36.5 -61.5zM409 -120l-28 52q14 13 27.5 19.5t28.5 11.5q10 -10 16.5 -22t11.5 -28z" />
    <glyph glyph-name="uni0123" unicode="&#x123;" horiz-adv-x="544" 
d="M264 -207q-97 0 -153.5 39.5t-56.5 110.5q21 35 53.5 61t74.5 42h16q-45 -35 -62 -60.5t-17 -47.5q0 -43 42.5 -69.5t114.5 -26.5q80 0 129 31.5t49 82.5q0 18 -8 38.5t-24 37.5h-251q-23 18 -34.5 40.5t-11.5 42.5q0 24 14.5 46.5t39.5 38.5l-2 -109h229q31 0 57 -16
t41 -43.5t15 -63.5q0 -52 -32.5 -92t-90 -61.5t-132.5 -21.5zM273 167q-91 0 -142 41.5t-51 113.5q0 53 25 92t72 60t111 21q91 0 144 -42t53 -115q0 -52 -26.5 -90.5t-73.5 -59.5t-112 -21zM277 211q67 0 105.5 33.5t38.5 89.5q0 54 -37.5 84t-101.5 30q-24 0 -51 -4
t-52 -12q-18 -31 -26.5 -59.5t-8.5 -49.5q0 -51 36 -81.5t97 -30.5zM420 441q-8 17 -13 34t-5 31q0 37 23 56.5t66 19.5q13 0 27.5 -2t32.5 -8l-7 -46h-101l-16 -85h-7zM319 724l-22 -123l-64 -2q25 65 67 129zM291 633l30 -56q-15 -12 -29 -19.5t-30 -11.5
q-11 11 -17.5 23.5t-11.5 29.5z" />
    <glyph glyph-name="Hcircumflex" unicode="&#x124;" horiz-adv-x="832" 
d="M496 0v19q28 9 55.5 15.5t53.5 9.5l9 565l-118 21v24h292v-22q-25 -7 -52.5 -12.5t-57.5 -8.5v-567l110 -20v-24h-292zM71 0v22q28 8 55.5 13.5t54.5 8.5l9 565l-119 21v24h292v-22q-24 -7 -52 -12.5t-57 -8.5v-567l109 -20v-24h-292zM221 311v49h423v-49h-423zM459 882
l110 -105l-23 -22l-105 78l-103 -78l-22 22l108 105h35z" />
    <glyph glyph-name="hcircumflex" unicode="&#x125;" horiz-adv-x="585" 
d="M49 0v19q14 6 31.5 11.5t42.5 10.5l10 601l-52 65q25 14 52 24t58 14v-707l79 -19v-19h-221zM351 0v19q14 6 31.5 11.5t42.5 10.5l10 346l57 30v-379l80 -19v-19h-221zM184 384l-1 20q30 31 62.5 53t67.5 36q6 0 11.5 0.5t9.5 0.5q46 0 85 -18.5t73 -58.5l-57 -30
q-56 50 -120 50q-65 0 -131 -53zM197 945l110 -105l-23 -22l-105 78l-103 -78l-22 22l108 105h35z" />
    <glyph glyph-name="Hbar" unicode="&#x126;" horiz-adv-x="858" 
d="M495 0v18q29 10 56 16t54 9l9 567l-119 20v24h292v-20q-26 -8 -53.5 -13.5t-58.5 -8.5v-570l112 -18v-24h-292zM70 0v21q29 9 57 14t54 8l9 567l-120 20v24h291v-20q-24 -8 -52 -13.5t-57 -8.5v-570l109 -18v-24h-291zM221 304v47h424v-47h-424zM93 515h674v-37h-674v37z
" />
    <glyph glyph-name="hbar" unicode="&#x127;" horiz-adv-x="585" 
d="M49 0v19q14 6 31.5 11.5t42.5 10.5l10 601l-52 65q25 14 52 24t58 14v-707l79 -19v-19h-221zM351 0v19q14 6 31.5 11.5t42.5 10.5l10 346l57 30v-379l80 -19v-19h-221zM184 384l-1 20q30 31 62.5 53t67.5 36q6 0 11.5 0.5t9.5 0.5q46 0 85 -18.5t73 -58.5l-57 -30
q-56 50 -120 50q-65 0 -131 -53zM47 602h330v-42h-330v42z" />
    <glyph glyph-name="Itilde" unicode="&#x128;" horiz-adv-x="408" 
d="M71 0v22q28 8 55.5 13.5t54.5 8.5l9 565l-119 21v24h294v-22q-25 -7 -53 -12.5t-58 -8.5v-567l111 -20v-24h-294zM87 757l-14 13q24 35 39.5 53.5t25.5 25.5t18.5 7t19.5 -3l116 -29l60 52l13 -12q-30 -45 -47.5 -64t-29 -22t-25.5 1l-116 31z" />
    <glyph glyph-name="itilde" unicode="&#x129;" horiz-adv-x="291" 
d="M52 0v19q15 7 33.5 12.5t39.5 9.5l10 355l-51 61q25 15 51.5 25t57.5 14v-458l79 -19v-19h-220zM26 591l-14 13q24 35 39.5 53.5t25.5 25.5t18.5 7t19.5 -3l116 -29l60 52l13 -12q-30 -45 -47.5 -64t-29 -22t-25.5 1l-116 31z" />
    <glyph glyph-name="Imacron" unicode="&#x12a;" horiz-adv-x="408" 
d="M71 0v22q28 8 55.5 13.5t54.5 8.5l9 565l-119 21v24h294v-22q-25 -7 -53 -12.5t-58 -8.5v-567l111 -20v-24h-294zM101 793v45h236v-45h-236z" />
    <glyph glyph-name="imacron" unicode="&#x12b;" horiz-adv-x="292" 
d="M53 0v19q15 7 33.5 12.5t39.5 9.5l10 355l-51 61q25 15 51.5 25t57.5 14v-458l79 -19v-19h-220zM41 627v45h236v-45h-236z" />
    <glyph glyph-name="Ibreve" unicode="&#x12c;" horiz-adv-x="408" 
d="M71 0v22q28 8 55.5 13.5t54.5 8.5l9 565l-119 21v24h294v-22q-25 -7 -53 -12.5t-58 -8.5v-567l111 -20v-24h-294zM219 753q-32 0 -58.5 14t-42 36.5t-17.5 49.5l37 9q5 -27 27.5 -45t53.5 -18q32 0 54 18t28 45l37 -9q-2 -27 -17.5 -49.5t-42 -36.5t-59.5 -14z" />
    <glyph glyph-name="ibreve" unicode="&#x12d;" horiz-adv-x="292" 
d="M53 0v19q15 7 33.5 12.5t39.5 9.5l10 355l-51 61q25 15 51.5 25t57.5 14v-458l79 -19v-19h-220zM158 587q-32 0 -58.5 14t-42 36.5t-17.5 49.5l37 9q5 -27 27.5 -45t53.5 -18q32 0 54 18t28 45l37 -9q-2 -27 -17.5 -49.5t-42 -36.5t-59.5 -14z" />
    <glyph glyph-name="Iogonek" unicode="&#x12e;" horiz-adv-x="408" 
d="M71 0v22q28 8 55.5 13.5t54.5 8.5l9 565l-119 21v24h294v-22q-25 -7 -53 -12.5t-58 -8.5v-567l111 -20v-24h-294zM236 -206q-29 0 -47 12t-24 31t0.5 40.5t27.5 41.5l95 100h23l-77 -102q-23 -30 -16.5 -52.5t38.5 -22.5q20 0 38.5 9t33.5 26l8 -19q-16 -30 -42.5 -47
t-57.5 -17z" />
    <glyph glyph-name="iogonek" unicode="&#x12f;" horiz-adv-x="292" 
d="M53 0v19q15 7 33.5 12.5t39.5 9.5l10 355l-51 61q25 15 51.5 25t57.5 14v-458l79 -19v-19h-220zM174 701q13 -13 22.5 -30t12.5 -35q-11 -14 -28 -24t-35 -12q-14 12 -24 29t-13 34q12 15 29 24.5t36 13.5zM153 -210q-29 0 -47 12t-24 31t0.5 40.5t27.5 41.5l95 100h23
l-77 -102q-23 -30 -16.5 -52.5t38.5 -22.5q20 0 38.5 9t33.5 26l8 -19q-16 -30 -42.5 -47t-57.5 -17z" />
    <glyph glyph-name="Idotaccent" unicode="&#x130;" horiz-adv-x="408" 
d="M71 0v22q28 8 55.5 13.5t54.5 8.5l9 565l-119 21v24h294v-22q-25 -7 -53 -12.5t-58 -8.5v-567l111 -20v-24h-294zM234 867q13 -13 22.5 -30t12.5 -35q-11 -14 -28 -24t-35 -12q-14 12 -24 29t-13 34q12 15 29 24.5t36 13.5z" />
    <glyph glyph-name="dotlessi" unicode="&#x131;" horiz-adv-x="292" 
d="M39 0v19q15 7 33.5 12.5t39.5 9.5l10 355l-51 61q25 15 51.5 25t57.5 14v-458l79 -19v-19h-220z" />
    <glyph glyph-name="IJ" unicode="&#x132;" horiz-adv-x="907" 
d="M71 0v22q28 8 55.5 13.5t54.5 8.5l9 565l-119 21v24h294v-22q-25 -7 -53 -12.5t-58 -8.5v-567l111 -20v-24h-294zM456 0l9 58q26 -8 49.5 -11.5t43.5 -3.5q43 0 71 9.5t47 29t34 52.5l-7 -39l4 514l-146 21v24h315v-22q-21 -7 -46.5 -12.5t-57.5 -8.5v-399
q0 -220 -223 -220q-21 0 -44.5 2.5t-48.5 5.5zM456 0v217h22l46 -217h-68z" />
    <glyph glyph-name="ij" unicode="&#x133;" horiz-adv-x="536" 
d="M67 0v19q15 7 33.5 12.5t39.5 9.5l10 355l-51 61q25 15 51.5 25t57.5 14v-458l79 -19v-19h-220zM188 701q13 -13 22.5 -30t12.5 -35q-11 -14 -28 -24t-35 -12q-14 12 -24 29t-13 34q12 15 29 24.5t36 13.5zM308 -200l-7 12l88 129l10 455l-52 61q25 15 52 25t57 14v-491
q0 -69 -38.5 -118.5t-109.5 -86.5zM437 701q13 -13 22.5 -30t12.5 -35q-11 -14 -28 -24t-35 -12q-14 12 -24 29t-13 34q12 15 29 24.5t36 13.5z" />
    <glyph glyph-name="Jcircumflex" unicode="&#x134;" horiz-adv-x="527" 
d="M81 0l9 58q26 -8 49.5 -11.5t43.5 -3.5q43 0 71 9.5t47 29t34 52.5l-7 -39l4 514l-146 21v24h315v-22q-21 -7 -46.5 -12.5t-57.5 -8.5v-399q0 -220 -223 -220q-21 0 -44.5 2.5t-48.5 5.5zM81 0v217h22l46 -217h-68zM394 882l110 -105l-23 -22l-105 78l-103 -78l-22 22
l108 105h35z" />
    <glyph glyph-name="jcircumflex" unicode="&#x135;" horiz-adv-x="268" 
d="M32 -200l-7 12l88 129l10 455l-52 61q25 15 52 25t57 14v-491q0 -69 -38.5 -118.5t-109.5 -86.5zM176 716l110 -105l-23 -22l-105 78l-103 -78l-22 22l108 105h35z" />
    <glyph glyph-name="uni0136" unicode="&#x136;" horiz-adv-x="780" 
d="M71 0v22q28 8 55.5 13.5t54.5 8.5l9 565l-119 21v24h294v-22q-25 -7 -53 -12.5t-58 -8.5v-567l111 -20v-24h-294zM461 0v19q42 15 85 23t88 11l118 -29v-24h-291zM590 601l-137 28v25h279v-20q-35 -14 -70 -22.5t-72 -10.5zM355 325l1 44l319 -340v-19h-81l-301 325
l296 308h60v-13zM363 -206l22 117l61 2q-12 -31 -27.5 -61.5t-36.5 -61.5zM390 -120l-28 52q14 13 27.5 19.5t28.5 11.5q10 -10 16.5 -22t11.5 -28z" />
    <glyph glyph-name="uni0137" unicode="&#x137;" horiz-adv-x="520" 
d="M49 0v19q14 6 31.5 11.5t42.5 10.5l10 601l-52 65q25 14 52 24t58 14v-707l79 -19v-19h-221zM435 -8l-210 265l190 219h50v-10l-192 -221l1 43l232 -277q-16 -6 -34 -11t-37 -8zM426 436q-29 3 -53.5 11t-47.5 19v20h183v-20zM251 -206l22 117l61 2q-12 -31 -27.5 -61.5
t-36.5 -61.5zM278 -120l-28 52q14 13 27.5 19.5t28.5 11.5q10 -10 16.5 -22t11.5 -28z" />
    <glyph glyph-name="kgreenlandic" unicode="&#x138;" horiz-adv-x="524" 
d="M40 0v19q13 6 30.5 11.5t42.5 10.5l9 355l-50 61q25 15 51.5 25t57.5 14v-458l79 -19v-19h-220zM416 436q-29 3 -53 11t-47 19v20h182v-20zM263 245l1 43l232 -277q-16 -6 -34 -11t-37 -8l-210 265l190 219h50v-10z" />
    <glyph glyph-name="Lacute" unicode="&#x139;" horiz-adv-x="623" 
d="M550 261h22v-261h-501v22q28 8 55.5 13.5t54.5 8.5l9 565l-119 21v24h307v-22q-27 -7 -58.5 -12.5t-65.5 -8.5v-563h261zM152 732l-13 20l167 139h10l27 -44q-46 -32 -94.5 -60.5t-96.5 -54.5z" />
    <glyph glyph-name="lacute" unicode="&#x13a;" horiz-adv-x="289" 
d="M49 0v19q14 6 31.5 11.5t42.5 10.5l10 601l-52 65q25 14 52 24t58 14v-707l79 -19v-19h-221zM92 771l-13 20l167 139h10l27 -44q-46 -32 -94.5 -60.5t-96.5 -54.5z" />
    <glyph glyph-name="uni013B" unicode="&#x13b;" horiz-adv-x="623" 
d="M550 261h22v-261h-501v22q28 8 55.5 13.5t54.5 8.5l9 565l-119 21v24h307v-22q-27 -7 -58.5 -12.5t-65.5 -8.5v-563h261zM297 -206l22 117l61 2q-12 -31 -27.5 -61.5t-36.5 -61.5zM324 -120l-28 52q14 13 27.5 19.5t28.5 11.5q10 -10 16.5 -22t11.5 -28z" />
    <glyph glyph-name="uni013C" unicode="&#x13c;" horiz-adv-x="290" 
d="M49 0v19q14 6 31.5 11.5t42.5 10.5l10 601l-52 65q25 14 52 24t58 14v-707l79 -19v-19h-221zM121 -206l22 117l61 2q-12 -31 -27.5 -61.5t-36.5 -61.5zM148 -120l-28 52q14 13 27.5 19.5t28.5 11.5q10 -10 16.5 -22t11.5 -28z" />
    <glyph glyph-name="Lcaron" unicode="&#x13d;" horiz-adv-x="669" 
d="M545 261h22v-261h-501v22q28 8 55.5 13.5t54.5 8.5l9 565l-119 21v24h307v-22q-27 -7 -58.5 -12.5t-65.5 -8.5v-563h261zM472 560l-17 162q35 6 69 0l-17 -162h-35z" />
    <glyph glyph-name="lcaron" unicode="&#x13e;" horiz-adv-x="300" 
d="M49 0v19q14 6 31.5 11.5t42.5 10.5l10 601l-52 65q25 14 52 24t58 14v-707l79 -19v-19h-221zM259 641l-17 162q35 6 69 0l-17 -162h-35z" />
    <glyph glyph-name="Ldot" unicode="&#x13f;" horiz-adv-x="649" 
d="M550 261h22v-261h-501v22q28 8 55.5 13.5t54.5 8.5l9 565l-119 21v24h307v-22q-27 -7 -58.5 -12.5t-65.5 -8.5v-563h261zM501 400q-13 11 -22 26.5t-14 33.5q12 13 28.5 22.5t34.5 12.5q13 -12 21.5 -28.5t12.5 -32.5q-11 -13 -27.5 -22t-33.5 -12z" />
    <glyph glyph-name="ldot" unicode="&#x140;" horiz-adv-x="320" 
d="M48 0v19q14 6 31.5 11.5t42.5 10.5l10 601l-52 65q25 14 52 24t58 14v-707l79 -19v-19h-221zM292 280q-13 11 -22 26.5t-14 33.5q12 13 28.5 22.5t34.5 12.5q13 -12 21.5 -28.5t12.5 -32.5q-11 -13 -27.5 -22t-33.5 -12z" />
    <glyph glyph-name="Lslash" unicode="&#x141;" horiz-adv-x="660" 
d="M562 261h22v-261h-501v22q28 8 55.5 13.5t54.5 8.5l9 565l-119 21v24h307v-22q-27 -7 -58.5 -12.5t-65.5 -8.5v-563h261zM111 234l-23 33l295 231l22 -33z" />
    <glyph glyph-name="lslash" unicode="&#x142;" horiz-adv-x="351" 
d="M82 0v19q14 6 31.5 11.5t42.5 10.5l10 601l-52 65q25 14 52 24t58 14v-707l79 -19v-19h-221zM58 234l-23 33l295 231l22 -33z" />
    <glyph glyph-name="Nacute" unicode="&#x143;" horiz-adv-x="819" 
d="M511 654h281v-22q-29 -8 -56 -13.5t-54 -7.5l-1 -611h-69l-391 584l16 5v-545l126 -20v-24h-292v22q28 8 55.5 13.5t54.5 8.5l9 565l-119 21v24h186l394 -589l-15 -4l-10 550l-115 19v24zM350 732l-13 20l167 139h10l27 -44q-46 -32 -94.5 -60.5t-96.5 -54.5z" />
    <glyph glyph-name="nacute" unicode="&#x144;" horiz-adv-x="590" 
d="M53 0v19q13 6 30.5 11.5t42.5 10.5l10 355l-51 61q48 29 102 39l7 -93v-365l79 -19v-19h-220zM354 0v19q15 6 32.5 11.5t41.5 10.5l10 346l57 30v-379l81 -19v-19h-222zM188 384l-2 20q30 31 62.5 53t68.5 36q5 0 10.5 0.5t9.5 0.5q46 0 85.5 -18.5t72.5 -58.5l-57 -30
q-56 50 -120 50t-130 -53zM240 566l-13 20l167 139h10l27 -44q-46 -32 -94.5 -60.5t-96.5 -54.5z" />
    <glyph glyph-name="uni0145" unicode="&#x145;" horiz-adv-x="819" 
d="M511 654h281v-22q-29 -8 -56 -13.5t-54 -7.5l-1 -611h-69l-391 584l16 5v-545l126 -20v-24h-292v22q28 8 55.5 13.5t54.5 8.5l9 565l-119 21v24h186l394 -589l-15 -4l-10 550l-115 19v24zM385 -206l22 117l61 2q-12 -31 -27.5 -61.5t-36.5 -61.5zM412 -120l-28 52
q14 13 27.5 19.5t28.5 11.5q10 -10 16.5 -22t11.5 -28z" />
    <glyph glyph-name="uni0146" unicode="&#x146;" horiz-adv-x="590" 
d="M53 0v19q13 6 30.5 11.5t42.5 10.5l10 355l-51 61q48 29 102 39l7 -93v-365l79 -19v-19h-220zM354 0v19q15 6 32.5 11.5t41.5 10.5l10 346l57 30v-379l81 -19v-19h-222zM188 384l-2 20q30 31 62.5 53t68.5 36q5 0 10.5 0.5t9.5 0.5q46 0 85.5 -18.5t72.5 -58.5l-57 -30
q-56 50 -120 50t-130 -53zM266 -206l22 117l61 2q-12 -31 -27.5 -61.5t-36.5 -61.5zM293 -120l-28 52q14 13 27.5 19.5t28.5 11.5q10 -10 16.5 -22t11.5 -28z" />
    <glyph glyph-name="Ncaron" unicode="&#x147;" horiz-adv-x="819" 
d="M511 654h281v-22q-29 -8 -56 -13.5t-54 -7.5l-1 -611h-69l-391 584l16 5v-545l126 -20v-24h-292v22q28 8 55.5 13.5t54.5 8.5l9 565l-119 21v24h186l394 -589l-15 -4l-10 550l-115 19v24zM407 748l-109 106l22 23l106 -79l103 79l22 -23l-109 -106h-35z" />
    <glyph glyph-name="ncaron" unicode="&#x148;" horiz-adv-x="590" 
d="M53 0v19q13 6 30.5 11.5t42.5 10.5l10 355l-51 61q48 29 102 39l7 -93v-365l79 -19v-19h-220zM354 0v19q15 6 32.5 11.5t41.5 10.5l10 346l57 30v-379l81 -19v-19h-222zM188 384l-2 20q30 31 62.5 53t68.5 36q5 0 10.5 0.5t9.5 0.5q46 0 85.5 -18.5t72.5 -58.5l-57 -30
q-56 50 -120 50t-130 -53zM298 582l-109 106l22 23l106 -79l103 79l22 -23l-109 -106h-35z" />
    <glyph glyph-name="Eng" unicode="&#x14a;" horiz-adv-x="820" 
d="M497 654h280v-22q-29 -8 -56 -13.5t-54 -7.5l-1 -606q0 -69 -41.5 -118.5t-116.5 -86.5l-8 11l133 173l-5 -45l-421 646l15 4v-545l123 -20v-24h-289v22q28 8 55.5 13.5t54.5 8.5l9 565l-119 21v24h186l394 -598l-15 -4l-10 559l-114 19v24z" />
    <glyph glyph-name="eng" unicode="&#x14b;" horiz-adv-x="567" 
d="M39 0v19q13 6 30.5 11.5t42.5 10.5l10 355l-51 61q48 29 102 39l7 -93v-365l79 -19v-19h-220zM324 -200l-8 12l88 129l10 446l58 30v-412q0 -69 -38.5 -118.5t-109.5 -86.5zM174 384l-2 20q29 31 60.5 53t67.5 36q4 0 9 0.5t10 0.5q45 0 83 -18.5t70 -58.5l-58 -30
q-53 50 -115 50q-31 0 -62.5 -13.5t-62.5 -39.5z" />
    <glyph glyph-name="Omacron" unicode="&#x14c;" horiz-adv-x="755" 
d="M385 -8q-85 0 -149.5 41t-100.5 114t-36 171q0 100 38.5 177.5t106.5 122t154 44.5q85 0 150.5 -41.5t102 -115t36.5 -170.5q0 -100 -38 -177.5t-106.5 -121.5t-157.5 -44zM392 40q66 0 116.5 36.5t79.5 102t29 152.5q0 84 -27.5 146.5t-78.5 97.5t-119 35
q-45 0 -89 -15.5t-80 -45.5l26 29q-81 -121 -81 -258q0 -82 28.5 -145.5t79.5 -99t116 -35.5zM275 793v45h236v-45h-236z" />
    <glyph glyph-name="omacron" unicode="&#x14d;" horiz-adv-x="540" 
d="M278 -8q-62 0 -108.5 30.5t-72 85t-25.5 126.5q0 78 27.5 136t76.5 91t113 33q62 0 109.5 -30.5t73.5 -86t26 -127.5q0 -77 -27.5 -135t-77.5 -90.5t-115 -32.5zM283 37q45 0 78.5 25.5t53 72.5t19.5 111q0 62 -19 107t-53 69t-80 24q-28 0 -59.5 -10t-66.5 -31l34 27
q-26 -45 -39.5 -92.5t-13.5 -99.5q0 -62 18.5 -107.5t52 -70.5t75.5 -25zM167 627v45h236v-45h-236z" />
    <glyph glyph-name="Obreve" unicode="&#x14e;" horiz-adv-x="755" 
d="M385 -8q-85 0 -149.5 41t-100.5 114t-36 171q0 100 38.5 177.5t106.5 122t154 44.5q85 0 150.5 -41.5t102 -115t36.5 -170.5q0 -100 -38 -177.5t-106.5 -121.5t-157.5 -44zM392 40q66 0 116.5 36.5t79.5 102t29 152.5q0 84 -27.5 146.5t-78.5 97.5t-119 35
q-45 0 -89 -15.5t-80 -45.5l26 29q-81 -121 -81 -258q0 -82 28.5 -145.5t79.5 -99t116 -35.5zM392 753q-32 0 -58.5 14t-42 36.5t-17.5 49.5l37 9q5 -27 27.5 -45t53.5 -18q32 0 54 18t28 45l37 -9q-2 -27 -17.5 -49.5t-42 -36.5t-59.5 -14z" />
    <glyph glyph-name="obreve" unicode="&#x14f;" horiz-adv-x="540" 
d="M278 -8q-62 0 -108.5 30.5t-72 85t-25.5 126.5q0 78 27.5 136t76.5 91t113 33q62 0 109.5 -30.5t73.5 -86t26 -127.5q0 -77 -27.5 -135t-77.5 -90.5t-115 -32.5zM283 37q45 0 78.5 25.5t53 72.5t19.5 111q0 62 -19 107t-53 69t-80 24q-28 0 -59.5 -10t-66.5 -31l34 27
q-26 -45 -39.5 -92.5t-13.5 -99.5q0 -62 18.5 -107.5t52 -70.5t75.5 -25zM284 587q-32 0 -58.5 14t-42 36.5t-17.5 49.5l37 9q5 -27 27.5 -45t53.5 -18q32 0 54 18t28 45l37 -9q-2 -27 -17.5 -49.5t-42 -36.5t-59.5 -14z" />
    <glyph glyph-name="Ohungarumlaut" unicode="&#x150;" horiz-adv-x="755" 
d="M385 -8q-85 0 -149.5 41t-100.5 114t-36 171q0 100 38.5 177.5t106.5 122t154 44.5q85 0 150.5 -41.5t102 -115t36.5 -170.5q0 -100 -38 -177.5t-106.5 -121.5t-157.5 -44zM392 40q66 0 116.5 36.5t79.5 102t29 152.5q0 84 -27.5 146.5t-78.5 97.5t-119 35
q-45 0 -89 -15.5t-80 -45.5l26 29q-81 -121 -81 -258q0 -82 28.5 -145.5t79.5 -99t116 -35.5zM260 749l98 146l9 4l41 -30q-29 -35 -60 -70t-63 -68zM419 749l97 146l9 4l42 -30q-29 -35 -60.5 -70t-62.5 -68z" />
    <glyph glyph-name="ohungarumlaut" unicode="&#x151;" horiz-adv-x="540" 
d="M278 -8q-62 0 -108.5 30.5t-72 85t-25.5 126.5q0 78 27.5 136t76.5 91t113 33q62 0 109.5 -30.5t73.5 -86t26 -127.5q0 -77 -27.5 -135t-77.5 -90.5t-115 -32.5zM283 37q45 0 78.5 25.5t53 72.5t19.5 111q0 62 -19 107t-53 69t-80 24q-28 0 -59.5 -10t-66.5 -31l34 27
q-26 -45 -39.5 -92.5t-13.5 -99.5q0 -62 18.5 -107.5t52 -70.5t75.5 -25zM152 583l98 146l9 4l41 -30q-29 -35 -60 -70t-63 -68zM311 583l97 146l9 4l42 -30q-29 -35 -60.5 -70t-62.5 -68z" />
    <glyph glyph-name="OE" unicode="&#x152;" horiz-adv-x="1035" 
d="M899 215h23v-215h-565q-81 0 -143 40.5t-96.5 112t-34.5 164.5q0 73 21 134t59.5 107t91 71t114.5 25h543v-194h-23l-32 144h-373l16 12q61 -37 96.5 -111t35.5 -172q0 -102 -38.5 -179t-104.5 -116l-15 11h391zM152 331q0 -82 27.5 -145.5t75.5 -100.5t109 -37
q60 0 104.5 35t70 97t25.5 144q0 126 -62 231q-60 48 -135 48q-65 0 -113.5 -34t-75 -95t-26.5 -143zM788 225l-39 111l39 112h21v-223h-21zM595 312v49h191v-49h-191z" />
    <glyph glyph-name="oe" unicode="&#x153;" horiz-adv-x="868" 
d="M259 -8q-61 0 -106.5 30.5t-70.5 85t-25 126.5q0 78 27 136t75 91t111 33q59 0 104 -30.5t70 -86t25 -127.5q0 -77 -26.5 -135t-73.5 -90.5t-110 -32.5zM269 37q44 0 77.5 25.5t53 72.5t19.5 111q0 62 -19 107t-53 69t-80 24q-24 0 -49 -8t-49 -22q-46 -83 -46 -176
q0 -62 18.5 -107.5t51.5 -70.5t76 -25zM624 -7q-60 0 -104.5 31t-69 88t-24.5 134q0 71 27.5 127t74.5 88t106 32q52 0 90 -22t59.5 -62t21.5 -92l-4 -63q-54 -9 -102.5 -15t-106 -9t-137.5 -3v41l288 4l5 45q0 58 -34 94t-88 36q-23 0 -49.5 -8.5t-50.5 -22.5
q-23 -39 -34.5 -79.5t-11.5 -85.5q0 -100 45 -152.5t123 -52.5q33 0 71 10t80 30l4 -13q-41 -39 -86 -59.5t-93 -20.5z" />
    <glyph glyph-name="Racute" unicode="&#x154;" horiz-adv-x="731" 
d="M611 46l98 -22v-24h-163l-34 182q-10 61 -37.5 85t-84.5 24h-165v48h208q61 27 88.5 61.5t27.5 80.5q0 58 -38.5 91.5t-103.5 33.5h-153v-562l111 -20v-24h-294v22q16 8 43.5 13t66.5 9l9 565l-119 21v24h347q90 0 144.5 -44t54.5 -116q0 -61 -39.5 -109t-106.5 -66
q47 -12 73.5 -44t38.5 -93zM308 732l-13 20l167 139h10l27 -44q-46 -32 -94.5 -60.5t-96.5 -54.5z" />
    <glyph glyph-name="racute" unicode="&#x155;" horiz-adv-x="388" 
d="M374 428q-98 2 -186 -52v16q30 33 62.5 57.5t67.5 42.5q18 -2 32 -7t28 -13zM53 0v19q14 6 31 11.5t42 10.5l10 355l-51 61q48 29 102 39l7 -106v-349l111 -22v-19h-252zM161 566l-13 20l167 139h10l27 -44q-46 -32 -94.5 -60.5t-96.5 -54.5z" />
    <glyph glyph-name="uni0156" unicode="&#x156;" horiz-adv-x="731" 
d="M611 46l98 -22v-24h-163l-34 182q-10 61 -37.5 85t-84.5 24h-165v48h208q61 27 88.5 61.5t27.5 80.5q0 58 -38.5 91.5t-103.5 33.5h-153v-562l111 -20v-24h-294v22q16 8 43.5 13t66.5 9l9 565l-119 21v24h347q90 0 144.5 -44t54.5 -116q0 -61 -39.5 -109t-106.5 -66
q47 -12 73.5 -44t38.5 -93zM343 -206l22 117l61 2q-12 -31 -27.5 -61.5t-36.5 -61.5zM370 -120l-28 52q14 13 27.5 19.5t28.5 11.5q10 -10 16.5 -22t11.5 -28z" />
    <glyph glyph-name="uni0157" unicode="&#x157;" horiz-adv-x="388" 
d="M374 428q-98 2 -186 -52v16q30 33 62.5 57.5t67.5 42.5q18 -2 32 -7t28 -13zM53 0v19q14 6 31 11.5t42 10.5l10 355l-51 61q48 29 102 39l7 -106v-349l111 -22v-19h-252zM121 -206l22 117l61 2q-12 -31 -27.5 -61.5t-36.5 -61.5zM148 -120l-28 52q14 13 27.5 19.5
t28.5 11.5q10 -10 16.5 -22t11.5 -28z" />
    <glyph glyph-name="Rcaron" unicode="&#x158;" horiz-adv-x="731" 
d="M611 46l98 -22v-24h-163l-34 182q-10 61 -37.5 85t-84.5 24h-165v48h208q61 27 88.5 61.5t27.5 80.5q0 58 -38.5 91.5t-103.5 33.5h-153v-562l111 -20v-24h-294v22q16 8 43.5 13t66.5 9l9 565l-119 21v24h347q90 0 144.5 -44t54.5 -116q0 -61 -39.5 -109t-106.5 -66
q47 -12 73.5 -44t38.5 -93zM365 748l-109 106l22 23l106 -79l103 79l22 -23l-109 -106h-35z" />
    <glyph glyph-name="rcaron" unicode="&#x159;" horiz-adv-x="388" 
d="M374 428q-98 2 -186 -52v16q30 33 62.5 57.5t67.5 42.5q18 -2 32 -7t28 -13zM53 0v19q14 6 31 11.5t42 10.5l10 355l-51 61q48 29 102 39l7 -106v-349l111 -22v-19h-252zM219 582l-109 106l22 23l106 -79l103 79l22 -23l-109 -106h-35z" />
    <glyph glyph-name="Sacute" unicode="&#x15a;" horiz-adv-x="645" 
d="M305 -9q-46 0 -94.5 7t-99.5 21l25 49q45 -13 94.5 -19t101.5 -6q31 0 62 2t62 6l-29 -8q22 11 40 28t28.5 37t10.5 41q0 34 -27.5 60t-70.5 48.5t-91.5 44.5t-92 48.5t-71 61.5t-27.5 85q0 51 31 87.5t87.5 57t134.5 20.5q42 0 84.5 -5.5t82.5 -17.5l-17 -49
q-44 10 -88.5 15t-87.5 5q-34 0 -65.5 -3.5t-62.5 -8.5l31 9q-29 -15 -47 -41t-18 -57q0 -38 27.5 -66t70.5 -50.5t92 -44.5t92.5 -47.5t71 -59.5t27.5 -80q0 -52 -33.5 -90.5t-93 -59t-140.5 -20.5zM182 19h-71l4 190h24zM516 458l-40 182l70 -1l-6 -181h-24zM280 732
l-13 20l167 139h10l27 -44q-46 -32 -94.5 -60.5t-96.5 -54.5z" />
    <glyph glyph-name="sacute" unicode="&#x15b;" horiz-adv-x="481" 
d="M233 -7q-33 0 -70.5 5t-76.5 17l24 52q46 -12 90.5 -18.5t86.5 -6.5q17 0 33 1t32 3l-33 -13q22 9 39 30.5t17 46.5t-20 43.5t-51.5 34t-67 31.5t-67.5 36t-52 47t-20 65q0 60 52.5 94t138.5 34q29 0 61.5 -4t66.5 -14l-16 -55q-44 11 -83 17t-75 6q-16 0 -31.5 -1
t-33.5 -3l23 9q-22 -10 -33 -29.5t-11 -40.5q0 -27 20.5 -46.5t52 -35.5t67 -31.5t67.5 -35t52 -46t20 -63.5q0 -60 -56.5 -94.5t-145.5 -34.5zM86 15l4 147h26l37 -147h-67zM390 340l-39 137h65l-1 -137h-25zM182 566l-13 20l167 139h10l27 -44q-46 -32 -94.5 -60.5
t-96.5 -54.5z" />
    <glyph glyph-name="Scircumflex" unicode="&#x15c;" horiz-adv-x="645" 
d="M306 -9q-46 0 -94.5 7t-99.5 21l25 49q45 -13 94.5 -19t101.5 -6q31 0 62 2t62 6l-29 -8q22 11 40 28t28.5 37t10.5 41q0 34 -27.5 60t-70.5 48.5t-91.5 44.5t-92 48.5t-71 61.5t-27.5 85q0 51 31 87.5t87.5 57t134.5 20.5q42 0 84.5 -5.5t82.5 -17.5l-17 -49
q-44 10 -88.5 15t-87.5 5q-34 0 -65.5 -3.5t-62.5 -8.5l31 9q-29 -15 -47 -41t-18 -57q0 -38 27.5 -66t70.5 -50.5t92 -44.5t92.5 -47.5t71 -59.5t27.5 -80q0 -52 -33.5 -90.5t-93 -59t-140.5 -20.5zM183 19h-71l4 190h24zM517 458l-40 182l70 -1l-6 -181h-24zM384 882
l110 -105l-23 -22l-105 78l-103 -78l-22 22l108 105h35z" />
    <glyph glyph-name="scircumflex" unicode="&#x15d;" horiz-adv-x="481" 
d="M233 -7q-33 0 -70.5 5t-76.5 17l24 52q46 -12 90.5 -18.5t86.5 -6.5q17 0 33 1t32 3l-33 -13q22 9 39 30.5t17 46.5t-20 43.5t-51.5 34t-67 31.5t-67.5 36t-52 47t-20 65q0 60 52.5 94t138.5 34q29 0 61.5 -4t66.5 -14l-16 -55q-44 11 -83 17t-75 6q-16 0 -31.5 -1
t-33.5 -3l23 9q-22 -10 -33 -29.5t-11 -40.5q0 -27 20.5 -46.5t52 -35.5t67 -31.5t67.5 -35t52 -46t20 -63.5q0 -60 -56.5 -94.5t-145.5 -34.5zM86 15l4 147h26l37 -147h-67zM390 340l-39 137h65l-1 -137h-25zM285 716l110 -105l-23 -22l-105 78l-103 -78l-22 22l108 105h35
z" />
    <glyph glyph-name="Scedilla" unicode="&#x15e;" horiz-adv-x="645" 
d="M305 -9q-46 0 -94.5 7t-99.5 21l25 49q45 -13 94.5 -19t101.5 -6q31 0 62 2t62 6l-29 -8q22 11 40 28t28.5 37t10.5 41q0 34 -27.5 60t-70.5 48.5t-91.5 44.5t-92 48.5t-71 61.5t-27.5 85q0 51 31 87.5t87.5 57t134.5 20.5q42 0 84.5 -5.5t82.5 -17.5l-17 -49
q-44 10 -88.5 15t-87.5 5q-34 0 -65.5 -3.5t-62.5 -8.5l31 9q-29 -15 -47 -41t-18 -57q0 -38 27.5 -66t70.5 -50.5t92 -44.5t92.5 -47.5t71 -59.5t27.5 -80q0 -52 -33.5 -90.5t-93 -59t-140.5 -20.5zM182 19h-71l4 190h24zM516 458l-40 182l70 -1l-6 -181h-24zM251 -206
l4 47q36 -10 66.5 -15.5t64.5 -6.5q8 6 13 15.5t5 18.5q0 12 -10 22t-34 20t-65 24l19 40q70 -17 102 -41t32 -58q0 -36 -27 -56.5t-72 -24t-98 14.5zM316 13h30l-21 -94h-30z" />
    <glyph glyph-name="scedilla" unicode="&#x15f;" horiz-adv-x="481" 
d="M233 -7q-33 0 -70.5 5t-76.5 17l24 52q46 -12 90.5 -18.5t86.5 -6.5q17 0 33 1t32 3l-33 -13q22 9 39 30.5t17 46.5t-20 43.5t-51.5 34t-67 31.5t-67.5 36t-52 47t-20 65q0 60 52.5 94t138.5 34q29 0 61.5 -4t66.5 -14l-16 -55q-44 11 -83 17t-75 6q-16 0 -31.5 -1
t-33.5 -3l23 9q-22 -10 -33 -29.5t-11 -40.5q0 -27 20.5 -46.5t52 -35.5t67 -31.5t67.5 -35t52 -46t20 -63.5q0 -60 -56.5 -94.5t-145.5 -34.5zM86 15l4 147h26l37 -147h-67zM390 340l-39 137h65l-1 -137h-25zM180 -206l4 47q36 -10 66.5 -15.5t64.5 -6.5q8 6 13 15.5
t5 18.5q0 12 -10 22t-34 20t-65 24l19 40q70 -17 102 -41t32 -58q0 -36 -27 -56.5t-72 -24t-98 14.5zM245 13h30l-21 -94h-30z" />
    <glyph glyph-name="Scaron" unicode="&#x160;" horiz-adv-x="645" 
d="M305 -9q-46 0 -94.5 7t-99.5 21l25 49q45 -13 94.5 -19t101.5 -6q31 0 62 2t62 6l-29 -8q22 11 40 28t28.5 37t10.5 41q0 34 -27.5 60t-70.5 48.5t-91.5 44.5t-92 48.5t-71 61.5t-27.5 85q0 51 31 87.5t87.5 57t134.5 20.5q42 0 84.5 -5.5t82.5 -17.5l-17 -49
q-44 10 -88.5 15t-87.5 5q-34 0 -65.5 -3.5t-62.5 -8.5l31 9q-29 -15 -47 -41t-18 -57q0 -38 27.5 -66t70.5 -50.5t92 -44.5t92.5 -47.5t71 -59.5t27.5 -80q0 -52 -33.5 -90.5t-93 -59t-140.5 -20.5zM182 19h-71l4 190h24zM516 458l-40 182l70 -1l-6 -181h-24zM336 748
l-109 106l22 23l106 -79l103 79l22 -23l-109 -106h-35z" />
    <glyph glyph-name="scaron" unicode="&#x161;" horiz-adv-x="481" 
d="M233 -7q-33 0 -70.5 5t-76.5 17l24 52q46 -12 90.5 -18.5t86.5 -6.5q17 0 33 1t32 3l-33 -13q22 9 39 30.5t17 46.5t-20 43.5t-51.5 34t-67 31.5t-67.5 36t-52 47t-20 65q0 60 52.5 94t138.5 34q29 0 61.5 -4t66.5 -14l-16 -55q-44 11 -83 17t-75 6q-16 0 -31.5 -1
t-33.5 -3l23 9q-22 -10 -33 -29.5t-11 -40.5q0 -27 20.5 -46.5t52 -35.5t67 -31.5t67.5 -35t52 -46t20 -63.5q0 -60 -56.5 -94.5t-145.5 -34.5zM86 15l4 147h26l37 -147h-67zM390 340l-39 137h65l-1 -137h-25zM238 582l-109 106l22 23l106 -79l103 79l22 -23l-109 -106h-35z
" />
    <glyph glyph-name="uni0162" unicode="&#x162;" horiz-adv-x="721" 
d="M665 654v-250h-23l-35 202h-199v-561l138 -21v-24h-348v22q36 8 70.5 14t67.5 8l9 562h-201l-35 -202h-23v250h579zM297 -206l4 47q36 -10 66.5 -15.5t64.5 -6.5q8 6 13 15.5t5 18.5q0 12 -10 22t-34 20t-65 24l19 40q70 -17 102 -41t32 -58q0 -36 -27 -56.5t-72 -24
t-98 14.5zM362 13h30l-21 -94h-30z" />
    <glyph glyph-name="uni0163" unicode="&#x163;" horiz-adv-x="372" 
d="M185 561v-76h175l-4 -41h-171v-390l174 1q-15 -21 -35.5 -35t-44.5 -21t-48 -7q-37 0 -69 16t-45 48l12 388h-73v15q29 29 60.5 55t68.5 47zM135 -206l4 47q36 -10 66.5 -15.5t64.5 -6.5q8 6 13 15.5t5 18.5q0 12 -10 22t-34 20t-65 24l19 40q70 -17 102 -41t32 -58
q0 -36 -27 -56.5t-72 -24t-98 14.5zM200 13h30l-21 -94h-30z" />
    <glyph glyph-name="Tcaron" unicode="&#x164;" horiz-adv-x="721" 
d="M665 654v-250h-23l-35 202h-199v-561l138 -21v-24h-348v22q36 8 70.5 14t67.5 8l9 562h-201l-35 -202h-23v250h579zM357 748l-109 106l22 23l106 -79l103 79l22 -23l-109 -106h-35z" />
    <glyph glyph-name="tcaron" unicode="&#x165;" horiz-adv-x="372" 
d="M185 561v-76h175l-4 -41h-171v-390l174 1q-15 -21 -35.5 -35t-44.5 -21t-48 -7q-37 0 -69 16t-45 48l12 388h-73v15q29 29 60.5 55t68.5 47zM237 615l-17 162q35 6 69 0l-17 -162h-35z" />
    <glyph glyph-name="Tbar" unicode="&#x166;" horiz-adv-x="721" 
d="M665 654v-250h-23l-35 202h-199v-561l138 -21v-24h-348v22q36 8 70.5 14t67.5 8l9 562h-201l-35 -202h-23v250h579zM210 345h330v-42h-330v42z" />
    <glyph glyph-name="tbar" unicode="&#x167;" horiz-adv-x="412" 
d="M198 561v-76h175l-4 -41h-171v-390l174 1q-15 -21 -35.5 -35t-44.5 -21t-48 -7q-37 0 -69 16t-45 48l12 388h-73v15q29 29 60.5 55t68.5 47zM64.3193 285.728h291.268v-37.0703h-291.268v37.0703z" />
    <glyph glyph-name="Utilde" unicode="&#x168;" horiz-adv-x="793" 
d="M411 -9q-120 0 -183.5 54t-63.5 157l7 407l-120 21v24h293v-22q-21 -8 -47.5 -13t-62.5 -8v-412q0 -78 46 -118t136 -40q66 0 109.5 20.5t76.5 66.5l5 481l-117 21v24h280v-22q-22 -8 -49 -13t-62 -8l1 -399q0 -105 -65.5 -163t-183.5 -58zM283 757l-14 13
q24 35 39.5 53.5t25.5 25.5t18.5 7t19.5 -3l116 -29l60 52l13 -12q-30 -45 -47.5 -64t-29 -22t-25.5 1l-116 31z" />
    <glyph glyph-name="utilde" unicode="&#x169;" horiz-adv-x="587" 
d="M479 56l102 5q-7 -22 -19 -37t-27.5 -22t-31.5 -7q-21 0 -40 10.5t-32.5 31.5t-18.5 51l8 308l-51 61q53 31 110 39v-440zM289 -7q-6 0 -11 -0.5t-9 -0.5q-47 0 -86.5 19t-72.5 59l58 32q57 -51 123 -51q64 0 128 50l1 -19q-30 -31 -62.5 -53t-68.5 -36zM110 70l9 326
l-52 61q54 31 109 39v-412zM166 591l-14 13q24 35 39.5 53.5t25.5 25.5t18.5 7t19.5 -3l116 -29l60 52l13 -12q-30 -45 -47.5 -64t-29 -22t-25.5 1l-116 31z" />
    <glyph glyph-name="Umacron" unicode="&#x16a;" horiz-adv-x="793" 
d="M410 -9q-120 0 -183.5 54t-63.5 157l7 407l-120 21v24h293v-22q-21 -8 -47.5 -13t-62.5 -8v-412q0 -78 46 -118t136 -40q66 0 109.5 20.5t76.5 66.5l5 481l-117 21v24h280v-22q-22 -8 -49 -13t-62 -8l1 -399q0 -105 -65.5 -163t-183.5 -58zM298 793v45h236v-45h-236z" />
    <glyph glyph-name="umacron" unicode="&#x16b;" horiz-adv-x="586" 
d="M479 56l102 5q-7 -22 -19 -37t-27.5 -22t-31.5 -7q-21 0 -40 10.5t-32.5 31.5t-18.5 51l8 308l-51 61q53 31 110 39v-440zM289 -7q-6 0 -11 -0.5t-9 -0.5q-47 0 -86.5 19t-72.5 59l58 32q57 -51 123 -51q64 0 128 50l1 -19q-30 -31 -62.5 -53t-68.5 -36zM110 70l9 326
l-52 61q54 31 109 39v-412zM182 627v45h236v-45h-236z" />
    <glyph glyph-name="Ubreve" unicode="&#x16c;" horiz-adv-x="793" 
d="M411 -9q-120 0 -183.5 54t-63.5 157l7 407l-120 21v24h293v-22q-21 -8 -47.5 -13t-62.5 -8v-412q0 -78 46 -118t136 -40q66 0 109.5 20.5t76.5 66.5l5 481l-117 21v24h280v-22q-22 -8 -49 -13t-62 -8l1 -399q0 -105 -65.5 -163t-183.5 -58zM415 753q-32 0 -58.5 14
t-42 36.5t-17.5 49.5l37 9q5 -27 27.5 -45t53.5 -18q32 0 54 18t28 45l37 -9q-2 -27 -17.5 -49.5t-42 -36.5t-59.5 -14z" />
    <glyph glyph-name="ubreve" unicode="&#x16d;" horiz-adv-x="587" 
d="M479 56l102 5q-7 -22 -19 -37t-27.5 -22t-31.5 -7q-21 0 -40 10.5t-32.5 31.5t-18.5 51l8 308l-51 61q53 31 110 39v-440zM289 -7q-6 0 -11 -0.5t-9 -0.5q-47 0 -86.5 19t-72.5 59l58 32q57 -51 123 -51q64 0 128 50l1 -19q-30 -31 -62.5 -53t-68.5 -36zM110 70l9 326
l-52 61q54 31 109 39v-412zM298 587q-32 0 -58.5 14t-42 36.5t-17.5 49.5l37 9q5 -27 27.5 -45t53.5 -18q32 0 54 18t28 45l37 -9q-2 -27 -17.5 -49.5t-42 -36.5t-59.5 -14z" />
    <glyph glyph-name="Uring" unicode="&#x16e;" horiz-adv-x="793" 
d="M410 -9q-120 0 -183.5 54t-63.5 157l7 407l-120 21v24h293v-22q-21 -8 -47.5 -13t-62.5 -8v-412q0 -78 46 -118t136 -40q66 0 109.5 20.5t76.5 66.5l5 481l-117 21v24h280v-22q-22 -8 -49 -13t-62 -8l1 -399q0 -105 -65.5 -163t-183.5 -58zM415 732q-24 0 -42.5 11
t-29.5 29.5t-11 42.5q0 23 11 42t29.5 29.5t42.5 10.5q36 0 59 -23t23 -59q0 -25 -10.5 -43t-29 -29t-42.5 -11zM415 766q21 0 35 14t14 34q0 22 -14 35.5t-35 13.5q-20 0 -34.5 -14t-14.5 -35q0 -20 14.5 -34t34.5 -14z" />
    <glyph glyph-name="uring" unicode="&#x16f;" horiz-adv-x="587" 
d="M479 56l102 5q-7 -22 -19 -37t-27.5 -22t-31.5 -7q-21 0 -40 10.5t-32.5 31.5t-18.5 51l8 308l-51 61q53 31 110 39v-440zM289 -7q-6 0 -11 -0.5t-9 -0.5q-47 0 -86.5 19t-72.5 59l58 32q57 -51 123 -51q64 0 128 50l1 -19q-30 -31 -62.5 -53t-68.5 -36zM110 70l9 326
l-52 61q54 31 109 39v-412zM299 566q-24 0 -42.5 11t-29.5 29.5t-11 42.5q0 23 11 42t29.5 29.5t42.5 10.5q36 0 59 -23t23 -59q0 -25 -10.5 -43t-29 -29t-42.5 -11zM299 600q21 0 35 14t14 34q0 22 -14 35.5t-35 13.5q-20 0 -34.5 -14t-14.5 -35q0 -20 14.5 -34t34.5 -14z
" />
    <glyph glyph-name="Uhungarumlaut" unicode="&#x170;" horiz-adv-x="793" 
d="M411 -9q-120 0 -183.5 54t-63.5 157l7 407l-120 21v24h293v-22q-21 -8 -47.5 -13t-62.5 -8v-412q0 -78 46 -118t136 -40q66 0 109.5 20.5t76.5 66.5l5 481l-117 21v24h280v-22q-22 -8 -49 -13t-62 -8l1 -399q0 -105 -65.5 -163t-183.5 -58zM283 749l98 146l9 4l41 -30
q-29 -35 -60 -70t-63 -68zM442 749l97 146l9 4l42 -30q-29 -35 -60.5 -70t-62.5 -68z" />
    <glyph glyph-name="uhungarumlaut" unicode="&#x171;" horiz-adv-x="587" 
d="M479 56l102 5q-7 -22 -19 -37t-27.5 -22t-31.5 -7q-21 0 -40 10.5t-32.5 31.5t-18.5 51l8 308l-51 61q53 31 110 39v-440zM289 -7q-6 0 -11 -0.5t-9 -0.5q-47 0 -86.5 19t-72.5 59l58 32q57 -51 123 -51q64 0 128 50l1 -19q-30 -31 -62.5 -53t-68.5 -36zM110 70l9 326
l-52 61q54 31 109 39v-412zM166 583l98 146l9 4l41 -30q-29 -35 -60 -70t-63 -68zM325 583l97 146l9 4l42 -30q-29 -35 -60.5 -70t-62.5 -68z" />
    <glyph glyph-name="Uogonek" unicode="&#x172;" horiz-adv-x="793" 
d="M411 -9q-120 0 -183.5 54t-63.5 157l7 407l-120 21v24h293v-22q-21 -8 -47.5 -13t-62.5 -8v-412q0 -78 46 -118t136 -40q66 0 109.5 20.5t76.5 66.5l5 481l-117 21v24h280v-22q-22 -8 -49 -13t-62 -8l1 -399q0 -105 -65.5 -163t-183.5 -58zM454 -206q-29 0 -47 12t-24 31
t0.5 40.5t27.5 41.5l95 100h23l-77 -102q-23 -30 -16.5 -52.5t38.5 -22.5q20 0 38.5 9t33.5 26l8 -19q-16 -30 -42.5 -47t-57.5 -17z" />
    <glyph glyph-name="uogonek" unicode="&#x173;" horiz-adv-x="587" 
d="M479 56l102 5q-7 -22 -19 -37t-27.5 -22t-31.5 -7q-21 0 -40 10.5t-32.5 31.5t-18.5 51l8 308l-51 61q53 31 110 39v-440zM289 -7q-6 0 -11 -0.5t-9 -0.5q-47 0 -86.5 19t-72.5 59l58 32q57 -51 123 -51q64 0 128 50l1 -19q-30 -31 -62.5 -53t-68.5 -36zM110 70l9 326
l-52 61q54 31 109 39v-412zM477 -206q-29 0 -47 12t-24 31t0.5 40.5t27.5 41.5l95 100h23l-77 -102q-23 -30 -16.5 -52.5t38.5 -22.5q20 0 38.5 9t33.5 26l8 -19q-16 -30 -42.5 -47t-57.5 -17z" />
    <glyph glyph-name="Wcircumflex" unicode="&#x174;" horiz-adv-x="1062" 
d="M698 0l-202 643h65l190 -612h-15l195 612h58l-215 -643h-76zM311 0l-210 643h74l189 -612h-15l180 567l35 -51l-179 -547h-74zM157 604q-29 4 -57.5 11t-55.5 17v22h249v-23zM549 604q-32 4 -63.5 11t-62.5 17v22h249v-23zM960 604q-40 4 -79.5 11t-77.5 17v22h242v-23z
M572 882l110 -105l-23 -22l-105 78l-103 -78l-22 22l108 105h35z" />
    <glyph glyph-name="wcircumflex" unicode="&#x175;" horiz-adv-x="777" 
d="M505 -6l-175 482h69l154 -448h-16l162 448h53l-162 -425q-6 -17 -11 -27.5t-13 -16.5t-22.5 -8.5t-38.5 -4.5zM233 -6l-176 482h71l155 -448h-16l124 348l26 -64l-98 -261q-6 -18 -11.5 -28.5t-14 -16t-22.5 -8t-38 -4.5zM103 435q-24 5 -45 13t-40 18v20h191v-20z
M375 435q-22 5 -43.5 12.5t-39.5 18.5v20h188v-20zM727 435q-32 4 -62.5 11.5t-61.5 19.5v20h180v-20zM429 716l110 -105l-23 -22l-105 78l-103 -78l-22 22l108 105h35z" />
    <glyph glyph-name="Ycircumflex" unicode="&#x176;" horiz-adv-x="711" 
d="M348 225l-226 401v17h71l193 -356h-22l196 356h53l1 -14l-234 -404h-32zM201 0v22q32 8 63 13.5t62 8.5l4 237h68v-237l127 -20v-24h-324zM162 601l-120 28v25h296v-20q-42 -14 -86.5 -22.5t-89.5 -10.5zM556 601l-136 28v25h279v-20q-35 -14 -70.5 -22.5t-72.5 -10.5z
M404 882l110 -105l-23 -22l-105 78l-103 -78l-22 22l108 105h35z" />
    <glyph glyph-name="ycircumflex" unicode="&#x177;" horiz-adv-x="505" 
d="M-10 -185l5 48l174 -11q26 34 44.5 63.5t33.5 64.5t32 82l148 414h52l-159 -429q-49 -130 -103 -190t-129 -60q-22 0 -46.5 4.5t-51.5 13.5zM226 9l-170 467h71l155 -452zM103 435q-23 5 -44.5 12.5t-40.5 18.5v20h191v-20zM455 435q-31 4 -62.5 11.5t-61.5 19.5v20h181
v-20zM297 716l110 -105l-23 -22l-105 78l-103 -78l-22 22l108 105h35z" />
    <glyph glyph-name="Ydieresis" unicode="&#x178;" horiz-adv-x="711" 
d="M348 225l-226 401v17h71l193 -356h-22l196 356h53l1 -14l-234 -404h-32zM201 0v22q32 8 63 13.5t62 8.5l4 237h68v-237l127 -20v-24h-324zM162 601l-120 28v25h296v-20q-42 -14 -86.5 -22.5t-89.5 -10.5zM556 601l-136 28v25h279v-20q-35 -14 -70.5 -22.5t-72.5 -10.5z
M308 860q12 -12 20.5 -27t11.5 -32q-10 -12 -26 -21t-32 -11q-11 11 -20.5 26t-13.5 32q12 12 27 21.5t33 11.5zM469 860q12 -12 21 -27t11 -32q-11 -12 -26.5 -21t-31.5 -11q-13 11 -21.5 26.5t-12.5 31.5q12 12 27 21.5t33 11.5z" />
    <glyph glyph-name="Zacute" unicode="&#x179;" horiz-adv-x="685" 
d="M91 0v19l426 593l-351 -7l-28 -150h-24l-4 199h502v-19l-425 -593l374 8l27 153h23l5 -203h-525zM281 732l-13 20l167 139h10l27 -44q-46 -32 -94.5 -60.5t-96.5 -54.5z" />
    <glyph glyph-name="zacute" unicode="&#x17a;" horiz-adv-x="514" 
d="M64 0v17l311 427l-242 -1l-26 -112h-21l-3 155h380v-16l-311 -429l266 2l26 118h20l5 -161h-405zM196 566l-13 20l167 139h10l27 -44q-46 -32 -94.5 -60.5t-96.5 -54.5z" />
    <glyph glyph-name="Zdotaccent" unicode="&#x17b;" horiz-adv-x="685" 
d="M91 0v19l426 593l-351 -7l-28 -150h-24l-4 199h502v-19l-425 -593l374 8l27 153h23l5 -203h-525zM371 867q13 -13 22.5 -30t12.5 -35q-11 -14 -28 -24t-35 -12q-14 12 -24 29t-13 34q12 15 29 24.5t36 13.5z" />
    <glyph glyph-name="zdotaccent" unicode="&#x17c;" horiz-adv-x="514" 
d="M65 0v17l311 427l-242 -1l-26 -112h-21l-3 155h380v-16l-311 -429l266 2l26 118h20l5 -161h-405zM286 701q13 -13 22.5 -30t12.5 -35q-11 -14 -28 -24t-35 -12q-14 12 -24 29t-13 34q12 15 29 24.5t36 13.5z" />
    <glyph glyph-name="Zcaron" unicode="&#x17d;" horiz-adv-x="685" 
d="M91 0v19l426 593l-351 -7l-28 -150h-24l-4 199h502v-19l-425 -593l374 8l27 153h23l5 -203h-525zM337 748l-109 106l22 23l106 -79l103 79l22 -23l-109 -106h-35z" />
    <glyph glyph-name="zcaron" unicode="&#x17e;" horiz-adv-x="514" 
d="M64 0v17l311 427l-242 -1l-26 -112h-21l-3 155h380v-16l-311 -429l266 2l26 118h20l5 -161h-405zM253 582l-109 106l22 23l106 -79l103 79l22 -23l-109 -106h-35z" />
    <glyph glyph-name="longs" unicode="&#x17f;" horiz-adv-x="307" 
d="M44 444v13q20 12 40.5 18.5t44.5 9.5q1 66 13.5 115t36.5 81t58 48t78 16q8 0 17.5 -0.5t18.5 -1.5v-62q-16 2 -32.5 2.5t-31.5 0.5q-18 0 -36.5 -1t-37.5 -4q-12 -23 -18.5 -76t-4.5 -124v-35h-146zM190 464v-426l97 -19v-19h-235v19q14 6 31 11.5t40 10.5l7 423h60z
" />
    <glyph glyph-name="uni018F" unicode="&#x18f;" horiz-adv-x="738" 
d="M352 -8q-84 0 -148.5 41.5t-101 115t-36.5 169.5l12 12h542v-47h-510l25 23q3 -81 31.5 -139t78.5 -90.5t114 -32.5q82 0 154 48q35 53 53 113t18 124q0 87 -28.5 148.5t-83.5 94.5t-133 33q-46 0 -99 -13t-106 -37l-10 26q53 39 115 60t124 21q88 0 153.5 -41
t102 -115.5t36.5 -173.5t-39 -175.5t-107.5 -120.5t-156.5 -44z" />
    <glyph glyph-name="florin" unicode="&#x192;" horiz-adv-x="542" 
d="M106 -148q-26 0 -45 17.5t-22 45.5q42 -1 70 -1t53 3q12 29 19 54.5t12 62.5l68 425q5 32 19.5 59t35 47.5t46 31.5t51.5 11q21 0 38 -7.5t28.5 -22.5t14.5 -34q-43 3 -76 2t-71 -4q-16 -24 -22.5 -44.5t-8.5 -47.5l-71 -437q-7 -45 -27.5 -81t-50 -58t-61.5 -22z
M151 338l4 18q23 10 48 16.5t49 7.5h190l-9 -42h-282z" />
    <glyph glyph-name="Ohorn" unicode="&#x1a0;" horiz-adv-x="771" 
d="M370 -8q-85 0 -149.5 41t-100.5 114t-36 171q0 74 22 137t62 109.5t94 72t118 25.5q44 0 89 -4t83.5 -8t63.5 -4l-26 97l55 14q24 -58 24 -94q0 -28 -16 -42t-48 -10l-111 15l13 6q75 -38 120 -118t45 -182q0 -75 -22 -137t-63 -107.5t-96 -70.5t-121 -25zM377 40
q66 0 117 37t79.5 102.5t28.5 151.5q0 85 -28 147t-79 97t-118 35q-86 0 -152 -49q-72 -104 -72 -240q0 -82 28.5 -146t79.5 -99.5t116 -35.5z" />
    <glyph glyph-name="ohorn" unicode="&#x1a1;" horiz-adv-x="560" 
d="M263 -8q-61 0 -108 30.5t-72.5 85t-25.5 126.5q0 77 27.5 135.5t76.5 91.5t113 33q32 0 66 -3.5t64.5 -7t50.5 -3.5l-27 96l56 13q25 -49 25 -93q0 -25 -12 -37.5t-37 -12.5q-4 0 -9 0.5t-10 1.5l-78 11l12 8q51 -32 79.5 -90t28.5 -127q0 -76 -27.5 -134.5t-77.5 -91
t-115 -32.5zM268 37q45 0 78.5 26t53 72.5t19.5 110.5q0 62 -19 107t-53 69t-80 24q-50 0 -98 -30q-23 -49 -35 -93.5t-12 -82.5q0 -62 18.5 -107.5t52 -70.5t75.5 -25z" />
    <glyph glyph-name="Uhorn" unicode="&#x1af;" horiz-adv-x="797" 
d="M746 765q10 -27 16 -48.5t6 -37.5q0 -34 -29.5 -47t-94.5 -17l1 -403q0 -105 -65.5 -163t-183.5 -58q-120 0 -183.5 54t-63.5 157l7 407l-120 21v24h293v-22q-21 -8 -47.5 -13t-62.5 -8v-412q0 -78 46 -118t136 -40q66 0 109.5 20.5t76.5 66.5l5 481l-117 21v24h239
l-23 97z" />
    <glyph glyph-name="uhorn" unicode="&#x1b0;" horiz-adv-x="594" 
d="M464 56l102 5q-7 -22 -19 -37t-27.5 -22t-31.5 -7q-21 0 -40 10.5t-32.5 31.5t-18.5 51l8 308l-51 66l135 43l-26 96l55 14q11 -27 17 -48.5t6 -37.5q0 -30 -19 -44.5t-58 -19.5v-409zM274 -7q-6 0 -11 -0.5t-9 -0.5q-47 0 -86.5 19t-72.5 59l58 32q57 -51 123 -51
q64 0 128 50l1 -19q-30 -31 -62.5 -53t-68.5 -36zM95 70l9 326l-52 61q55 31 109 39v-412z" />
    <glyph glyph-name="uni01C4" unicode="&#x1c4;" horiz-adv-x="1398" 
d="M417 654q87 0 151 -39.5t99.5 -111.5t35.5 -167q0 -100 -37 -175.5t-103 -118t-153 -42.5h-339v22q23 8 51 13.5t59 8.5l9 565l-119 21v24h346zM469 48q80 35 121.5 105.5t41.5 173.5q0 70 -16 121.5t-46 86.5t-70.5 53t-89.5 18h-184l28 27v-612l-28 27h243zM813 0v19
l426 593l-351 -7l-28 -150h-24l-4 199h502v-19l-425 -593l374 8l27 153h23l5 -203h-525zM1059 748l-109 106l22 23l106 -79l103 79l22 -23l-109 -106h-35z" />
    <glyph glyph-name="uni01C5" unicode="&#x1c5;" horiz-adv-x="1254" 
d="M417 654q87 0 151 -39.5t99.5 -111.5t35.5 -167q0 -100 -37 -175.5t-103 -118t-153 -42.5h-339v22q23 8 51 13.5t59 8.5l9 565l-119 21v24h346zM469 48q80 35 121.5 105.5t41.5 173.5q0 70 -16 121.5t-46 86.5t-70.5 53t-89.5 18h-184l28 27v-612l-28 27h243zM812 0v17
l311 427l-242 -1l-26 -112h-21l-3 155h380v-16l-311 -429l266 2l26 118h20l5 -161h-405zM1001 582l-109 106l22 23l106 -79l103 79l22 -23l-109 -106h-35z" />
    <glyph glyph-name="uni01C6" unicode="&#x1c6;" horiz-adv-x="1059" 
d="M274 -8q-60 0 -105.5 30.5t-71 85t-25.5 127.5q0 122 66.5 190.5t179.5 68.5q30 0 62 -5t67 -15l-12 -55q-73 27 -135 27q-38 0 -73 -10t-69 -30l25 20q-23 -37 -35.5 -85t-12.5 -101q0 -61 18.5 -103.5t51.5 -64.5t73 -22q30 0 62.5 12.5t66.5 37.5v-21q-26 -25 -57 -48
t-67 -39h-4.5h-4.5zM489 -5q-20 0 -39 10.5t-32.5 31.5t-18.5 51l9 554l-48 66q23 14 48.5 23t57.5 14v-689l101 5q-8 -22 -19.5 -37t-27 -22t-31.5 -7zM430 759l-1 1h1v-1zM618 0v17l311 427l-242 -1l-26 -112h-21l-3 155h380v-16l-311 -429l266 2l26 118h20l5 -161h-405z
M807 582l-109 106l22 23l106 -79l103 79l22 -23l-109 -106h-35z" />
    <glyph glyph-name="uni01C7" unicode="&#x1c7;" horiz-adv-x="1124" 
d="M550 261h22v-261h-501v22q28 8 55.5 13.5t54.5 8.5l9 565l-119 21v24h307v-22q-27 -7 -58.5 -12.5t-65.5 -8.5v-563h261zM672 0l9 58q26 -8 49.5 -11.5t43.5 -3.5q43 0 71 9.5t47 29t34 52.5l-7 -39l4 514l-146 21v24h315v-22q-21 -7 -46.5 -12.5t-57.5 -8.5v-399
q0 -220 -223 -220q-21 0 -44.5 2.5t-48.5 5.5zM672 0v217h22l46 -217h-68z" />
    <glyph glyph-name="uni01C8" unicode="&#x1c8;" horiz-adv-x="865" 
d="M550 261h22v-261h-501v22q28 8 55.5 13.5t54.5 8.5l9 565l-119 21v24h307v-22q-27 -7 -58.5 -12.5t-65.5 -8.5v-563h261zM634 -200l-7 12l88 129l10 455l-52 61q25 15 52 25t57 14v-491q0 -69 -38.5 -118.5t-109.5 -86.5zM763 701q13 -13 22.5 -30t12.5 -35
q-11 -14 -28 -24t-35 -12q-14 12 -24 29t-13 34q12 15 29 24.5t36 13.5z" />
    <glyph glyph-name="uni01C9" unicode="&#x1c9;" horiz-adv-x="534" 
d="M49 0v19q14 6 31.5 11.5t42.5 10.5l10 601l-52 65q25 14 52 24t58 14v-707l79 -19v-19h-221zM305 -200l-7 12l88 129l10 455l-52 61q25 15 52 25t57 14v-491q0 -69 -38.5 -118.5t-109.5 -86.5zM434 701q13 -13 22.5 -30t12.5 -35q-11 -14 -28 -24t-35 -12q-14 12 -24 29
t-13 34q12 15 29 24.5t36 13.5z" />
    <glyph glyph-name="uni01CA" unicode="&#x1ca;" horiz-adv-x="1318" 
d="M511 654h281v-22q-29 -8 -56 -13.5t-54 -7.5l-1 -611h-69l-391 584l16 5v-545l126 -20v-24h-292v22q28 8 55.5 13.5t54.5 8.5l9 565l-119 21v24h186l394 -589l-15 -4l-10 550l-115 19v24zM863 0l9 58q26 -8 49.5 -11.5t43.5 -3.5q43 0 71 9.5t47 29t34 52.5l-7 -39l4 514
l-146 21v24h315v-22q-21 -7 -46.5 -12.5t-57.5 -8.5v-399q0 -220 -223 -220q-21 0 -44.5 2.5t-48.5 5.5zM863 0v217h22l46 -217h-68z" />
    <glyph glyph-name="uni01CB" unicode="&#x1cb;" horiz-adv-x="1062" 
d="M511 654h281v-22q-29 -8 -56 -13.5t-54 -7.5l-1 -611h-69l-391 584l16 5v-545l126 -20v-24h-292v22q28 8 55.5 13.5t54.5 8.5l9 565l-119 21v24h186l394 -589l-15 -4l-10 550l-115 19v24zM829 -200l-7 12l88 129l10 455l-52 61q25 15 52 25t57 14v-491
q0 -69 -38.5 -118.5t-109.5 -86.5zM958 701q13 -13 22.5 -30t12.5 -35q-11 -14 -28 -24t-35 -12q-14 12 -24 29t-13 34q12 15 29 24.5t36 13.5z" />
    <glyph glyph-name="uni01CC" unicode="&#x1cc;" horiz-adv-x="834" 
d="M53 0v19q13 6 30.5 11.5t42.5 10.5l10 355l-51 61q48 29 102 39l7 -93v-365l79 -19v-19h-220zM354 0v19q15 6 32.5 11.5t41.5 10.5l10 346l57 30v-379l81 -19v-19h-222zM188 384l-2 20q30 31 62.5 53t68.5 36q5 0 10.5 0.5t9.5 0.5q46 0 85.5 -18.5t72.5 -58.5l-57 -30
q-56 50 -120 50t-130 -53zM602 -200l-7 12l88 129l10 455l-52 61q25 15 52 25t57 14v-491q0 -69 -38.5 -118.5t-109.5 -86.5zM731 701q13 -13 22.5 -30t12.5 -35q-11 -14 -28 -24t-35 -12q-14 12 -24 29t-13 34q12 15 29 24.5t36 13.5z" />
    <glyph glyph-name="uni01CD" unicode="&#x1cd;" horiz-adv-x="736" 
d="M649 40q19 -4 36.5 -8.5t35.5 -9.5v-22h-254v23l107 18l-208 586h18l-215 -585q32 -4 62.5 -8.5t61.5 -11.5v-22h-249v23l68 19l233 612h78zM215 223v46h327v-46h-327zM363 748l-109 106l22 23l106 -79l103 79l22 -23l-109 -106h-35z" />
    <glyph glyph-name="uni01CE" unicode="&#x1ce;" horiz-adv-x="527" 
d="M447 -5q-29 0 -54.5 22.5t-34.5 66.5l10 308q-65 55 -161 55q-20 0 -39.5 -2.5t-38.5 -7.5l33 18l-17 -140q-27 7 -42 24t-15 41q0 31 22 57.5t59.5 42t84.5 15.5q50 0 94.5 -20.5t77.5 -57.5v-357l102 4q-5 -23 -17.5 -38.5t-29.5 -23t-34 -7.5zM219 -10q-65 1 -104 37
t-39 93q0 29 12.5 50t45.5 38.5t94 35.5t155 39v-41l-250 -52l22 12q-6 -15 -8 -32.5t-2 -32.5q0 -42 21 -65.5t64 -23.5q31 0 67 13.5t77 41.5v-17q-35 -33 -71.5 -56.5t-83.5 -39.5zM253 582l-109 106l22 23l106 -79l103 79l22 -23l-109 -106h-35z" />
    <glyph glyph-name="uni01CF" unicode="&#x1cf;" horiz-adv-x="408" 
d="M71 0v22q28 8 55.5 13.5t54.5 8.5l9 565l-119 21v24h294v-22q-25 -7 -53 -12.5t-58 -8.5v-567l111 -20v-24h-294zM201 748l-109 106l22 23l106 -79l103 79l22 -23l-109 -106h-35z" />
    <glyph glyph-name="uni01D0" unicode="&#x1d0;" horiz-adv-x="292" 
d="M53 0v19q15 7 33.5 12.5t39.5 9.5l10 355l-51 61q25 15 51.5 25t57.5 14v-458l79 -19v-19h-220zM141 582l-109 106l22 23l106 -79l103 79l22 -23l-109 -106h-35z" />
    <glyph glyph-name="uni01D1" unicode="&#x1d1;" horiz-adv-x="755" 
d="M385 -8q-85 0 -149.5 41t-100.5 114t-36 171q0 100 38.5 177.5t106.5 122t154 44.5q85 0 150.5 -41.5t102 -115t36.5 -170.5q0 -100 -38 -177.5t-106.5 -121.5t-157.5 -44zM392 40q66 0 116.5 36.5t79.5 102t29 152.5q0 84 -27.5 146.5t-78.5 97.5t-119 35
q-45 0 -89 -15.5t-80 -45.5l26 29q-81 -121 -81 -258q0 -82 28.5 -145.5t79.5 -99t116 -35.5zM373 748l-109 106l22 23l106 -79l103 79l22 -23l-109 -106h-35z" />
    <glyph glyph-name="uni01D2" unicode="&#x1d2;" horiz-adv-x="540" 
d="M278 -8q-62 0 -108.5 30.5t-72 85t-25.5 126.5q0 78 27.5 136t76.5 91t113 33q62 0 109.5 -30.5t73.5 -86t26 -127.5q0 -77 -27.5 -135t-77.5 -90.5t-115 -32.5zM283 37q45 0 78.5 25.5t53 72.5t19.5 111q0 62 -19 107t-53 69t-80 24q-28 0 -59.5 -10t-66.5 -31l34 27
q-26 -45 -39.5 -92.5t-13.5 -99.5q0 -62 18.5 -107.5t52 -70.5t75.5 -25zM267 582l-109 106l22 23l106 -79l103 79l22 -23l-109 -106h-35z" />
    <glyph glyph-name="uni01D3" unicode="&#x1d3;" horiz-adv-x="793" 
d="M411 -9q-120 0 -183.5 54t-63.5 157l7 407l-120 21v24h293v-22q-21 -8 -47.5 -13t-62.5 -8v-412q0 -78 46 -118t136 -40q66 0 109.5 20.5t76.5 66.5l5 481l-117 21v24h280v-22q-22 -8 -49 -13t-62 -8l1 -399q0 -105 -65.5 -163t-183.5 -58zM398 748l-109 106l22 23
l106 -79l103 79l22 -23l-109 -106h-35z" />
    <glyph glyph-name="uni01D4" unicode="&#x1d4;" horiz-adv-x="587" 
d="M479 56l102 5q-7 -22 -19 -37t-27.5 -22t-31.5 -7q-21 0 -40 10.5t-32.5 31.5t-18.5 51l8 308l-51 61q53 31 110 39v-440zM289 -7q-6 0 -11 -0.5t-9 -0.5q-47 0 -86.5 19t-72.5 59l58 32q57 -51 123 -51q64 0 128 50l1 -19q-30 -31 -62.5 -53t-68.5 -36zM110 70l9 326
l-52 61q54 31 109 39v-412zM281 582l-109 106l22 23l106 -79l103 79l22 -23l-109 -106h-35z" />
    <glyph glyph-name="uni01D5" unicode="&#x1d5;" horiz-adv-x="793" 
d="M411 -9q-120 0 -183.5 54t-63.5 157l7 407l-120 21v24h293v-22q-21 -8 -47.5 -13t-62.5 -8v-412q0 -78 46 -118t136 -40q66 0 109.5 20.5t76.5 66.5l5 481l-117 21v24h280v-22q-22 -8 -49 -13t-62 -8l1 -399q0 -105 -65.5 -163t-183.5 -58zM349 810q13 -11 21.5 -26
t10.5 -31q-9 -11 -25 -20t-32 -11q-12 11 -20.5 25.5t-13.5 30.5q12 12 27.5 21t31.5 11zM512 810q12 -11 21.5 -26t11.5 -31q-11 -11 -26 -20t-31 -11q-12 11 -21 25.5t-13 30.5q11 12 26.5 21t31.5 11zM290 873v44h255v-44h-255z" />
    <glyph glyph-name="uni01D6" unicode="&#x1d6;" horiz-adv-x="586" 
d="M479 56l102 5q-7 -22 -19 -37t-27.5 -22t-31.5 -7q-21 0 -40 10.5t-32.5 31.5t-18.5 51l8 308l-51 61q53 31 110 39v-440zM289 -7q-6 0 -11 -0.5t-9 -0.5q-47 0 -86.5 19t-72.5 59l58 32q57 -51 123 -51q64 0 128 50l1 -19q-30 -31 -62.5 -53t-68.5 -36zM110 70l9 326
l-52 61q54 31 109 39v-412zM232 644q13 -11 21.5 -26t10.5 -31q-9 -11 -25 -20t-32 -11q-12 11 -20.5 25.5t-13.5 30.5q12 12 27.5 21t31.5 11zM395 644q12 -11 21.5 -26t11.5 -31q-11 -11 -26 -20t-31 -11q-12 11 -21 25.5t-13 30.5q11 12 26.5 21t31.5 11zM173 707v44h255
v-44h-255z" />
    <glyph glyph-name="uni01D7" unicode="&#x1d7;" horiz-adv-x="793" 
d="M411 -9q-120 0 -183.5 54t-63.5 157l7 407l-120 21v24h293v-22q-21 -8 -47.5 -13t-62.5 -8v-412q0 -78 46 -118t136 -40q66 0 109.5 20.5t76.5 66.5l5 481l-117 21v24h280v-22q-22 -8 -49 -13t-62 -8l1 -399q0 -105 -65.5 -163t-183.5 -58zM311 844l-7 25l189 86l9 -3
l13 -48q-50 -18 -101.5 -32.5t-102.5 -27.5zM314 725q-12 11 -21.5 25.5t-12.5 29.5q11 12 26.5 21.5t32.5 11.5q13 -11 21 -26t10 -31q-10 -11 -25.5 -20t-30.5 -11zM477 725q-12 11 -21 25.5t-12 29.5q11 12 26.5 21.5t31.5 11.5q12 -11 21 -26t11 -31q-10 -11 -25.5 -20
t-31.5 -11z" />
    <glyph glyph-name="uni01D8" unicode="&#x1d8;" horiz-adv-x="587" 
d="M479 56l102 5q-7 -22 -19 -37t-27.5 -22t-31.5 -7q-21 0 -40 10.5t-32.5 31.5t-18.5 51l8 308l-51 61q53 31 110 39v-440zM289 -7q-6 0 -11 -0.5t-9 -0.5q-47 0 -86.5 19t-72.5 59l58 32q57 -51 123 -51q64 0 128 50l1 -19q-30 -31 -62.5 -53t-68.5 -36zM110 70l9 326
l-52 61q54 31 109 39v-412zM195 678l-7 25l189 86l9 -3l13 -48q-50 -18 -101.5 -32.5t-102.5 -27.5zM198 559q-12 11 -21.5 25.5t-12.5 29.5q11 12 26.5 21.5t32.5 11.5q13 -11 21 -26t10 -31q-10 -11 -25.5 -20t-30.5 -11zM361 559q-12 11 -21 25.5t-12 29.5
q11 12 26.5 21.5t31.5 11.5q12 -11 21 -26t11 -31q-10 -11 -25.5 -20t-31.5 -11z" />
    <glyph glyph-name="uni01D9" unicode="&#x1d9;" horiz-adv-x="793" 
d="M410 -9q-120 0 -183.5 54t-63.5 157l7 407l-120 21v24h293v-22q-21 -8 -47.5 -13t-62.5 -8v-412q0 -78 46 -118t136 -40q66 0 109.5 20.5t76.5 66.5l5 481l-117 21v24h280v-22q-22 -8 -49 -13t-62 -8l1 -399q0 -105 -65.5 -163t-183.5 -58zM350 812q13 -12 21.5 -27
t11.5 -30q-11 -12 -26 -21t-32 -11q-12 11 -21 25.5t-12 30.5q11 12 26.5 21t31.5 12zM514 812q12 -12 21 -27t11 -30q-10 -12 -25.5 -21t-31.5 -11q-13 11 -21.5 25.5t-12.5 30.5q11 12 27 21t32 12zM516 938l19 -20l-100 -83h-32l-101 83l20 20l97 -59z" />
    <glyph glyph-name="uni01DA" unicode="&#x1da;" horiz-adv-x="587" 
d="M479 56l102 5q-7 -22 -19 -37t-27.5 -22t-31.5 -7q-21 0 -40 10.5t-32.5 31.5t-18.5 51l8 308l-51 61q53 31 110 39v-440zM289 -7q-6 0 -11 -0.5t-9 -0.5q-47 0 -86.5 19t-72.5 59l58 32q57 -51 123 -51q64 0 128 50l1 -19q-30 -31 -62.5 -53t-68.5 -36zM110 70l9 326
l-52 61q54 31 109 39v-412zM234 646q13 -12 21.5 -27t11.5 -30q-11 -12 -26 -21t-32 -11q-12 11 -21 25.5t-12 30.5q11 12 26.5 21t31.5 12zM398 646q12 -12 21 -27t11 -30q-10 -12 -25.5 -21t-31.5 -11q-13 11 -21.5 25.5t-12.5 30.5q11 12 27 21t32 12zM400 772l19 -20
l-100 -83h-32l-101 83l20 20l97 -59z" />
    <glyph glyph-name="uni01DB" unicode="&#x1db;" horiz-adv-x="793" 
d="M411 -9q-120 0 -183.5 54t-63.5 157l7 407l-120 21v24h293v-22q-21 -8 -47.5 -13t-62.5 -8v-412q0 -78 46 -118t136 -40q66 0 109.5 20.5t76.5 66.5l5 481l-117 21v24h280v-22q-22 -8 -49 -13t-62 -8l1 -399q0 -105 -65.5 -163t-183.5 -58zM520 844q-51 13 -102.5 27.5
t-101.5 32.5l13 48l9 3l189 -86zM331 725q-12 11 -21.5 25.5t-12.5 29.5q11 12 26.5 21.5t32.5 11.5q12 -11 20.5 -26t10.5 -31q-10 -11 -25.5 -20t-30.5 -11zM494 725q-13 11 -21.5 25.5t-11.5 29.5q11 12 26.5 21.5t31.5 11.5q12 -11 21 -26t11 -31q-10 -11 -26 -20
t-31 -11z" />
    <glyph glyph-name="uni01DC" unicode="&#x1dc;" horiz-adv-x="587" 
d="M479 56l102 5q-7 -22 -19 -37t-27.5 -22t-31.5 -7q-21 0 -40 10.5t-32.5 31.5t-18.5 51l8 308l-51 61q53 31 110 39v-440zM289 -7q-6 0 -11 -0.5t-9 -0.5q-47 0 -86.5 19t-72.5 59l58 32q57 -51 123 -51q64 0 128 50l1 -19q-30 -31 -62.5 -53t-68.5 -36zM110 70l9 326
l-52 61q54 31 109 39v-412zM403 678q-51 13 -102.5 27.5t-101.5 32.5l13 48l9 3l189 -86zM214 559q-12 11 -21.5 25.5t-12.5 29.5q11 12 26.5 21.5t32.5 11.5q12 -11 20.5 -26t10.5 -31q-10 -11 -25.5 -20t-30.5 -11zM377 559q-13 11 -21.5 25.5t-11.5 29.5q11 12 26.5 21.5
t31.5 11.5q12 -11 21 -26t11 -31q-10 -11 -26 -20t-31 -11z" />
    <glyph glyph-name="Gcaron" unicode="&#x1e6;" horiz-adv-x="749" 
d="M429 -7q-159 0 -245 85.5t-86 246.5q0 106 41.5 181.5t120.5 116.5t188 41q37 0 80.5 -5.5t88.5 -17.5l-17 -58q-42 13 -84 19t-85 6q-56 0 -111 -11.5t-107 -34.5l41 22q-42 -58 -64 -123.5t-22 -139.5q0 -134 71 -206t198 -72q37 0 78 6.5t86 20.5l16 -53
q-52 -12 -99 -18t-89 -6zM547 17l4 264l-143 19v25h297v-21q-19 -7 -41.5 -13t-46.5 -9v-265h-70zM593 450l-50 191h74v-191h-24zM423 748l-109 106l22 23l106 -79l103 79l22 -23l-109 -106h-35z" />
    <glyph glyph-name="gcaron" unicode="&#x1e7;" horiz-adv-x="544" 
d="M264 -207q-97 0 -153.5 39.5t-56.5 110.5q21 35 53.5 61t74.5 42h16q-45 -35 -62 -60.5t-17 -47.5q0 -43 42.5 -69.5t114.5 -26.5q80 0 129 31.5t49 82.5q0 18 -8 38.5t-24 37.5h-251q-23 18 -34.5 40.5t-11.5 42.5q0 24 14.5 46.5t39.5 38.5l-2 -109h229q31 0 57 -16
t41 -43.5t15 -63.5q0 -52 -32.5 -92t-90 -61.5t-132.5 -21.5zM273 167q-91 0 -142 41.5t-51 113.5q0 53 25 92t72 60t111 21q91 0 144 -42t53 -115q0 -52 -26.5 -90.5t-73.5 -59.5t-112 -21zM277 211q67 0 105.5 33.5t38.5 89.5q0 54 -37.5 84t-101.5 30q-24 0 -51 -4
t-52 -12q-18 -31 -26.5 -59.5t-8.5 -49.5q0 -51 36 -81.5t97 -30.5zM420 441q-8 17 -13 34t-5 31q0 37 23 56.5t66 19.5q13 0 27.5 -2t32.5 -8l-7 -46h-101l-16 -85h-7zM266 593l-109 106l22 23l106 -79l103 79l22 -23l-109 -106h-35z" />
    <glyph glyph-name="uni01EA" unicode="&#x1ea;" horiz-adv-x="755" 
d="M385 -8q-85 0 -149.5 41t-100.5 114t-36 171q0 100 38.5 177.5t106.5 122t154 44.5q85 0 150.5 -41.5t102 -115t36.5 -170.5q0 -100 -38 -177.5t-106.5 -121.5t-157.5 -44zM392 40q66 0 116.5 36.5t79.5 102t29 152.5q0 84 -27.5 146.5t-78.5 97.5t-119 35
q-45 0 -89 -15.5t-80 -45.5l26 29q-81 -121 -81 -258q0 -82 28.5 -145.5t79.5 -99t116 -35.5zM469 -189q-29 0 -47 12t-24 31t0.5 40.5t27.5 41.5l95 100h23l-77 -102q-23 -30 -16.5 -52.5t38.5 -22.5q20 0 38.5 9t33.5 26l8 -19q-16 -30 -42.5 -47t-57.5 -17z" />
    <glyph glyph-name="uni01EB" unicode="&#x1eb;" horiz-adv-x="540" 
d="M278 -8q-62 0 -108.5 30.5t-72 85t-25.5 126.5q0 78 27.5 136t76.5 91t113 33q62 0 109.5 -30.5t73.5 -86t26 -127.5q0 -77 -27.5 -135t-77.5 -90.5t-115 -32.5zM283 37q45 0 78.5 25.5t53 72.5t19.5 111q0 62 -19 107t-53 69t-80 24q-28 0 -59.5 -10t-66.5 -31l34 27
q-26 -45 -39.5 -92.5t-13.5 -99.5q0 -62 18.5 -107.5t52 -70.5t75.5 -25zM306 -206q-29 0 -47 12t-24 31t0.5 40.5t27.5 41.5l95 100h23l-77 -102q-23 -30 -16.5 -52.5t38.5 -22.5q20 0 38.5 9t33.5 26l8 -19q-16 -30 -42.5 -47t-57.5 -17z" />
    <glyph glyph-name="Aringacute" unicode="&#x1fa;" horiz-adv-x="736" 
d="M649 40q19 -4 36.5 -8.5t35.5 -9.5v-22h-254v23l107 18l-208 586h18l-215 -585q32 -4 62.5 -8.5t61.5 -11.5v-22h-249v23l68 19l233 612h78zM215 223v46h327v-46h-327zM380 620q-24 0 -42.5 11t-29.5 29.5t-11 42.5q0 23 11 42t29.5 29.5t42.5 10.5q36 0 59 -23t23 -59
q0 -25 -10.5 -43t-29 -29t-42.5 -11zM380 654q21 0 35 14t14 34q0 22 -14 35.5t-35 13.5q-20 0 -34.5 -14t-14.5 -35q0 -20 14.5 -34t34.5 -14zM307 797l-13 20l167 139h10l27 -44q-46 -32 -94.5 -60.5t-96.5 -54.5z" />
    <glyph glyph-name="aringacute" unicode="&#x1fb;" horiz-adv-x="527" 
d="M447 -5q-29 0 -54.5 22.5t-34.5 66.5l10 308q-65 55 -161 55q-20 0 -39.5 -2.5t-38.5 -7.5l33 18l-17 -140q-27 7 -42 24t-15 41q0 31 22 57.5t59.5 42t84.5 15.5q50 0 94.5 -20.5t77.5 -57.5v-357l102 4q-5 -23 -17.5 -38.5t-29.5 -23t-34 -7.5zM219 -10q-65 1 -104 37
t-39 93q0 29 12.5 50t45.5 38.5t94 35.5t155 39v-41l-250 -52l22 12q-6 -15 -8 -32.5t-2 -32.5q0 -42 21 -65.5t64 -23.5q31 0 67 13.5t77 41.5v-17q-35 -33 -71.5 -56.5t-83.5 -39.5zM271 566q-24 0 -42.5 11t-29.5 29.5t-11 42.5q0 23 11 42t29.5 29.5t42.5 10.5
q36 0 59 -23t23 -59q0 -25 -10.5 -43t-29 -29t-42.5 -11zM271 600q21 0 35 14t14 34q0 22 -14 35.5t-35 13.5q-20 0 -34.5 -14t-14.5 -35q0 -20 14.5 -34t34.5 -14zM197 743l-13 20l167 139h10l27 -44q-46 -32 -94.5 -60.5t-96.5 -54.5z" />
    <glyph glyph-name="AEacute" unicode="&#x1fc;" horiz-adv-x="985" 
d="M874 214h22v-214h-447v23l113 18l-152 590l18 -1l-277 -589q32 -4 61.5 -9t58.5 -10v-22h-227v23l51 20l274 569l-109 18v24h607v-194h-22l-34 146h-360l21 27l163 -612l-34 27h238zM751 228l-39 111l39 110h20v-221h-20zM219 223l1 46h324v-46h-325zM519 315v48h237v-48
h-237zM505 732l-13 20l167 139h10l27 -44q-46 -32 -94.5 -60.5t-96.5 -54.5z" />
    <glyph glyph-name="aeacute" unicode="&#x1fd;" horiz-adv-x="796" 
d="M563 -7q-96 0 -148.5 68.5t-52.5 193.5q0 118 55 178t162 60q50 0 88 -22t59.5 -62t20.5 -92l-4 -63q-56 -9 -106.5 -15t-106.5 -9t-133 -3v39l288 3l5 48q0 59 -33.5 94.5t-90.5 35.5q-25 0 -55.5 -8.5t-59.5 -22.5q-13 -35 -21.5 -76t-8.5 -82q0 -104 46 -158.5
t124 -54.5q33 0 71 10t79 29l5 -11q-87 -80 -183 -80zM229 -9q-73 0 -112 33.5t-39 93.5q0 30 12.5 51.5t45.5 39t93 35t155 38.5v-39l-234 -51q-4 -16 -6 -30t-2 -27q0 -43 22.5 -66.5t64.5 -23.5q39 0 84 20t95 60l2 -20q-41 -41 -84.5 -68.5t-96.5 -45.5zM391 373
q-75 76 -181 76q-39 0 -80 -12l31 18l-17 -139q-27 7 -41 24t-14 40q0 33 22 58.5t58.5 40t82.5 14.5q54 0 102.5 -23t83.5 -67zM334 566l-13 20l167 139h10l27 -44q-46 -32 -94.5 -60.5t-96.5 -54.5z" />
    <glyph glyph-name="Oslashacute" unicode="&#x1fe;" horiz-adv-x="759" 
d="M274 50l-64 -134l-40 16l68 137zM388 -8q-85 0 -149.5 41t-101 114t-36.5 171q0 100 38.5 177.5t106 122t155.5 44.5q84 0 150 -41.5t102.5 -115t36.5 -170.5q0 -100 -38 -177.5t-106.5 -121.5t-157.5 -44zM394 40q67 0 117.5 36.5t79.5 102t29 152.5q0 84 -28 146.5
t-78.5 97.5t-119.5 35q-39 0 -78.5 -12.5t-72.5 -36.5q-72 -114 -72 -241q0 -82 28.5 -145.5t78.5 -99t116 -35.5zM498 614l58 120l39 -15l-59 -123zM238 69l260 545l38 -18l-262 -546zM308 732l-13 20l167 139h10l27 -44q-46 -32 -94.5 -60.5t-96.5 -54.5z" />
    <glyph glyph-name="oslashacute" unicode="&#x1ff;" horiz-adv-x="549" 
d="M219 29l-60 -141l-38 13l61 146zM283 -8q-63 0 -109.5 30.5t-72.5 85t-26 126.5q0 78 28 136t77.5 91t113.5 33q62 0 109.5 -30.5t74 -86t26.5 -127.5q0 -77 -28 -135t-78 -90.5t-115 -32.5zM288 37q45 0 79 25.5t53 72t19 111.5q0 62 -18.5 107t-53.5 69t-80 24
q-52 0 -101 -30q-24 -41 -35.5 -86t-11.5 -90q0 -62 19.5 -107.5t52.5 -70.5t77 -25zM356 458l59 140l39 -13l-61 -145zM182 47l174 411l37 -18l-174 -411zM216 567l-13 20l167 139h10l27 -44q-46 -32 -94.5 -60.5t-96.5 -54.5z" />
    <glyph glyph-name="uni0200" unicode="&#x200;" horiz-adv-x="736" 
d="M649 40q19 -4 36.5 -8.5t35.5 -9.5v-22h-254v23l107 18l-208 586h18l-215 -585q32 -4 62.5 -8.5t61.5 -11.5v-22h-249v23l68 19l233 612h78zM215 223v46h327v-46h-327zM362 733q-38 33 -74 66.5t-70 69.5l32 30l8 -1l121 -151zM485 733q-38 33 -74 66.5t-70 69.5l32 30
l8 -1l120 -151z" />
    <glyph glyph-name="uni0201" unicode="&#x201;" horiz-adv-x="527" 
d="M447 -5q-29 0 -54.5 22.5t-34.5 66.5l10 308q-65 55 -161 55q-20 0 -39.5 -2.5t-38.5 -7.5l33 18l-17 -140q-27 7 -42 24t-15 41q0 31 22 57.5t59.5 42t84.5 15.5q50 0 94.5 -20.5t77.5 -57.5v-357l102 4q-5 -23 -17.5 -38.5t-29.5 -23t-34 -7.5zM219 -10q-65 1 -104 37
t-39 93q0 29 12.5 50t45.5 38.5t94 35.5t155 39v-41l-250 -52l22 12q-6 -15 -8 -32.5t-2 -32.5q0 -42 21 -65.5t64 -23.5q31 0 67 13.5t77 41.5v-17q-35 -33 -71.5 -56.5t-83.5 -39.5zM253 567q-38 33 -74 66.5t-70 69.5l32 30l8 -1l121 -151zM376 567q-38 33 -74 66.5
t-70 69.5l32 30l8 -1l120 -151z" />
    <glyph glyph-name="uni0202" unicode="&#x202;" horiz-adv-x="736" 
d="M649 40q19 -4 36.5 -8.5t35.5 -9.5v-22h-254v23l107 18l-208 586h18l-215 -585q32 -4 62.5 -8.5t61.5 -11.5v-22h-249v23l68 19l233 612h78zM215 223v46h327v-46h-327zM381 862q33 0 59 -13.5t41.5 -36t18.5 -50.5l-37 -9q-5 27 -27 45.5t-55 18.5q-32 0 -54 -18.5
t-27 -45.5l-37 9q2 28 17.5 50.5t42 36t58.5 13.5z" />
    <glyph glyph-name="uni0203" unicode="&#x203;" horiz-adv-x="527" 
d="M447 -5q-29 0 -54.5 22.5t-34.5 66.5l10 308q-65 55 -161 55q-20 0 -39.5 -2.5t-38.5 -7.5l33 18l-17 -140q-27 7 -42 24t-15 41q0 31 22 57.5t59.5 42t84.5 15.5q50 0 94.5 -20.5t77.5 -57.5v-357l102 4q-5 -23 -17.5 -38.5t-29.5 -23t-34 -7.5zM219 -10q-65 1 -104 37
t-39 93q0 29 12.5 50t45.5 38.5t94 35.5t155 39v-41l-250 -52l22 12q-6 -15 -8 -32.5t-2 -32.5q0 -42 21 -65.5t64 -23.5q31 0 67 13.5t77 41.5v-17q-35 -33 -71.5 -56.5t-83.5 -39.5zM271 696q33 0 59 -13.5t41.5 -36t18.5 -50.5l-37 -9q-5 27 -27 45.5t-55 18.5
q-32 0 -54 -18.5t-27 -45.5l-37 9q2 28 17.5 50.5t42 36t58.5 13.5z" />
    <glyph glyph-name="uni0204" unicode="&#x204;" horiz-adv-x="718" 
d="M597 215h23v-215h-549v22q28 8 55.5 13.5t54.5 8.5l9 565l-119 21v24h539v-194h-23l-34 146h-327l28 28v-273h200l29 87h21v-222h-21l-30 87h-199v-293l-28 28h336zM363 733q-38 33 -74 66.5t-70 69.5l32 30l8 -1l121 -151zM486 733q-38 33 -74 66.5t-70 69.5l32 30l8 -1
l120 -151z" />
    <glyph glyph-name="uni0205" unicode="&#x205;" horiz-adv-x="507" 
d="M274 -7q-61 0 -106.5 30.5t-70.5 85.5t-25 126q0 75 26.5 133.5t75.5 92t113 33.5q51 0 89.5 -22.5t60.5 -62.5t22 -92l-3 -65q-55 -9 -107 -14.5t-110 -8t-131 -4.5v42l289 5l2 45q0 58 -33 93.5t-87 35.5q-24 0 -50 -8t-49 -22q-24 -38 -35.5 -82t-11.5 -88
q0 -95 46 -147.5t124 -52.5q67 0 150 41l4 -13q-41 -41 -88 -61t-95 -20zM262 567q-38 33 -74 66.5t-70 69.5l32 30l8 -1l121 -151zM385 567q-38 33 -74 66.5t-70 69.5l32 30l8 -1l120 -151z" />
    <glyph glyph-name="uni0206" unicode="&#x206;" horiz-adv-x="718" 
d="M597 215h23v-215h-549v22q28 8 55.5 13.5t54.5 8.5l9 565l-119 21v24h539v-194h-23l-34 146h-327l28 28v-273h200l29 87h21v-222h-21l-30 87h-199v-293l-28 28h336zM382 862q33 0 59 -13.5t41.5 -36t18.5 -50.5l-37 -9q-5 27 -27 45.5t-55 18.5q-32 0 -54 -18.5
t-27 -45.5l-37 9q2 28 17.5 50.5t42 36t58.5 13.5z" />
    <glyph glyph-name="uni0207" unicode="&#x207;" horiz-adv-x="507" 
d="M274 -7q-61 0 -106.5 30.5t-70.5 85.5t-25 126q0 75 26.5 133.5t75.5 92t113 33.5q51 0 89.5 -22.5t60.5 -62.5t22 -92l-3 -65q-55 -9 -107 -14.5t-110 -8t-131 -4.5v42l289 5l2 45q0 58 -33 93.5t-87 35.5q-24 0 -50 -8t-49 -22q-24 -38 -35.5 -82t-11.5 -88
q0 -95 46 -147.5t124 -52.5q67 0 150 41l4 -13q-41 -41 -88 -61t-95 -20zM282 696q33 0 59 -13.5t41.5 -36t18.5 -50.5l-37 -9q-5 27 -27 45.5t-55 18.5q-32 0 -54 -18.5t-27 -45.5l-37 9q2 28 17.5 50.5t42 36t58.5 13.5z" />
    <glyph glyph-name="uni0208" unicode="&#x208;" horiz-adv-x="408" 
d="M70 0v22q28 8 55.5 13.5t54.5 8.5l9 565l-119 21v24h294v-22q-25 -7 -53 -12.5t-58 -8.5v-567l111 -20v-24h-294zM200 733q-38 33 -74 66.5t-70 69.5l32 30l8 -1l121 -151zM323 733q-38 33 -74 66.5t-70 69.5l32 30l8 -1l120 -151z" />
    <glyph glyph-name="uni0209" unicode="&#x209;" horiz-adv-x="291" 
d="M52 0v19q15 7 33.5 12.5t39.5 9.5l10 355l-51 61q25 15 51.5 25t57.5 14v-458l79 -19v-19h-220zM139 567q-38 33 -74 66.5t-70 69.5l32 30l8 -1l121 -151zM262 567q-38 33 -74 66.5t-70 69.5l32 30l8 -1l120 -151z" />
    <glyph glyph-name="uni020A" unicode="&#x20a;" horiz-adv-x="408" 
d="M71 0v22q28 8 55.5 13.5t54.5 8.5l9 565l-119 21v24h294v-22q-25 -7 -53 -12.5t-58 -8.5v-567l111 -20v-24h-294zM219 862q33 0 59 -13.5t41.5 -36t18.5 -50.5l-37 -9q-5 27 -27 45.5t-55 18.5q-32 0 -54 -18.5t-27 -45.5l-37 9q2 28 17.5 50.5t42 36t58.5 13.5z" />
    <glyph glyph-name="uni020B" unicode="&#x20b;" horiz-adv-x="292" 
d="M53 0v19q15 7 33.5 12.5t39.5 9.5l10 355l-51 61q25 15 51.5 25t57.5 14v-458l79 -19v-19h-220zM159 696q33 0 59 -13.5t41.5 -36t18.5 -50.5l-37 -9q-5 27 -27 45.5t-55 18.5q-32 0 -54 -18.5t-27 -45.5l-37 9q2 28 17.5 50.5t42 36t58.5 13.5z" />
    <glyph glyph-name="uni020C" unicode="&#x20c;" horiz-adv-x="755" 
d="M385 -8q-85 0 -149.5 41t-100.5 114t-36 171q0 100 38.5 177.5t106.5 122t154 44.5q85 0 150.5 -41.5t102 -115t36.5 -170.5q0 -100 -38 -177.5t-106.5 -121.5t-157.5 -44zM392 40q66 0 116.5 36.5t79.5 102t29 152.5q0 84 -27.5 146.5t-78.5 97.5t-119 35
q-45 0 -89 -15.5t-80 -45.5l26 29q-81 -121 -81 -258q0 -82 28.5 -145.5t79.5 -99t116 -35.5zM373 733q-38 33 -74 66.5t-70 69.5l32 30l8 -1l121 -151zM496 733q-38 33 -74 66.5t-70 69.5l32 30l8 -1l120 -151z" />
    <glyph glyph-name="uni020D" unicode="&#x20d;" horiz-adv-x="540" 
d="M278 -8q-62 0 -108.5 30.5t-72 85t-25.5 126.5q0 78 27.5 136t76.5 91t113 33q62 0 109.5 -30.5t73.5 -86t26 -127.5q0 -77 -27.5 -135t-77.5 -90.5t-115 -32.5zM283 37q45 0 78.5 25.5t53 72.5t19.5 111q0 62 -19 107t-53 69t-80 24q-28 0 -59.5 -10t-66.5 -31l34 27
q-26 -45 -39.5 -92.5t-13.5 -99.5q0 -62 18.5 -107.5t52 -70.5t75.5 -25zM266 567q-38 33 -74 66.5t-70 69.5l32 30l8 -1l121 -151zM389 567q-38 33 -74 66.5t-70 69.5l32 30l8 -1l120 -151z" />
    <glyph glyph-name="uni020E" unicode="&#x20e;" horiz-adv-x="755" 
d="M385 -8q-85 0 -149.5 41t-100.5 114t-36 171q0 100 38.5 177.5t106.5 122t154 44.5q85 0 150.5 -41.5t102 -115t36.5 -170.5q0 -100 -38 -177.5t-106.5 -121.5t-157.5 -44zM392 40q66 0 116.5 36.5t79.5 102t29 152.5q0 84 -27.5 146.5t-78.5 97.5t-119 35
q-45 0 -89 -15.5t-80 -45.5l26 29q-81 -121 -81 -258q0 -82 28.5 -145.5t79.5 -99t116 -35.5zM392 862q33 0 59 -13.5t41.5 -36t18.5 -50.5l-37 -9q-5 27 -27 45.5t-55 18.5q-32 0 -54 -18.5t-27 -45.5l-37 9q2 28 17.5 50.5t42 36t58.5 13.5z" />
    <glyph glyph-name="uni020F" unicode="&#x20f;" horiz-adv-x="540" 
d="M278 -8q-62 0 -108.5 30.5t-72 85t-25.5 126.5q0 78 27.5 136t76.5 91t113 33q62 0 109.5 -30.5t73.5 -86t26 -127.5q0 -77 -27.5 -135t-77.5 -90.5t-115 -32.5zM283 37q45 0 78.5 25.5t53 72.5t19.5 111q0 62 -19 107t-53 69t-80 24q-28 0 -59.5 -10t-66.5 -31l34 27
q-26 -45 -39.5 -92.5t-13.5 -99.5q0 -62 18.5 -107.5t52 -70.5t75.5 -25zM284 696q33 0 59 -13.5t41.5 -36t18.5 -50.5l-37 -9q-5 27 -27 45.5t-55 18.5q-32 0 -54 -18.5t-27 -45.5l-37 9q2 28 17.5 50.5t42 36t58.5 13.5z" />
    <glyph glyph-name="uni0210" unicode="&#x210;" horiz-adv-x="731" 
d="M611 46l98 -22v-24h-163l-34 182q-10 61 -37.5 85t-84.5 24h-165v48h208q61 27 88.5 61.5t27.5 80.5q0 58 -38.5 91.5t-103.5 33.5h-153v-562l111 -20v-24h-294v22q16 8 43.5 13t66.5 9l9 565l-119 21v24h347q90 0 144.5 -44t54.5 -116q0 -61 -39.5 -109t-106.5 -66
q47 -12 73.5 -44t38.5 -93zM363 733q-38 33 -74 66.5t-70 69.5l32 30l8 -1l121 -151zM486 733q-38 33 -74 66.5t-70 69.5l32 30l8 -1l120 -151z" />
    <glyph glyph-name="uni0211" unicode="&#x211;" horiz-adv-x="388" 
d="M374 428q-98 2 -186 -52v16q30 33 62.5 57.5t67.5 42.5q18 -2 32 -7t28 -13zM53 0v19q14 6 31 11.5t42 10.5l10 355l-51 61q48 29 102 39l7 -106v-349l111 -22v-19h-252zM217 567q-38 33 -74 66.5t-70 69.5l32 30l8 -1l121 -151zM340 567q-38 33 -74 66.5t-70 69.5l32 30
l8 -1l120 -151z" />
    <glyph glyph-name="uni0212" unicode="&#x212;" horiz-adv-x="731" 
d="M611 46l98 -22v-24h-163l-34 182q-10 61 -37.5 85t-84.5 24h-165v48h208q61 27 88.5 61.5t27.5 80.5q0 58 -38.5 91.5t-103.5 33.5h-153v-562l111 -20v-24h-294v22q16 8 43.5 13t66.5 9l9 565l-119 21v24h347q90 0 144.5 -44t54.5 -116q0 -61 -39.5 -109t-106.5 -66
q47 -12 73.5 -44t38.5 -93zM382 862q33 0 59 -13.5t41.5 -36t18.5 -50.5l-37 -9q-5 27 -27 45.5t-55 18.5q-32 0 -54 -18.5t-27 -45.5l-37 9q2 28 17.5 50.5t42 36t58.5 13.5z" />
    <glyph glyph-name="uni0213" unicode="&#x213;" horiz-adv-x="388" 
d="M374 428q-98 2 -186 -52v16q30 33 62.5 57.5t67.5 42.5q18 -2 32 -7t28 -13zM53 0v19q14 6 31 11.5t42 10.5l10 355l-51 61q48 29 102 39l7 -106v-349l111 -22v-19h-252zM236 696q33 0 59 -13.5t41.5 -36t18.5 -50.5l-37 -9q-5 27 -27 45.5t-55 18.5q-32 0 -54 -18.5
t-27 -45.5l-37 9q2 28 17.5 50.5t42 36t58.5 13.5z" />
    <glyph glyph-name="uni0214" unicode="&#x214;" horiz-adv-x="793" 
d="M410 -9q-120 0 -183.5 54t-63.5 157l7 407l-120 21v24h293v-22q-21 -8 -47.5 -13t-62.5 -8v-412q0 -78 46 -118t136 -40q66 0 109.5 20.5t76.5 66.5l5 481l-117 21v24h280v-22q-22 -8 -49 -13t-62 -8l1 -399q0 -105 -65.5 -163t-183.5 -58zM396 733q-38 33 -74 66.5
t-70 69.5l32 30l8 -1l121 -151zM519 733q-38 33 -74 66.5t-70 69.5l32 30l8 -1l120 -151z" />
    <glyph glyph-name="uni0215" unicode="&#x215;" horiz-adv-x="587" 
d="M479 56l102 5q-7 -22 -19 -37t-27.5 -22t-31.5 -7q-21 0 -40 10.5t-32.5 31.5t-18.5 51l8 308l-51 61q53 31 110 39v-440zM289 -7q-6 0 -11 -0.5t-9 -0.5q-47 0 -86.5 19t-72.5 59l58 32q57 -51 123 -51q64 0 128 50l1 -19q-30 -31 -62.5 -53t-68.5 -36zM110 70l9 326
l-52 61q54 31 109 39v-412zM280 567q-38 33 -74 66.5t-70 69.5l32 30l8 -1l121 -151zM403 567q-38 33 -74 66.5t-70 69.5l32 30l8 -1l120 -151z" />
    <glyph glyph-name="uni0216" unicode="&#x216;" horiz-adv-x="793" 
d="M410 -9q-120 0 -183.5 54t-63.5 157l7 407l-120 21v24h293v-22q-21 -8 -47.5 -13t-62.5 -8v-412q0 -78 46 -118t136 -40q66 0 109.5 20.5t76.5 66.5l5 481l-117 21v24h280v-22q-22 -8 -49 -13t-62 -8l1 -399q0 -105 -65.5 -163t-183.5 -58zM415 862q33 0 59 -13.5
t41.5 -36t18.5 -50.5l-37 -9q-5 27 -27 45.5t-55 18.5q-32 0 -54 -18.5t-27 -45.5l-37 9q2 28 17.5 50.5t42 36t58.5 13.5z" />
    <glyph glyph-name="uni0217" unicode="&#x217;" horiz-adv-x="586" 
d="M479 56l102 5q-7 -22 -19 -37t-27.5 -22t-31.5 -7q-21 0 -40 10.5t-32.5 31.5t-18.5 51l8 308l-51 61q53 31 110 39v-440zM289 -7q-6 0 -11 -0.5t-9 -0.5q-47 0 -86.5 19t-72.5 59l58 32q57 -51 123 -51q64 0 128 50l1 -19q-30 -31 -62.5 -53t-68.5 -36zM110 70l9 326
l-52 61q54 31 109 39v-412zM298 696q33 0 59 -13.5t41.5 -36t18.5 -50.5l-37 -9q-5 27 -27 45.5t-55 18.5q-32 0 -54 -18.5t-27 -45.5l-37 9q2 28 17.5 50.5t42 36t58.5 13.5z" />
    <glyph glyph-name="uni0218" unicode="&#x218;" horiz-adv-x="645" 
d="M305 -9q-46 0 -94.5 7t-99.5 21l25 49q45 -13 94.5 -19t101.5 -6q31 0 62 2t62 6l-29 -8q22 11 40 28t28.5 37t10.5 41q0 34 -27.5 60t-70.5 48.5t-91.5 44.5t-92 48.5t-71 61.5t-27.5 85q0 51 31 87.5t87.5 57t134.5 20.5q42 0 84.5 -5.5t82.5 -17.5l-17 -49
q-44 10 -88.5 15t-87.5 5q-34 0 -65.5 -3.5t-62.5 -8.5l31 9q-29 -15 -47 -41t-18 -57q0 -38 27.5 -66t70.5 -50.5t92 -44.5t92.5 -47.5t71 -59.5t27.5 -80q0 -52 -33.5 -90.5t-93 -59t-140.5 -20.5zM182 19h-71l4 190h24zM516 458l-40 182l70 -1l-6 -181h-24zM289 -206
l22 117l61 2q-12 -31 -27.5 -61.5t-36.5 -61.5zM316 -120l-28 52q14 13 27.5 19.5t28.5 11.5q10 -10 16.5 -22t11.5 -28z" />
    <glyph glyph-name="uni0219" unicode="&#x219;" horiz-adv-x="481" 
d="M233 -7q-33 0 -70.5 5t-76.5 17l24 52q46 -12 90.5 -18.5t86.5 -6.5q17 0 33 1t32 3l-33 -13q22 9 39 30.5t17 46.5t-20 43.5t-51.5 34t-67 31.5t-67.5 36t-52 47t-20 65q0 60 52.5 94t138.5 34q29 0 61.5 -4t66.5 -14l-16 -55q-44 11 -83 17t-75 6q-16 0 -31.5 -1
t-33.5 -3l23 9q-22 -10 -33 -29.5t-11 -40.5q0 -27 20.5 -46.5t52 -35.5t67 -31.5t67.5 -35t52 -46t20 -63.5q0 -60 -56.5 -94.5t-145.5 -34.5zM86 15l4 147h26l37 -147h-67zM390 340l-39 137h65l-1 -137h-25zM217 -206l22 117l61 2q-12 -31 -27.5 -61.5t-36.5 -61.5z
M244 -120l-28 52q14 13 27.5 19.5t28.5 11.5q10 -10 16.5 -22t11.5 -28z" />
    <glyph glyph-name="uni021A" unicode="&#x21a;" horiz-adv-x="721" 
d="M665 654v-250h-23l-35 202h-199v-561l138 -21v-24h-348v22q36 8 70.5 14t67.5 8l9 562h-201l-35 -202h-23v250h579zM334 -206l22 117l61 2q-12 -31 -27.5 -61.5t-36.5 -61.5zM361 -120l-28 52q14 13 27.5 19.5t28.5 11.5q10 -10 16.5 -22t11.5 -28z" />
    <glyph glyph-name="uni021B" unicode="&#x21b;" horiz-adv-x="372" 
d="M185 561v-76h175l-4 -41h-171v-390l174 1q-15 -21 -35.5 -35t-44.5 -21t-48 -7q-37 0 -69 16t-45 48l12 388h-73v15q29 29 60.5 55t68.5 47zM172 -206l22 117l61 2q-12 -31 -27.5 -61.5t-36.5 -61.5zM199 -120l-28 52q14 13 27.5 19.5t28.5 11.5q10 -10 16.5 -22
t11.5 -28z" />
    <glyph glyph-name="uni022A" unicode="&#x22a;" horiz-adv-x="755" 
d="M385 -8q-85 0 -149.5 41t-100.5 114t-36 171q0 100 38.5 177.5t106.5 122t154 44.5q85 0 150.5 -41.5t102 -115t36.5 -170.5q0 -100 -38 -177.5t-106.5 -121.5t-157.5 -44zM392 40q66 0 116.5 36.5t79.5 102t29 152.5q0 84 -27.5 146.5t-78.5 97.5t-119 35
q-45 0 -89 -15.5t-80 -45.5l26 29q-81 -121 -81 -258q0 -82 28.5 -145.5t79.5 -99t116 -35.5zM326 810q13 -11 21.5 -26t10.5 -31q-9 -11 -25 -20t-32 -11q-12 11 -20.5 25.5t-13.5 30.5q12 12 27.5 21t31.5 11zM489 810q12 -11 21.5 -26t11.5 -31q-11 -11 -26 -20t-31 -11
q-12 11 -21 25.5t-13 30.5q11 12 26.5 21t31.5 11zM267 873v44h255v-44h-255z" />
    <glyph glyph-name="uni022B" unicode="&#x22b;" horiz-adv-x="540" 
d="M278 -8q-62 0 -108.5 30.5t-72 85t-25.5 126.5q0 78 27.5 136t76.5 91t113 33q62 0 109.5 -30.5t73.5 -86t26 -127.5q0 -77 -27.5 -135t-77.5 -90.5t-115 -32.5zM283 37q45 0 78.5 25.5t53 72.5t19.5 111q0 62 -19 107t-53 69t-80 24q-28 0 -59.5 -10t-66.5 -31l34 27
q-26 -45 -39.5 -92.5t-13.5 -99.5q0 -62 18.5 -107.5t52 -70.5t75.5 -25zM218 644q13 -11 21.5 -26t10.5 -31q-9 -11 -25 -20t-32 -11q-12 11 -20.5 25.5t-13.5 30.5q12 12 27.5 21t31.5 11zM381 644q12 -11 21.5 -26t11.5 -31q-11 -11 -26 -20t-31 -11q-12 11 -21 25.5
t-13 30.5q11 12 26.5 21t31.5 11zM159 707v44h255v-44h-255z" />
    <glyph glyph-name="uni022C" unicode="&#x22c;" horiz-adv-x="755" 
d="M385 -8q-85 0 -149.5 41t-100.5 114t-36 171q0 100 38.5 177.5t106.5 122t154 44.5q85 0 150.5 -41.5t102 -115t36.5 -170.5q0 -100 -38 -177.5t-106.5 -121.5t-157.5 -44zM392 40q66 0 116.5 36.5t79.5 102t29 152.5q0 84 -27.5 146.5t-78.5 97.5t-119 35
q-45 0 -89 -15.5t-80 -45.5l26 29q-81 -121 -81 -258q0 -82 28.5 -145.5t79.5 -99t116 -35.5zM255 725l-12 12q30 31 47.5 46t30.5 19.5t30 1.5l110 -23l67 37l11 -10q-29 -33 -47 -48.5t-31.5 -19t-30.5 -0.5l-109 24zM269 873v44h232v-44h-232z" />
    <glyph glyph-name="uni022D" unicode="&#x22d;" horiz-adv-x="540" 
d="M278 -8q-62 0 -108.5 30.5t-72 85t-25.5 126.5q0 78 27.5 136t76.5 91t113 33q62 0 109.5 -30.5t73.5 -86t26 -127.5q0 -77 -27.5 -135t-77.5 -90.5t-115 -32.5zM283 37q45 0 78.5 25.5t53 72.5t19.5 111q0 62 -19 107t-53 69t-80 24q-28 0 -59.5 -10t-66.5 -31l34 27
q-26 -45 -39.5 -92.5t-13.5 -99.5q0 -62 18.5 -107.5t52 -70.5t75.5 -25zM148 559l-12 12q30 31 47.5 46t30.5 19.5t30 1.5l110 -23l67 37l11 -10q-29 -33 -47 -48.5t-31.5 -19t-30.5 -0.5l-109 24zM162 707v44h232v-44h-232z" />
    <glyph glyph-name="uni0230" unicode="&#x230;" horiz-adv-x="755" 
d="M385 -8q-85 0 -149.5 41t-100.5 114t-36 171q0 100 38.5 177.5t106.5 122t154 44.5q85 0 150.5 -41.5t102 -115t36.5 -170.5q0 -100 -38 -177.5t-106.5 -121.5t-157.5 -44zM392 40q66 0 116.5 36.5t79.5 102t29 152.5q0 84 -27.5 146.5t-78.5 97.5t-119 35
q-45 0 -89 -15.5t-80 -45.5l26 29q-81 -121 -81 -258q0 -82 28.5 -145.5t79.5 -99t116 -35.5zM403 812q13 -11 22 -27t11 -32q-10 -12 -25.5 -21.5t-32.5 -11.5q-13 12 -22 27t-12 31q11 13 27 22.5t32 11.5zM274 873v44h232v-44h-232z" />
    <glyph glyph-name="uni0231" unicode="&#x231;" horiz-adv-x="540" 
d="M278 -8q-62 0 -108.5 30.5t-72 85t-25.5 126.5q0 78 27.5 136t76.5 91t113 33q62 0 109.5 -30.5t73.5 -86t26 -127.5q0 -77 -27.5 -135t-77.5 -90.5t-115 -32.5zM283 37q45 0 78.5 25.5t53 72.5t19.5 111q0 62 -19 107t-53 69t-80 24q-28 0 -59.5 -10t-66.5 -31l34 27
q-26 -45 -39.5 -92.5t-13.5 -99.5q0 -62 18.5 -107.5t52 -70.5t75.5 -25zM295 646q13 -11 22 -27t11 -32q-10 -12 -25.5 -21.5t-32.5 -11.5q-13 12 -22 27t-12 31q11 13 27 22.5t32 11.5zM166 707v44h232v-44h-232z" />
    <glyph glyph-name="uni0232" unicode="&#x232;" horiz-adv-x="711" 
d="M348 225l-226 401v17h71l193 -356h-22l196 356h53l1 -14l-234 -404h-32zM201 0v22q32 8 63 13.5t62 8.5l4 237h68v-237l127 -20v-24h-324zM162 601l-120 28v25h296v-20q-42 -14 -86.5 -22.5t-89.5 -10.5zM556 601l-136 28v25h279v-20q-35 -14 -70.5 -22.5t-72.5 -10.5z
M257 793v45h236v-45h-236z" />
    <glyph glyph-name="uni0233" unicode="&#x233;" horiz-adv-x="505" 
d="M-10 -185l5 48l174 -11q26 34 44.5 63.5t33.5 64.5t32 82l148 414h52l-159 -429q-49 -130 -103 -190t-129 -60q-22 0 -46.5 4.5t-51.5 13.5zM226 9l-170 467h71l155 -452zM103 435q-23 5 -44.5 12.5t-40.5 18.5v20h191v-20zM455 435q-31 4 -62.5 11.5t-61.5 19.5v20h181
v-20zM149 627v45h236v-45h-236z" />
    <glyph glyph-name="uni0237" unicode="&#x237;" horiz-adv-x="270" 
d="M19 -200l-7 12l88 129l10 455l-52 61q25 15 52 25t57 14v-491q0 -69 -38.5 -118.5t-109.5 -86.5z" />
    <glyph glyph-name="uni0259" unicode="&#x259;" horiz-adv-x="507" 
d="M249 494q59 0 105 -31t71.5 -85.5t25.5 -126.5q0 -75 -27 -133.5t-75.5 -92t-112.5 -33.5q-51 0 -90 22.5t-61 62.5t-22 92l3 65q55 9 107 14.5t110 8.5t132 3l-1 -42l-290 -3l-2 -46q0 -58 34 -93.5t87 -35.5q25 0 50.5 8t48.5 22q47 79 47 170q0 95 -46 147.5
t-123 52.5q-69 0 -151 -41l-5 13q85 82 185 82z" />
    <glyph glyph-name="uni02B9" unicode="&#x2b9;" horiz-adv-x="250" 
d="M123 488l-17 184q9 2 17.5 2.5t17.5 0.5t18 -0.5t17 -2.5l-17 -184h-36z" />
    <glyph glyph-name="uni02BA" unicode="&#x2ba;" horiz-adv-x="368" 
d="M139 488l-17 184q9 2 17.5 2.5t17.5 0.5t18 -0.5t17 -2.5l-17 -184h-36zM256 488l-17 184q9 2 17.5 2.5t17.5 0.5t18 -0.5t17 -2.5l-17 -184h-36z" />
    <glyph glyph-name="uni02BB" unicode="&#x2bb;" horiz-adv-x="249" 
d="M175 677l-25 -133l-71 -1q29 70 73 138zM143 580l34 -60q-16 -14 -32 -22.5t-33 -12.5q-11 12 -18.5 26t-14.5 32z" />
    <glyph glyph-name="uni02BC" unicode="&#x2bc;" horiz-adv-x="250" 
d="M118 487l25 133h71q-14 -34 -32 -68t-41 -70zM150 584l-33 60q15 14 31 22t33 13q11 -12 19 -25.5t14 -33.5z" />
    <glyph glyph-name="uni02BE" unicode="&#x2be;" horiz-adv-x="239" 
d="M74 595q23 0 37.5 15t14.5 37t-15 36.5t-37 14.5v39q26 0 46 -12t31.5 -32t11.5 -46t-11.5 -46t-31 -32t-46.5 -12v38z" />
    <glyph glyph-name="uni02BF" unicode="&#x2bf;" horiz-adv-x="240" 
d="M164 557q-26 0 -46.5 12t-32 32t-11.5 46t11.5 46t32 32t46.5 12v-39q-22 0 -36.5 -14.5t-14.5 -36.5t14.5 -37t36.5 -15v-38z" />
    <glyph glyph-name="circumflex" unicode="&#x2c6;" horiz-adv-x="353" 
d="M209 716l110 -105l-23 -22l-105 78l-103 -78l-22 22l108 105h35z" />
    <glyph glyph-name="caron" unicode="&#x2c7;" horiz-adv-x="349" 
d="M169 582l-109 106l22 23l106 -79l103 79l22 -23l-109 -106h-35z" />
    <glyph glyph-name="uni02C8" unicode="&#x2c8;" horiz-adv-x="245" 
d="M102 557l-6 163q14 1 27.5 1t26.5 -2l-5 -162h-43z" />
    <glyph glyph-name="uni02C9" unicode="&#x2c9;" horiz-adv-x="423" 
d="M109 627v45h236v-45h-236z" />
    <glyph glyph-name="uni02CA" unicode="&#x2ca;" horiz-adv-x="286" 
d="M65 566l-13 20l167 139h10l27 -44q-46 -32 -94.5 -60.5t-96.5 -54.5z" />
    <glyph glyph-name="uni02CB" unicode="&#x2cb;" horiz-adv-x="278" 
d="M242 566q-49 26 -96.5 54.5t-94.5 60.5l26 44h10l168 -139z" />
    <glyph glyph-name="uni02CC" unicode="&#x2cc;" horiz-adv-x="244" 
d="M144 -53l5 -161q-27 -5 -54 0l6 161h43z" />
    <glyph glyph-name="breve" unicode="&#x2d8;" horiz-adv-x="376" 
d="M201 587q-32 0 -58.5 14t-42 36.5t-17.5 49.5l37 9q5 -27 27.5 -45t53.5 -18q32 0 54 18t28 45l37 -9q-2 -27 -17.5 -49.5t-42 -36.5t-59.5 -14z" />
    <glyph glyph-name="dotaccent" unicode="&#x2d9;" horiz-adv-x="249" 
d="M155 701q13 -13 22.5 -30t12.5 -35q-11 -14 -28 -24t-35 -12q-14 12 -24 29t-13 34q12 15 29 24.5t36 13.5z" />
    <glyph glyph-name="ring" unicode="&#x2da;" horiz-adv-x="313" 
d="M170 566q-24 0 -42.5 11t-29.5 29.5t-11 42.5q0 23 11 42t29.5 29.5t42.5 10.5q36 0 59 -23t23 -59q0 -25 -10.5 -43t-29 -29t-42.5 -11zM170 600q21 0 35 14t14 34q0 22 -14 35.5t-35 13.5q-20 0 -34.5 -14t-14.5 -35q0 -20 14.5 -34t34.5 -14z" />
    <glyph glyph-name="ogonek" unicode="&#x2db;" horiz-adv-x="290" 
d="M141 -206q-29 0 -47 12t-24 31t0.5 40.5t27.5 41.5l95 100h23l-77 -102q-23 -30 -16.5 -52.5t38.5 -22.5q20 0 38.5 9t33.5 26l8 -19q-16 -30 -42.5 -47t-57.5 -17z" />
    <glyph glyph-name="tilde" unicode="&#x2dc;" horiz-adv-x="405" 
d="M85 591l-14 13q24 35 39.5 53.5t25.5 25.5t18.5 7t19.5 -3l116 -29l60 52l13 -12q-30 -45 -47.5 -64t-29 -22t-25.5 1l-116 31z" />
    <glyph glyph-name="hungarumlaut" unicode="&#x2dd;" horiz-adv-x="401" 
d="M61 583l98 146l9 4l41 -30q-29 -35 -60 -70t-63 -68zM220 583l97 146l9 4l42 -30q-29 -35 -60.5 -70t-62.5 -68z" />
    <glyph glyph-name="gravecomb" unicode="&#x300;" horiz-adv-x="26" 
d="M228 566q-49 26 -96.5 54.5t-94.5 60.5l26 44h10l168 -139z" />
    <glyph glyph-name="acutecomb" unicode="&#x301;" horiz-adv-x="26" 
d="M50 566l-13 20l167 139h10l27 -44q-46 -32 -94.5 -60.5t-96.5 -54.5z" />
    <glyph glyph-name="uni0302" unicode="&#x302;" horiz-adv-x="27" 
d="M197 716l110 -105l-23 -22l-105 78l-103 -78l-22 22l108 105h35z" />
    <glyph glyph-name="tildecomb" unicode="&#x303;" horiz-adv-x="27" 
d="M70 591l-14 13q24 35 39.5 53.5t25.5 25.5t18.5 7t19.5 -3l116 -29l60 52l13 -12q-30 -45 -47.5 -64t-29 -22t-25.5 1l-116 31z" />
    <glyph glyph-name="uni0304" unicode="&#x304;" horiz-adv-x="28" 
d="M93 627v45h236v-45h-236z" />
    <glyph glyph-name="uni0306" unicode="&#x306;" horiz-adv-x="27" 
d="M188 587q-32 0 -58.5 14t-42 36.5t-17.5 49.5l37 9q5 -27 27.5 -45t53.5 -18q32 0 54 18t28 45l37 -9q-2 -27 -17.5 -49.5t-42 -36.5t-59.5 -14z" />
    <glyph glyph-name="uni0307" unicode="&#x307;" horiz-adv-x="28" 
d="M140 701q13 -13 22.5 -30t12.5 -35q-11 -14 -28 -24t-35 -12q-14 12 -24 29t-13 34q12 15 29 24.5t36 13.5z" />
    <glyph glyph-name="uni0308" unicode="&#x308;" horiz-adv-x="28" 
d="M136 694q12 -12 20.5 -27t11.5 -32q-10 -12 -26 -21t-32 -11q-11 11 -20.5 26t-13.5 32q12 12 27 21.5t33 11.5zM297 694q12 -12 21 -27t11 -32q-11 -12 -26.5 -21t-31.5 -11q-13 11 -21.5 26.5t-12.5 31.5q12 12 27 21.5t33 11.5z" />
    <glyph glyph-name="hookabovecomb" unicode="&#x309;" horiz-adv-x="27" 
d="M111 538v24q0 17 9 28.5t21.5 20.5t21 19t8.5 25t-11.5 22t-31.5 7q-11 0 -26 -2.5t-32 -6.5l-6 35q19 5 37 7.5t34 2.5q39 0 62 -15.5t23 -44.5q0 -22 -10.5 -35.5t-24 -24t-25 -20.5t-14.5 -23l-3 -20z" />
    <glyph glyph-name="uni030A" unicode="&#x30a;" horiz-adv-x="27" 
d="M157 566q-24 0 -42.5 11t-29.5 29.5t-11 42.5q0 23 11 42t29.5 29.5t42.5 10.5q36 0 59 -23t23 -59q0 -25 -10.5 -43t-29 -29t-42.5 -11zM157 600q21 0 35 14t14 34q0 22 -14 35.5t-35 13.5q-20 0 -34.5 -14t-14.5 -35q0 -20 14.5 -34t34.5 -14z" />
    <glyph glyph-name="uni030B" unicode="&#x30b;" horiz-adv-x="27" 
d="M49 583l98 146l9 4l41 -30q-29 -35 -60 -70t-63 -68zM208 583l97 146l9 4l42 -30q-29 -35 -60.5 -70t-62.5 -68z" />
    <glyph glyph-name="uni030C" unicode="&#x30c;" horiz-adv-x="27" 
d="M155 582l-109 106l22 23l106 -79l103 79l22 -23l-109 -106h-35z" />
    <glyph glyph-name="uni030F" unicode="&#x30f;" horiz-adv-x="26" 
d="M181 567q-38 33 -74 66.5t-70 69.5l32 30l8 -1l121 -151zM304 567q-38 33 -74 66.5t-70 69.5l32 30l8 -1l120 -151z" />
    <glyph glyph-name="uni0311" unicode="&#x311;" horiz-adv-x="27" 
d="M189 696q33 0 59 -13.5t41.5 -36t18.5 -50.5l-37 -9q-5 27 -27 45.5t-55 18.5q-32 0 -54 -18.5t-27 -45.5l-37 9q2 28 17.5 50.5t42 36t58.5 13.5z" />
    <glyph glyph-name="uni0312" unicode="&#x312;" horiz-adv-x="27" 
d="M156 713l-22 -123l-64 -2q25 65 67 129zM128 622l30 -56q-15 -12 -29 -19.5t-30 -11.5q-11 11 -17.5 23.5t-11.5 29.5z" />
    <glyph glyph-name="uni031B" unicode="&#x31b;" horiz-adv-x="27" 
d="M124 475l-67 -1v12l82 25l-27 97l56 13q20 -47 22.5 -79t-14.5 -48.5t-52 -18.5z" />
    <glyph glyph-name="dotbelowcomb" unicode="&#x323;" horiz-adv-x="28" 
d="M138 -78q12 -12 21.5 -28.5t11.5 -33.5q-11 -12 -27 -21.5t-33 -11.5q-12 10 -21.5 26t-13.5 33q12 13 28 22.5t34 13.5z" />
    <glyph glyph-name="uni0324" unicode="&#x324;" horiz-adv-x="28" 
d="M151 -73q12 -12 20.5 -27t11.5 -32q-10 -12 -26 -21t-32 -11q-11 11 -20.5 26t-13.5 32q12 12 27 21.5t33 11.5zM312 -73q12 -12 21 -27t11 -32q-11 -12 -26.5 -21t-31.5 -11q-13 11 -21.5 26.5t-12.5 31.5q12 12 27 21.5t33 11.5z" />
    <glyph glyph-name="uni0326" unicode="&#x326;" horiz-adv-x="28" 
d="M87 -206l22 117l61 2q-12 -31 -27.5 -61.5t-36.5 -61.5zM114 -120l-28 52q14 13 27.5 19.5t28.5 11.5q10 -10 16.5 -22t11.5 -28z" />
    <glyph glyph-name="uni0327" unicode="&#x327;" horiz-adv-x="27" 
d="M62 -206l4 47q36 -10 66.5 -15.5t64.5 -6.5q8 6 13 15.5t5 18.5q0 12 -10 22t-34 20t-65 24l19 40q70 -17 102 -41t32 -58q0 -36 -27 -56.5t-72 -24t-98 14.5zM127 13h30l-21 -94h-30z" />
    <glyph glyph-name="uni0328" unicode="&#x328;" horiz-adv-x="27" 
d="M129 -206q-29 0 -47 12t-24 31t0.5 40.5t27.5 41.5l95 100h23l-77 -102q-23 -30 -16.5 -52.5t38.5 -22.5q20 0 38.5 9t33.5 26l8 -19q-16 -30 -42.5 -47t-57.5 -17z" />
    <glyph glyph-name="uni032E" unicode="&#x32e;" horiz-adv-x="27" 
d="M203 -173q-32 0 -58.5 14t-42 36.5t-17.5 49.5l37 9q5 -27 27.5 -45t53.5 -18q32 0 54 18t28 45l37 -9q-2 -27 -17.5 -49.5t-42 -36.5t-59.5 -14z" />
    <glyph glyph-name="uni0331" unicode="&#x331;" horiz-adv-x="29" 
d="M109 -143v45h236v-45h-236z" />
    <glyph glyph-name="uni0335" unicode="&#x335;" horiz-adv-x="28" 
d="M91 292h330v-42h-330v42z" />
    <glyph glyph-name="uni0336" unicode="&#x336;" horiz-adv-x="28" 
d="M91 292h452v-42h-452v42z" />
    <glyph glyph-name="uni0337" unicode="&#x337;" horiz-adv-x="26" 
d="M42 234l-23 33l295 231l22 -33z" />
    <glyph glyph-name="uni0338" unicode="&#x338;" horiz-adv-x="25" 
d="M53 -201l-39 13l315 930l39 -12z" />
    <glyph glyph-name="uni0345" unicode="&#x345;" horiz-adv-x="28" 
d="M146 -53l16 -161q-36 -6 -71 0l15 161h40z" />
    <glyph glyph-name="uni0374" unicode="&#x374;" horiz-adv-x="250" 
d="M123 488l-17 184q9 2 17.5 2.5t17.5 0.5t18 -0.5t17 -2.5l-17 -184h-36z" />
    <glyph glyph-name="uni0375" unicode="&#x375;" horiz-adv-x="250" 
d="M143 85l17 -184q-35 -7 -70 0l17 184h36z" />
    <glyph glyph-name="uni037A" unicode="&#x37a;" horiz-adv-x="332" 
d="M146 -56h47v-84q0 -22 18.5 -24.5t52.5 8.5l6 -18q-24 -16 -47.5 -22.5t-42.5 -3t-30.5 18t-8.5 39.5z" />
    <glyph glyph-name="uni037E" unicode="&#x37e;" horiz-adv-x="292" 
d="M138 -97l25 133h71q-14 -34 -32 -68t-41 -70zM170 0l-33 60q15 14 31 22t33 13q11 -12 19 -25.5t14 -33.5zM162 273q-13 11 -22 26.5t-14 33.5q12 13 28.5 22.5t34.5 12.5q13 -12 21.5 -28.5t12.5 -32.5q-11 -13 -27.5 -22t-33.5 -12z" />
    <glyph glyph-name="tonos" unicode="&#x384;" horiz-adv-x="238" 
d="M103 527l-22 6l34 204l7 6l48 -14q-14 -52 -30.5 -102.5t-36.5 -99.5z" />
    <glyph glyph-name="dieresistonos" unicode="&#x385;" horiz-adv-x="390" 
d="M97 648q10 -11 18 -25t9 -29q-8 -9 -21.5 -18t-28.5 -11q-11 11 -19.5 24.5t-11.5 28.5q10 11 24 19t30 11zM316 648q10 -11 18.5 -25t10.5 -29q-10 -9 -23.5 -18t-28.5 -11q-12 11 -19.5 24.5t-10.5 28.5q10 11 24 19t29 11zM190 536l-23 6l13 194l5 7l50 -10
q-8 -49 -20 -98.5t-25 -98.5z" />
    <glyph glyph-name="Alphatonos" unicode="&#x386;" horiz-adv-x="762" 
d="M689 40q19 -4 36.5 -8.5t35.5 -9.5v-22h-254v23l107 18l-208 586h18l-215 -585q32 -4 62.5 -8.5t61.5 -11.5v-22h-249v23l68 19l233 612h78zM255 223v46h327v-46h-327zM146 450l-22 6l34 204l7 6l48 -14q-14 -52 -30.5 -102.5t-36.5 -99.5z" />
    <glyph glyph-name="anoteleia" unicode="&#x387;" horiz-adv-x="281" 
d="M159 230q-13 11 -22 26.5t-14 33.5q12 13 28.5 22.5t34.5 12.5q13 -12 21.5 -28.5t12.5 -32.5q-11 -13 -27.5 -22t-33.5 -12z" />
    <glyph glyph-name="Epsilontonos" unicode="&#x388;" horiz-adv-x="834" 
d="M726 215h23v-215h-549v22q28 8 55.5 13.5t54.5 8.5l9 565l-119 21v24h539v-194h-23l-34 146h-327l28 28v-273h200l29 87h21v-222h-21l-30 87h-199v-293l-28 28h336zM76 450l-22 6l34 204l7 6l48 -14q-14 -52 -30.5 -102.5t-36.5 -99.5z" />
    <glyph glyph-name="Etatonos" unicode="&#x389;" horiz-adv-x="948" 
d="M624 0v19q28 9 55.5 15.5t53.5 9.5l9 565l-118 21v24h292v-22q-25 -7 -52.5 -12.5t-57.5 -8.5v-567l110 -20v-24h-292zM199 0v22q28 8 55.5 13.5t54.5 8.5l9 565l-119 21v24h292v-22q-24 -7 -52 -12.5t-57 -8.5v-567l109 -20v-24h-292zM349 311v49h423v-49h-423zM76 450
l-22 6l34 204l7 6l48 -14q-14 -52 -30.5 -102.5t-36.5 -99.5z" />
    <glyph glyph-name="Iotatonos" unicode="&#x38a;" horiz-adv-x="526" 
d="M200 0v22q28 8 55.5 13.5t54.5 8.5l9 565l-119 21v24h294v-22q-25 -7 -53 -12.5t-58 -8.5v-567l111 -20v-24h-294zM76 450l-22 6l34 204l7 6l48 -14q-14 -52 -30.5 -102.5t-36.5 -99.5z" />
    <glyph glyph-name="Omicrontonos" unicode="&#x38c;" horiz-adv-x="826" 
d="M471 -8q-85 0 -149.5 41t-100.5 114t-36 171q0 100 38.5 177.5t106.5 122t154 44.5q85 0 150.5 -41.5t102 -115t36.5 -170.5q0 -100 -38 -177.5t-106.5 -121.5t-157.5 -44zM478 40q66 0 116.5 36.5t79.5 102t29 152.5q0 84 -27.5 146.5t-78.5 97.5t-119 35
q-45 0 -89 -15.5t-80 -45.5l26 29q-81 -121 -81 -258q0 -82 28.5 -145.5t79.5 -99t116 -35.5zM74 450l-22 6l34 204l7 6l48 -14q-14 -52 -30.5 -102.5t-36.5 -99.5z" />
    <glyph glyph-name="Upsilontonos" unicode="&#x38e;" horiz-adv-x="778" 
d="M449 175q-85 248 -215 459v20h69q54 -104 98.5 -202.5t79.5 -193.5h-18q31 91 77 191.5t104 204.5h55l1 -17q-69 -110 -124.5 -226t-97.5 -236h-29zM300 0v22q33 8 64.5 13.5t61.5 8.5l4 204h68v-204l126 -20v-24h-324zM272 601l-101 28v25h139v-39zM649 601l-13 16v37
h125v-20q-26 -14 -54 -22.5t-58 -10.5zM90 450l-22 6l34 204l7 6l48 -14q-14 -52 -30.5 -102.5t-36.5 -99.5z" />
    <glyph glyph-name="Omegatonos" unicode="&#x38f;" horiz-adv-x="900" 
d="M408 112q-66 16 -115.5 54.5t-76.5 94t-27 121.5q0 80 38.5 143t106.5 100t154 37q84 0 149.5 -34.5t103 -95t37.5 -138.5q0 -65 -28 -122.5t-77.5 -99t-116.5 -59.5l-18 31q51 18 89.5 53.5t59.5 85t21 106.5q0 66 -28.5 116t-80.5 77.5t-121 27.5q-41 0 -81 -11.5
t-70 -32.5q-32 -34 -51 -84t-19 -103q0 -55 21.5 -103t60.5 -82.5t90 -49.5zM184 0v145h19l31 -116l-26 23h178l2 73l41 19v-144h-245zM538 0v144l44 -10l-3 -82h180l-26 -23l30 116h20v-145h-245zM84 450l-22 6l34 204l7 6l48 -14q-14 -52 -30.5 -102.5t-36.5 -99.5z" />
    <glyph glyph-name="iotadieresistonos" unicode="&#x390;" horiz-adv-x="288" 
d="M110 46l12 440h56v-430l104 5q-6 -22 -19.5 -36.5t-31.5 -22t-37 -7.5q-25 0 -47.5 13t-36.5 38zM53 648q10 -11 18 -25t9 -29q-8 -9 -21.5 -18t-28.5 -11q-11 11 -19.5 24.5t-11.5 28.5q10 11 24 19t30 11zM272 648q10 -11 18.5 -25t10.5 -29q-10 -9 -23.5 -18
t-28.5 -11q-12 11 -19.5 24.5t-10.5 28.5q10 11 24 19t29 11zM146 536l-23 6l13 194l5 7l50 -10q-8 -49 -20 -98.5t-25 -98.5z" />
    <glyph glyph-name="Alpha" unicode="&#x391;" horiz-adv-x="736" 
d="M649 40q19 -4 36.5 -8.5t35.5 -9.5v-22h-254v23l107 18l-208 586h18l-215 -585q32 -4 62.5 -8.5t61.5 -11.5v-22h-249v23l68 19l233 612h78zM215 223v46h327v-46h-327z" />
    <glyph glyph-name="Beta" unicode="&#x392;" horiz-adv-x="711" 
d="M469 341q81 -14 127 -57.5t46 -105.5q0 -83 -63 -130.5t-174 -47.5h-334v22q16 8 43 13t67 9l9 565l-119 21v24h343q90 0 144 -41.5t54 -108.5q0 -57 -39 -100.5t-104 -62.5zM254 20l-28 28h228q56 13 87.5 46.5t31.5 82.5q0 60 -47.5 97t-125.5 37h-155v48h174
q123 42 123 133q0 53 -37.5 83.5t-102.5 30.5h-176l28 28v-614z" />
    <glyph glyph-name="Gamma" unicode="&#x393;" horiz-adv-x="622" 
d="M56 0v22q28 8 55.5 13.5t54.5 8.5l9 565l-119 21v24h183v-611l124 -21v-22h-307zM203 606v48h332v-48h-332zM533 421l-47 233h69v-233h-22z" />
    <glyph glyph-name="uni0394" unicode="&#x394;" horiz-adv-x="669" 
d="M376 654l247 -637v-17h-578v17l253 637h78zM110 43l427 8l-208 550z" />
    <glyph glyph-name="Epsilon" unicode="&#x395;" horiz-adv-x="718" 
d="M597 215h23v-215h-549v22q28 8 55.5 13.5t54.5 8.5l9 565l-119 21v24h539v-194h-23l-34 146h-327l28 28v-273h200l29 87h21v-222h-21l-30 87h-199v-293l-28 28h336z" />
    <glyph glyph-name="Zeta" unicode="&#x396;" horiz-adv-x="685" 
d="M91 0v19l426 593l-351 -7l-28 -150h-24l-4 199h502v-19l-425 -593l374 8l27 153h23l5 -203h-525z" />
    <glyph glyph-name="Eta" unicode="&#x397;" horiz-adv-x="832" 
d="M496 0v19q28 9 55.5 15.5t53.5 9.5l9 565l-118 21v24h292v-22q-25 -7 -52.5 -12.5t-57.5 -8.5v-567l110 -20v-24h-292zM71 0v22q28 8 55.5 13.5t54.5 8.5l9 565l-119 21v24h292v-22q-24 -7 -52 -12.5t-57 -8.5v-567l109 -20v-24h-292zM221 311v49h423v-49h-423z" />
    <glyph glyph-name="Theta" unicode="&#x398;" horiz-adv-x="759" 
d="M244 301v54h269v-54h-269zM372 -8q-85 0 -150.5 41t-101.5 114t-36 171q0 100 38 177.5t106 122t156 44.5q86 0 152 -41.5t103 -115t37 -170.5q0 -100 -38.5 -177.5t-107 -121.5t-158.5 -44zM379 40q66 0 117.5 36.5t80.5 102t29 152.5q0 84 -28.5 146.5t-79 97.5
t-120.5 35q-41 0 -80.5 -12.5t-72.5 -36.5q-72 -114 -72 -241q0 -82 28.5 -145.5t79.5 -99t118 -35.5z" />
    <glyph glyph-name="Iota" unicode="&#x399;" horiz-adv-x="408" 
d="M71 0v22q28 8 55.5 13.5t54.5 8.5l9 565l-119 21v24h294v-22q-25 -7 -53 -12.5t-58 -8.5v-567l111 -20v-24h-294z" />
    <glyph glyph-name="Kappa" unicode="&#x39a;" horiz-adv-x="780" 
d="M71 0v22q28 8 55.5 13.5t54.5 8.5l9 565l-119 21v24h294v-22q-25 -7 -53 -12.5t-58 -8.5v-567l111 -20v-24h-294zM461 0v19q42 15 85 23t88 11l118 -29v-24h-291zM590 601l-137 28v25h279v-20q-35 -14 -70 -22.5t-72 -10.5zM355 325l1 44l319 -340v-19h-81l-301 325
l296 308h60v-13z" />
    <glyph glyph-name="Lambda" unicode="&#x39b;" horiz-adv-x="728" 
d="M86 10l241 644h78l232 -644h-75l-211 612h14l-221 -612h-58zM30 0v23l86 27q42 -5 82.5 -11.5t80.5 -16.5v-22h-249zM445 0v23l138 27q62 -9 116 -28v-22h-254z" />
    <glyph glyph-name="Mu" unicode="&#x39c;" horiz-adv-x="985" 
d="M833 44l115 -20v-24h-299v22q29 8 57.5 13.5t55.5 8.5l-1 578l9 -1l-259 -621h-32l-246 614l9 1l-9 -571l128 -20v-24h-297v22q29 8 57 13.5t56 8.5l20 565l-123 21v24h211l226 -566h-18l237 566h209v-22q-26 -7 -54.5 -12.5t-60.5 -8.5z" />
    <glyph glyph-name="Nu" unicode="&#x39d;" horiz-adv-x="819" 
d="M511 654h281v-22q-29 -8 -56 -13.5t-54 -7.5l-1 -611h-69l-391 584l16 5v-545l126 -20v-24h-292v22q28 8 55.5 13.5t54.5 8.5l9 565l-119 21v24h186l394 -589l-15 -4l-10 550l-115 19v24z" />
    <glyph glyph-name="Xi" unicode="&#x39e;" horiz-adv-x="744" 
d="M116 0v197h23l34 -164l-28 25h453l-28 -25l33 164h25v-197h-512zM205 310v55h335v-55h-335zM129 476v178h486v-178h-24l-34 144l30 -26h-430l29 26l-33 -144h-24z" />
    <glyph glyph-name="Omicron" unicode="&#x39f;" horiz-adv-x="755" 
d="M385 -8q-85 0 -149.5 41t-100.5 114t-36 171q0 100 38.5 177.5t106.5 122t154 44.5q85 0 150.5 -41.5t102 -115t36.5 -170.5q0 -100 -38 -177.5t-106.5 -121.5t-157.5 -44zM392 40q66 0 116.5 36.5t79.5 102t29 152.5q0 84 -27.5 146.5t-78.5 97.5t-119 35
q-45 0 -89 -15.5t-80 -45.5l26 29q-81 -121 -81 -258q0 -82 28.5 -145.5t79.5 -99t116 -35.5z" />
    <glyph glyph-name="Pi" unicode="&#x3a0;" horiz-adv-x="813" 
d="M239 606v-562l108 -20v-24h-291v22q28 8 55.5 13.5t54.5 8.5l9 565l-119 21v24h698v-22q-24 -7 -51.5 -12.5t-58.5 -8.5v-567l110 -20v-24h-291v19q29 9 55.5 15.5t53.5 9.5l8 562h-341z" />
    <glyph glyph-name="Rho" unicode="&#x3a1;" horiz-adv-x="656" 
d="M407 654q64 0 109.5 -22t70 -63.5t24.5 -99.5q0 -62 -29 -108.5t-81 -72.5t-122 -26h-159v48h230q48 31 70 67t22 86q0 69 -38.5 106t-110.5 37h-139v-562l141 -20v-24h-324v22q17 8 43.5 13.5t66.5 8.5l9 565l-119 21v24h336z" />
    <glyph glyph-name="Sigma" unicode="&#x3a3;" horiz-adv-x="673" 
d="M537 219h23v-219h-509v14l264 333v-46l-255 333v20h490v-194h-23l-34 148l-363 5l12 22l228 -297v-4l-236 -299l-10 22l383 6z" />
    <glyph glyph-name="Tau" unicode="&#x3a4;" horiz-adv-x="721" 
d="M665 654v-250h-23l-35 202h-199v-561l138 -21v-24h-348v22q36 8 70.5 14t67.5 8l9 562h-201l-35 -202h-23v250h579z" />
    <glyph glyph-name="Upsilon" unicode="&#x3a5;" horiz-adv-x="646" 
d="M306 175q-85 248 -215 459v20h69q54 -104 98.5 -202.5t79.5 -193.5h-18q31 91 77 191.5t104 204.5h55l1 -17q-69 -110 -124.5 -226t-97.5 -236h-29zM157 0v22q33 8 64.5 13.5t61.5 8.5l4 204h68v-204l126 -20v-24h-324zM129 601l-101 28v25h139v-39zM506 601l-13 16v37
h125v-20q-26 -14 -54 -22.5t-58 -10.5z" />
    <glyph glyph-name="Phi" unicode="&#x3a6;" horiz-adv-x="790" 
d="M380 85q-96 0 -167 28.5t-110 83t-39 130.5t38.5 131t109 85.5t169.5 30.5h26q99 0 171 -29.5t110 -83.5t38 -130t-39 -131t-110.5 -85t-170.5 -30h-26zM246 -15v20q29 9 57.5 14t57.5 7l8 601l-123 20v22h292v-19q-27 -8 -55.5 -13.5t-58.5 -8.5v-602l114 -18v-23h-292z
M392 125q84 0 143 25.5t90.5 72t31.5 109.5t-31.5 108.5t-89.5 69t-138 23.5q-51 0 -103 -9t-89 -25q-35 -36 -54 -80.5t-19 -91.5q0 -63 32 -108t90 -69.5t137 -24.5z" />
    <glyph glyph-name="Chi" unicode="&#x3a7;" horiz-adv-x="797" 
d="M136 10v17l251 344h57l243 -342v-19h-72l-220 317h23l-229 -317h-53zM386 327l-213 299v17h73l190 -271h-21l193 271h55v-14l-219 -302h-58zM470 0v19q41 15 83.5 23t84.5 11l130 -29v-24h-298zM54 0v19q33 15 66.5 23t69.5 11l146 -29v-24h-282zM389 654v-20
q-43 -14 -87.5 -22.5t-88.5 -10.5l-121 28v25h297zM749 654v-20q-34 -14 -69.5 -22.5t-72.5 -10.5l-137 28v25h279z" />
    <glyph glyph-name="Psi" unicode="&#x3a8;" horiz-adv-x="891" 
d="M432 180q-102 0 -168 29t-98 84.5t-30 137.5l3 175l-104 24v24h165v-222q0 -67 27 -112t81 -67.5t134 -22.5q82 0 137.5 22t82.5 66.5t27 111.5v224h167v-22q-25 -8 -51.5 -14.5t-52.5 -9.5l3 -174q2 -82 -31.5 -138.5t-102 -86t-171.5 -29.5h-18zM295 0v22q29 7 58 13
t58 9l9 565l-110 21v24h267v-22q-25 -8 -50.5 -13.5t-52.5 -8.5v-566l116 -20v-24h-295z" />
    <glyph glyph-name="uni03A9" unicode="&#x3a9;" horiz-adv-x="808" 
d="M328 112q-66 16 -115.5 54.5t-76.5 94t-27 121.5q0 80 38.5 143t106.5 100t154 37q84 0 149.5 -34.5t103 -95t37.5 -138.5q0 -65 -28 -122.5t-77.5 -99t-116.5 -59.5l-18 31q51 18 89.5 53.5t59.5 85t21 106.5q0 66 -28.5 116t-80.5 77.5t-121 27.5q-41 0 -81 -11.5
t-70 -32.5q-32 -34 -51 -84t-19 -103q0 -55 21.5 -103t60.5 -82.5t90 -49.5zM104 0v145h19l31 -116l-26 23h178l2 73l41 19v-144h-245zM458 0v144l44 -10l-3 -82h180l-26 -23l30 116h20v-145h-245z" />
    <glyph glyph-name="Iotadieresis" unicode="&#x3aa;" horiz-adv-x="408" 
d="M86 0v22q28 8 55.5 13.5t54.5 8.5l9 565l-119 21v24h294v-22q-25 -7 -53 -12.5t-58 -8.5v-567l111 -20v-24h-294zM153 860q12 -12 20.5 -27t11.5 -32q-10 -12 -26 -21t-32 -11q-11 11 -20.5 26t-13.5 32q12 12 27 21.5t33 11.5zM314 860q12 -12 21 -27t11 -32
q-11 -12 -26.5 -21t-31.5 -11q-13 11 -21.5 26.5t-12.5 31.5q12 12 27 21.5t33 11.5z" />
    <glyph glyph-name="Upsilondieresis" unicode="&#x3ab;" horiz-adv-x="646" 
d="M320 175q-85 248 -215 459v20h69q54 -104 98.5 -202.5t79.5 -193.5h-18q31 91 77 191.5t104 204.5h55l1 -17q-69 -110 -124.5 -226t-97.5 -236h-29zM171 0v22q33 8 64.5 13.5t61.5 8.5l4 204h68v-204l126 -20v-24h-324zM143 601l-101 28v25h139v-39zM520 601l-13 16v37
h125v-20q-26 -14 -54 -22.5t-58 -10.5zM276 860q12 -12 20.5 -27t11.5 -32q-10 -12 -26 -21t-32 -11q-11 11 -20.5 26t-13.5 32q12 12 27 21.5t33 11.5zM437 860q12 -12 21 -27t11 -32q-11 -12 -26.5 -21t-31.5 -11q-13 11 -21.5 26.5t-12.5 31.5q12 12 27 21.5t33 11.5z
" />
    <glyph glyph-name="alphatonos" unicode="&#x3ac;" horiz-adv-x="582" 
d="M287 -8h-5h-4q-62 0 -107 30t-70 85.5t-25 127.5q0 76 27.5 134.5t77 91.5t113.5 33q33 0 61 -12t49 -32t35 -42l-14 -32q-13 18 -32 34t-45 26t-58 10t-61 -9t-67 -31l26 20q-24 -37 -36.5 -85.5t-12.5 -100.5q0 -60 18.5 -102.5t50 -64.5t72.5 -22q31 0 64.5 17
t66.5 57v-29q-28 -41 -60 -65t-64 -39zM492 -5q-20 0 -39 10.5t-32.5 31.5t-18.5 51l24 401h51l-8 -433l100 5q-6 -22 -18 -37t-27.5 -22t-31.5 -7zM289 527l-22 6l34 204l7 6l48 -14q-14 -52 -30.5 -102.5t-36.5 -99.5z" />
    <glyph glyph-name="epsilontonos" unicode="&#x3ad;" horiz-adv-x="483" 
d="M260 -7q-52 0 -92 18t-63 49.5t-23 73.5q0 48 32 83t91 46q-48 9 -79 37t-31 68q0 55 47 91t130 36q37 0 73 -6.5t84 -24.5l-12 -47q-41 16 -81.5 24t-78.5 8q-49 0 -101 -15l46 20q-22 -19 -34 -42.5t-12 -44.5q0 -29 18.5 -48.5t47 -29.5t59.5 -10l57 6v-50l-69 8
q-32 0 -59.5 -13t-44.5 -36t-17 -52q0 -46 36 -71.5t98 -25.5q39 0 77 9t78 30l6 -12q-40 -41 -85 -60t-98 -19zM404 339l-38 125h63l-3 -125h-22zM243 527l-22 6l34 204l7 6l48 -14q-14 -52 -30.5 -102.5t-36.5 -99.5z" />
    <glyph glyph-name="etatonos" unicode="&#x3ae;" horiz-adv-x="567" 
d="M417 -196l-6 9l14 574l58 30v-613h-66zM187 384l-1 20q28 27 59 51t67 38q3 0 7 0.5t7 0.5q45 0 85 -18t72 -59l-58 -30q-55 49 -115 49q-62 0 -123 -52zM121 0l12 396l-52 61q25 14 50.5 24t51.5 15l8 -93v-403h-70zM315 527l-22 6l34 204l7 6l48 -14
q-14 -52 -30.5 -102.5t-36.5 -99.5z" />
    <glyph glyph-name="iotatonos" unicode="&#x3af;" horiz-adv-x="291" 
d="M112 46l12 440h56v-430l104 5q-6 -22 -19.5 -36.5t-31.5 -22t-37 -7.5q-25 0 -47.5 13t-36.5 38zM139 527l-22 6l34 204l7 6l48 -14q-14 -52 -30.5 -102.5t-36.5 -99.5z" />
    <glyph glyph-name="upsilondieresistonos" unicode="&#x3b0;" horiz-adv-x="542" 
d="M273 -8q-48 0 -83.5 19.5t-54.5 56.5t-19 89q0 14 1 39.5t2.5 53t1.5 51.5q0 50 -10 95l-50 61q31 16 53 25t47 14q10 -38 15 -79.5t5 -80.5q0 -34 -2 -66t-3.5 -61t-1.5 -54q0 -21 1.5 -36.5t5 -30t10.5 -27.5l-14 20q21 -18 45.5 -27.5t54.5 -9.5q74 0 108 52.5
t34 168.5q0 34 -2.5 70.5t-7.5 59.5l-55 56q30 19 51 29t45 15q14 -37 22 -95t8 -114q0 -93 -25 -159t-71 -100.5t-111 -34.5zM186 648q10 -11 18 -25t9 -29q-8 -9 -21.5 -18t-28.5 -11q-11 11 -19.5 24.5t-11.5 28.5q10 11 24 19t30 11zM405 648q10 -11 18.5 -25t10.5 -29
q-10 -9 -23.5 -18t-28.5 -11q-12 11 -19.5 24.5t-10.5 28.5q10 11 24 19t29 11zM279 536l-23 6l13 194l5 7l50 -10q-8 -49 -20 -98.5t-25 -98.5z" />
    <glyph glyph-name="alpha" unicode="&#x3b1;" horiz-adv-x="582" 
d="M272 -8h-5h-4q-62 0 -107 30t-70 85.5t-25 127.5q0 76 27.5 134.5t77 91.5t113.5 33q33 0 61 -12t49 -32t35 -42l-14 -32q-13 18 -32 34t-45 26t-58 10t-61 -9t-67 -31l26 20q-24 -37 -36.5 -85.5t-12.5 -100.5q0 -60 18.5 -102.5t50 -64.5t72.5 -22q31 0 64.5 17
t66.5 57v-29q-28 -41 -60 -65t-64 -39zM477 -5q-20 0 -39 10.5t-32.5 31.5t-18.5 51l24 401h51l-8 -433l100 5q-6 -22 -18 -37t-27.5 -22t-31.5 -7z" />
    <glyph glyph-name="beta" unicode="&#x3b2;" horiz-adv-x="564" 
d="M106 -196l-5 9l9 662q1 30 4.5 65.5t14.5 71.5t31.5 66t54 47.5t83.5 17.5t89 -20t61 -57.5t22 -88.5q0 -40 -17 -75t-50 -60t-81 -32l-3 13q57 -7 99.5 -37.5t66 -77t23.5 -100.5q0 -62 -27.5 -110.5t-77 -77t-115.5 -28.5q-47 0 -88 20t-67 45l14 38q29 -24 63 -41
t72 -17q78 0 122.5 47.5t44.5 124.5q0 48 -21.5 90t-58 66.5t-82.5 24.5h-52v46h34q69 0 106 36.5t37 96.5q0 30 -8.5 57.5t-27.5 53.5q-23 7 -44 10t-41 3q-21 0 -42 -2.5t-45 -9.5q-19 -22 -28 -76t-9 -139v-662h-61z" />
    <glyph glyph-name="gamma" unicode="&#x3b3;" horiz-adv-x="473" 
d="M224 -23q-27 113 -70 227t-104 228l43 -59l-87 87q18 13 38.5 21.5t44.5 14.5q35 -62 68.5 -138t59 -157t38.5 -156l-6 -48zM274 -196h-64l-7 11l18 213l50 -6zM239 37q28 113 68 225t94 224h55v-14q-62 -117 -110 -241.5t-81 -248.5z" />
    <glyph glyph-name="delta" unicode="&#x3b4;" horiz-adv-x="527" 
d="M262 -8q-63 0 -109.5 28.5t-73 79t-26.5 118.5q0 63 26 112.5t73 81.5t110 40l35 -10q-83 -17 -131 -76t-48 -142q0 -56 18.5 -98t51.5 -65.5t77 -23.5q31 0 60.5 9.5t60.5 29.5l-32 -30q28 40 41.5 86.5t13.5 99.5q0 73 -34.5 123t-106.5 82q-62 27 -99 52.5t-53 54
t-16 65.5q0 66 50 103t140 37q33 0 66 -5t63 -14l-6 -48q-47 7 -93 11t-91 5q-17 0 -33.5 -0.5t-33.5 -1.5l55 20q-57 -39 -57 -103q0 -31 11 -53.5t40 -42t82 -43.5q93 -42 137.5 -101.5t44.5 -141.5q0 -69 -27.5 -123.5t-75.5 -85t-110 -30.5z" />
    <glyph glyph-name="epsilon" unicode="&#x3b5;" horiz-adv-x="483" 
d="M245 -7q-52 0 -92 18t-63 49.5t-23 73.5q0 48 32 83t91 46q-48 9 -79 37t-31 68q0 55 47 91t130 36q37 0 73 -6.5t84 -24.5l-12 -47q-41 16 -81.5 24t-78.5 8q-49 0 -101 -15l46 20q-22 -19 -34 -42.5t-12 -44.5q0 -29 18.5 -48.5t47 -29.5t59.5 -10l57 6v-50l-69 8
q-32 0 -59.5 -13t-44.5 -36t-17 -52q0 -46 36 -71.5t98 -25.5q39 0 77 9t78 30l6 -12q-40 -41 -85 -60t-98 -19zM389 339l-38 125h63l-3 -125h-22z" />
    <glyph glyph-name="zeta" unicode="&#x3b6;" horiz-adv-x="398" 
d="M301 -152l33 161l10 -21q-151 15 -219.5 68.5t-68.5 154.5q0 52 17 103t56.5 111t105.5 138l118 140l11 -5q-48 -29 -96 -43t-88 -14q-46 0 -74.5 18t-28.5 53q0 14 8 28.5t19 22.5l20 -45q36 -23 91 -23q38 0 80.5 11t88.5 33l21 -32l-138 -177q-75 -95 -110 -168.5
t-35 -136.5q0 -56 26 -93.5t82.5 -59t147.5 -32.5l8 -6q2 -7 3 -14t1 -15q0 -39 -17.5 -81.5t-52.5 -79.5z" />
    <glyph glyph-name="eta" unicode="&#x3b7;" horiz-adv-x="567" 
d="M402 -196l-6 9l14 574l58 30v-613h-66zM172 384l-1 20q28 27 59 51t67 38q3 0 7 0.5t7 0.5q45 0 85 -18t72 -59l-58 -30q-55 49 -115 49q-62 0 -123 -52zM106 0l12 396l-52 61q25 14 50.5 24t51.5 15l8 -93v-403h-70z" />
    <glyph glyph-name="theta" unicode="&#x3b8;" horiz-adv-x="553" 
d="M274 -8q-61 0 -105 45t-69 127t-25 190q0 118 25 204.5t70.5 134.5t107.5 48q61 0 106 -45.5t70 -128.5t25 -193q0 -116 -25.5 -202t-71.5 -133t-108 -47zM279 34q32 0 57.5 22t43 65t27 105.5t9.5 144.5q0 77 -9.5 138t-28 102.5t-44 62.5t-58.5 21q-26 0 -50.5 -12.5
t-47.5 -39.5q-20 -62 -29.5 -135.5t-9.5 -149.5q0 -74 10 -134.5t28 -103t44 -64.5t58 -22zM101 349v38l349 6v-44h-349z" />
    <glyph glyph-name="iota" unicode="&#x3b9;" horiz-adv-x="291" 
d="M97 46l12 440h56v-430l104 5q-6 -22 -19.5 -36.5t-31.5 -22t-37 -7.5q-25 0 -47.5 13t-36.5 38z" />
    <glyph glyph-name="kappa" unicode="&#x3ba;" horiz-adv-x="503" 
d="M409 -8l-203 263q43 58 91.5 117t101.5 114h48v-12q-51 -55 -99.5 -112t-93.5 -121v46l225 -276q-17 -5 -34 -10.5t-36 -8.5zM104 0l12 396l-50 61q24 14 52 24.5t55 14.5v-496h-69zM379 418l45 68h41v-20z" />
    <glyph glyph-name="lambda" unicode="&#x3bb;" horiz-adv-x="482" 
d="M247 448l-159 -448h-66v13l200 495zM388 57l85 5q-3 -21 -13 -36.5t-23 -23t-27 -7.5q-25 0 -47 22t-34 66l-133 461q-31 105 -68 146l-107 -14l-9 53q18 10 35 15t34 5q48 0 88 -44.5t65 -128.5z" />
    <glyph glyph-name="uni03BC" unicode="&#x3bc;" horiz-adv-x="603" 
d="M476 56l104 5q-7 -22 -19.5 -37t-27.5 -22t-32 -7q-20 0 -39 10.5t-32.5 31.5t-19.5 51l9 308l-51 61q52 31 108 39v-440zM104 -196l13 592l-51 61q54 31 109 39v-420l-12 -27l14 -235v-10h-73zM290 -7q-4 0 -9.5 -1t-10.5 -1q-77 0 -137 60l34 51q57 -51 122 -51
q63 0 128 50l1 -19q-29 -31 -61 -53t-67 -36z" />
    <glyph glyph-name="nu" unicode="&#x3bd;" horiz-adv-x="489" 
d="M199 -5q-26 109 -59 217.5t-80 219.5l30 -56l-83 71q26 17 49.5 29.5t46.5 19.5q33 -78 59 -157t47.5 -158t39.5 -157l-27 -5q36 42 65.5 90.5t51.5 98t34.5 97t12.5 87.5q0 6 -0.5 10.5t-1.5 9.5l8 -30l-70 64q17 16 36 29.5t44 20.5q17 -13 26 -37t9 -56
q0 -39 -12.5 -87.5t-33 -100t-48.5 -100t-62 -87.5q-9 -11 -17 -18t-16 -9.5t-19.5 -3.5t-29.5 -2z" />
    <glyph glyph-name="xi" unicode="&#x3be;" horiz-adv-x="431" 
d="M332 -156l-20 4l35 163l10 -22q-156 9 -228 66.5t-72 164.5q0 42 18 81t51.5 68.5t77.5 40.5q-38 11 -67.5 34.5t-46 56.5t-16.5 71q0 47 25 87.5t72 65.5t110 25q29 0 63.5 -6.5t73.5 -20.5l-14 -51q-31 14 -67 21.5t-72 7.5q-31 0 -62.5 -8.5t-57.5 -22.5l30 17
q-20 -28 -30 -56t-10 -56q0 -56 40.5 -95.5t103.5 -51.5l88 6v-60l-97 6q-44 0 -77.5 -21.5t-52 -56.5t-18.5 -76q0 -87 62.5 -132t204.5 -54l9 -6q2 -6 2.5 -11t0.5 -10q0 -44 -17.5 -86t-51.5 -83zM393 586l-38 137h63l-3 -137h-22z" />
    <glyph glyph-name="omicron" unicode="&#x3bf;" horiz-adv-x="540" 
d="M278 -8q-62 0 -108.5 30.5t-72 85t-25.5 126.5q0 78 27.5 136t76.5 91t113 33q62 0 109.5 -30.5t73.5 -86t26 -127.5q0 -77 -27.5 -135t-77.5 -90.5t-115 -32.5zM283 37q45 0 78.5 25.5t53 72.5t19.5 111q0 62 -19 107t-53 69t-80 24q-28 0 -59.5 -10t-66.5 -31l34 27
q-26 -45 -39.5 -92.5t-13.5 -99.5q0 -62 18.5 -107.5t52 -70.5t75.5 -25z" />
    <glyph glyph-name="pi" unicode="&#x3c0;" horiz-adv-x="603" 
d="M387 48l25 438h41l-1 -429l104 5q-6 -21 -19.5 -36t-31 -22.5t-35.5 -7.5q-24 0 -47 13t-36 39zM169 -10q-22 3 -44 11.5t-40 22.5l76 112l-44 -90q20 55 35 123.5t24.5 147.5t13.5 169h44q-1 -88 -8 -172.5t-21.5 -165t-35.5 -158.5zM38 373l-16 11q19 34 33 54
t25.5 30.5t22.5 14t24 3.5h435l-3 -51h-436z" />
    <glyph glyph-name="rho" unicode="&#x3c1;" horiz-adv-x="542" 
d="M82 -196l8 496q1 57 26.5 101t69 68.5t98.5 24.5q60 0 104 -30t68 -84.5t24 -125.5q0 -79 -27 -138t-73 -91.5t-104 -32.5q-45 0 -84.5 18.5t-64.5 44.5l15 41q28 -23 62.5 -40.5t72.5 -17.5q41 0 72.5 26.5t49.5 73.5t18 112q0 90 -36 141.5t-102 51.5q-25 0 -52 -7
t-56 -20l39 28q-31 -30 -45.5 -64.5t-14.5 -76.5v-499h-68z" />
    <glyph glyph-name="uni03C2" unicode="&#x3c2;" horiz-adv-x="462" 
d="M301 -182l-14 7l48 191l16 -28q-151 8 -221.5 68t-70.5 184q0 78 28.5 135t78.5 88t115 31q31 0 62.5 -7.5t62.5 -20.5l-14 -51q-58 29 -129 29q-30 0 -60 -8.5t-57 -25.5l28 24q-25 -41 -38 -89.5t-13 -97.5q0 -104 59.5 -151t193.5 -56l9 -6q2 -5 2.5 -10.5t0.5 -10.5
q0 -47 -25 -101t-62 -94zM380 330l-38 136h64l-4 -136h-22z" />
    <glyph glyph-name="sigma" unicode="&#x3c3;" horiz-adv-x="560" 
d="M277 435q-27 0 -55.5 -8.5t-51.5 -23.5q-24 -43 -35 -83.5t-11 -81.5q0 -60 19 -105t51.5 -70.5t76.5 -25.5q43 0 75 25t50 70t18 105q0 40 -8.5 75t-27 69t-47.5 69l40 2q105 -83 105 -219q0 -70 -27 -125t-74 -85.5t-108 -30.5q-62 0 -109 30.5t-73.5 85t-26.5 127.5
q0 76 28.5 132t79.5 87.5t119 31.5h216l-4 -51h-220z" />
    <glyph glyph-name="tau" unicode="&#x3c4;" horiz-adv-x="427" 
d="M27 373l-17 11q27 42 45 64t33.5 30t35.5 8h272l-4 -51h-274zM194 486h41l-2 -429l141 5q-8 -22 -24 -37t-37 -22.5t-45 -7.5q-29 0 -56 13t-41 37z" />
    <glyph glyph-name="upsilon" unicode="&#x3c5;" horiz-adv-x="542" 
d="M258 -8q-48 0 -83.5 19.5t-54.5 56.5t-19 89q0 14 1 39.5t2.5 53t1.5 51.5q0 50 -10 95l-50 61q31 16 53 25t47 14q10 -38 15 -79.5t5 -80.5q0 -34 -2 -66t-3.5 -61t-1.5 -54q0 -21 1.5 -36.5t5 -30t10.5 -27.5l-14 20q21 -18 45.5 -27.5t54.5 -9.5q74 0 108 52.5
t34 168.5q0 34 -2.5 70.5t-7.5 59.5l-55 56q30 19 51 29t45 15q14 -37 22 -95t8 -114q0 -93 -25 -159t-71 -100.5t-111 -34.5z" />
    <glyph glyph-name="phi" unicode="&#x3c6;" horiz-adv-x="674" 
d="M331 -6q-129 0 -201 57t-72 183q0 127 69.5 192.5t215.5 65.5q135 0 204.5 -64.5t69.5 -179.5q0 -131 -76 -192.5t-210 -61.5zM311 -196l4 800h43l4 -800h-51zM336 36q69 0 117.5 21t73 67t24.5 122q0 65 -23 110t-70 68t-119 23q-40 0 -86 -8.5t-76 -23.5
q-27 -41 -40 -85t-13 -90q0 -74 25 -118t72 -65t115 -21z" />
    <glyph glyph-name="chi" unicode="&#x3c7;" horiz-adv-x="490" 
d="M445 -142l90 6q-3 -22 -12 -36.5t-21 -22.5t-26 -8q-24 0 -49.5 22t-46.5 66l-240 466q-18 36 -32 59t-29 38l48 -25l-109 -1l-9 54q27 16 50 16q33 0 62 -29t58 -88zM33 -196v13l203 364l18 6l153 299h65v-13l-182 -327l-18 -6l-175 -336h-64z" />
    <glyph glyph-name="psi" unicode="&#x3c8;" horiz-adv-x="703" 
d="M353 -9q-122 0 -186.5 37t-64.5 129q0 14 1 39.5t2 53t1 51.5q0 54 -9 95l-51 61q30 16 53 25t48 14q10 -38 14.5 -76.5t4.5 -83.5q0 -51 -3 -95.5t-3 -80.5q0 -27 4 -45t16 -44l-15 18q41 -23 86 -34t111 -11q111 0 158.5 54.5t47.5 181.5q0 30 -3 61t-7 54l-53 56
q30 20 51 30t45 14q13 -41 20.5 -99.5t7.5 -114.5q0 -96 -30.5 -160t-92 -97t-153.5 -33zM327 -196l5 800h42l4 -800h-51z" />
    <glyph glyph-name="omega" unicode="&#x3c9;" horiz-adv-x="727" 
d="M490 -9q-48 0 -86 23t-67 78l43 10q26 -26 54.5 -37.5t50.5 -11.5q49 0 90 40q7 27 11.5 58t4.5 70q0 61 -19.5 126.5t-58.5 131.5l51 13q26 -33 46.5 -78.5t33 -96.5t12.5 -100q0 -62 -17 -113t-54 -82t-95 -31zM230 -9q-56 0 -91 30t-52 81t-17 114q0 45 12.5 94.5
t33 97t49.5 84.5l50 -13q-38 -62 -58.5 -130t-20.5 -130q0 -40 4.5 -68t10.5 -51q19 -23 42.5 -34.5t48.5 -11.5q23 0 50 12t50 36l32 -6q-23 -34 -59.5 -62t-84.5 -43zM381 80l-42 2l-6 245h60z" />
    <glyph glyph-name="iotadieresis" unicode="&#x3ca;" horiz-adv-x="288" 
d="M110 46l12 440h56v-430l104 5q-6 -22 -19.5 -36.5t-31.5 -22t-37 -7.5q-25 0 -47.5 13t-36.5 38zM84 694q12 -12 20.5 -27t11.5 -32q-10 -12 -26 -21t-32 -11q-11 11 -20.5 26t-13.5 32q12 12 27 21.5t33 11.5zM245 694q12 -12 21 -27t11 -32q-11 -12 -26.5 -21
t-31.5 -11q-13 11 -21.5 26.5t-12.5 31.5q12 12 27 21.5t33 11.5z" />
    <glyph glyph-name="upsilondieresis" unicode="&#x3cb;" horiz-adv-x="542" 
d="M273 -8q-48 0 -83.5 19.5t-54.5 56.5t-19 89q0 14 1 39.5t2.5 53t1.5 51.5q0 50 -10 95l-50 61q31 16 53 25t47 14q10 -38 15 -79.5t5 -80.5q0 -34 -2 -66t-3.5 -61t-1.5 -54q0 -21 1.5 -36.5t5 -30t10.5 -27.5l-14 20q21 -18 45.5 -27.5t54.5 -9.5q74 0 108 52.5
t34 168.5q0 34 -2.5 70.5t-7.5 59.5l-55 56q30 19 51 29t45 15q14 -37 22 -95t8 -114q0 -93 -25 -159t-71 -100.5t-111 -34.5zM217 694q12 -12 20.5 -27t11.5 -32q-10 -12 -26 -21t-32 -11q-11 11 -20.5 26t-13.5 32q12 12 27 21.5t33 11.5zM378 694q12 -12 21 -27t11 -32
q-11 -12 -26.5 -21t-31.5 -11q-13 11 -21.5 26.5t-12.5 31.5q12 12 27 21.5t33 11.5z" />
    <glyph glyph-name="omicrontonos" unicode="&#x3cc;" horiz-adv-x="540" 
d="M293 -8q-62 0 -108.5 30.5t-72 85t-25.5 126.5q0 78 27.5 136t76.5 91t113 33q62 0 109.5 -30.5t73.5 -86t26 -127.5q0 -77 -27.5 -135t-77.5 -90.5t-115 -32.5zM298 37q45 0 78.5 25.5t53 72.5t19.5 111q0 62 -19 107t-53 69t-80 24q-28 0 -59.5 -10t-66.5 -31l34 27
q-26 -45 -39.5 -92.5t-13.5 -99.5q0 -62 18.5 -107.5t52 -70.5t75.5 -25zM270 527l-22 6l34 204l7 6l48 -14q-14 -52 -30.5 -102.5t-36.5 -99.5z" />
    <glyph glyph-name="upsilontonos" unicode="&#x3cd;" horiz-adv-x="542" 
d="M273 -8q-48 0 -83.5 19.5t-54.5 56.5t-19 89q0 14 1 39.5t2.5 53t1.5 51.5q0 50 -10 95l-50 61q31 16 53 25t47 14q10 -38 15 -79.5t5 -80.5q0 -34 -2 -66t-3.5 -61t-1.5 -54q0 -21 1.5 -36.5t5 -30t10.5 -27.5l-14 20q21 -18 45.5 -27.5t54.5 -9.5q74 0 108 52.5
t34 168.5q0 34 -2.5 70.5t-7.5 59.5l-55 56q30 19 51 29t45 15q14 -37 22 -95t8 -114q0 -93 -25 -159t-71 -100.5t-111 -34.5zM269 527l-22 6l34 204l7 6l48 -14q-14 -52 -30.5 -102.5t-36.5 -99.5z" />
    <glyph glyph-name="omegatonos" unicode="&#x3ce;" horiz-adv-x="727" 
d="M505 -9q-48 0 -86 23t-67 78l43 10q26 -26 54.5 -37.5t50.5 -11.5q49 0 90 40q7 27 11.5 58t4.5 70q0 61 -19.5 126.5t-58.5 131.5l51 13q26 -33 46.5 -78.5t33 -96.5t12.5 -100q0 -62 -17 -113t-54 -82t-95 -31zM245 -9q-56 0 -91 30t-52 81t-17 114q0 45 12.5 94.5
t33 97t49.5 84.5l50 -13q-38 -62 -58.5 -130t-20.5 -130q0 -40 4.5 -68t10.5 -51q19 -23 42.5 -34.5t48.5 -11.5q23 0 50 12t50 36l32 -6q-23 -34 -59.5 -62t-84.5 -43zM396 80l-42 2l-6 245h60zM361 527l-22 6l34 204l7 6l48 -14q-14 -52 -30.5 -102.5t-36.5 -99.5z" />
    <glyph glyph-name="uni03CF" unicode="&#x3cf;" horiz-adv-x="758" 
d="M487 -211l-20 13q29 51 54.5 88.5t53 67.5t60.5 56l53 -20zM56 0v22q26 8 54 13.5t56 8.5l9 565l-119 21v24h294v-22q-27 -7 -54.5 -12.5t-56.5 -8.5v-567l111 -20v-24h-294zM575 601l-137 28v25h279v-20q-33 -14 -69 -22.5t-73 -10.5zM340 325l1 43l347 -354v-20
l-67 -14l-342 355l305 319h59v-17z" />
    <glyph glyph-name="uni03D7" unicode="&#x3d7;" horiz-adv-x="516" 
d="M429 30l52 -2q-2 -62 -26 -115t-63 -95l-15 7zM394 418l44 68h43v-20zM41 0v19q17 8 35.5 13t38.5 9l10 355l-51 61q28 16 55 25.5t54 13.5v-458l79 -19v-19h-221zM264 241l1 46l216 -259l-48 -43l-216 270q46 61 95 118.5t103 112.5h47v-12q-54 -56 -103.5 -113.5
t-94.5 -119.5z" />
    <glyph glyph-name="uni0400" unicode="&#x400;" horiz-adv-x="718" 
d="M612 215h23v-215h-549v22q28 8 55.5 13.5t54.5 8.5l9 565l-119 21v24h539v-194h-23l-34 146h-327l28 28v-273h200l29 87h21v-222h-21l-30 87h-199v-293l-28 28h336zM458 732q-49 26 -96.5 54.5t-94.5 60.5l26 44h10l168 -139z" />
    <glyph glyph-name="uni0401" unicode="&#x401;" horiz-adv-x="718" 
d="M612 215h23v-215h-549v22q28 8 55.5 13.5t54.5 8.5l9 565l-119 21v24h539v-194h-23l-34 146h-327l28 28v-273h200l29 87h21v-222h-21l-30 87h-199v-293l-28 28h336zM306 860q12 -12 20.5 -27t11.5 -32q-10 -12 -26 -21t-32 -11q-11 11 -20.5 26t-13.5 32q12 12 27 21.5
t33 11.5zM467 860q12 -12 21 -27t11 -32q-11 -12 -26.5 -21t-31.5 -11q-13 11 -21.5 26.5t-12.5 31.5q12 12 27 21.5t33 11.5z" />
    <glyph glyph-name="uni0402" unicode="&#x402;" horiz-adv-x="827" 
d="M176 0v22q24 8 58 14t79 8l9 562h-193l-35 -202h-22v250h572v-220h-23l-34 172h-202v-562l109 -20v-24h-318zM550 -205q-19 0 -40 3v60q16 -1 34 -1.5t35 -0.5q18 0 36 0.5t35 1.5l-30 -14q15 30 27.5 76t19.5 98.5t7 102.5q0 68 -14.5 122t-38.5 87l24 -17
q-30 11 -64.5 17t-77.5 6q-40 0 -77.5 -5.5t-73.5 -14.5v43q48 14 91 19.5t78 5.5q117 0 170.5 -58t53.5 -189q0 -53 -8.5 -107t-23.5 -96q-23 -71 -62.5 -105t-100.5 -34z" />
    <glyph glyph-name="uni0403" unicode="&#x403;" horiz-adv-x="622" 
d="M86 0v22q28 8 55.5 13.5t54.5 8.5l9 565l-119 21v24h183v-611l124 -21v-22h-307zM233 606v48h332v-48h-332zM563 421l-47 233h69v-233h-22zM251 732l-13 20l167 139h10l27 -44q-46 -32 -94.5 -60.5t-96.5 -54.5z" />
    <glyph glyph-name="uni0404" unicode="&#x404;" horiz-adv-x="698" 
d="M402 -7q-153 0 -235 85.5t-82 246.5q0 106 39.5 181.5t114 116.5t178.5 41q38 0 80 -5.5t87 -17.5l-14 -58q-40 13 -81 19.5t-80 6.5q-53 0 -105 -12t-101 -35l31 22q-40 -58 -60 -123t-20 -140q0 -133 67.5 -205t188.5 -72q35 0 74.5 7t82.5 20l17 -54
q-101 -24 -182 -24zM509 17l51 188h24v-188h-75zM560 454l-50 187h74v-187h-24zM117 315v46h352v-46h-352z" />
    <glyph glyph-name="uni0405" unicode="&#x405;" horiz-adv-x="645" 
d="M306 -9q-46 0 -94.5 7t-99.5 21l25 49q45 -13 94.5 -19t101.5 -6q31 0 62 2t62 6l-29 -8q22 11 40 28t28.5 37t10.5 41q0 34 -27.5 60t-70.5 48.5t-91.5 44.5t-92 48.5t-71 61.5t-27.5 85q0 51 31 87.5t87.5 57t134.5 20.5q42 0 84.5 -5.5t82.5 -17.5l-17 -49
q-44 10 -88.5 15t-87.5 5q-34 0 -65.5 -3.5t-62.5 -8.5l31 9q-29 -15 -47 -41t-18 -57q0 -38 27.5 -66t70.5 -50.5t92 -44.5t92.5 -47.5t71 -59.5t27.5 -80q0 -52 -33.5 -90.5t-93 -59t-140.5 -20.5zM183 19h-71l4 190h24zM517 458l-40 182l70 -1l-6 -181h-24z" />
    <glyph glyph-name="uni0406" unicode="&#x406;" horiz-adv-x="408" 
d="M71 0v22q28 8 55.5 13.5t54.5 8.5l9 565l-119 21v24h294v-22q-25 -7 -53 -12.5t-58 -8.5v-567l111 -20v-24h-294z" />
    <glyph glyph-name="uni0407" unicode="&#x407;" horiz-adv-x="408" 
d="M71 0v22q28 8 55.5 13.5t54.5 8.5l9 565l-119 21v24h294v-22q-25 -7 -53 -12.5t-58 -8.5v-567l111 -20v-24h-294zM153 860q12 -12 20.5 -27t11.5 -32q-10 -12 -26 -21t-32 -11q-11 11 -20.5 26t-13.5 32q12 12 27 21.5t33 11.5zM314 860q12 -12 21 -27t11 -32
q-11 -12 -26.5 -21t-31.5 -11q-13 11 -21.5 26.5t-12.5 31.5q12 12 27 21.5t33 11.5z" />
    <glyph glyph-name="uni0408" unicode="&#x408;" horiz-adv-x="527" 
d="M81 0l9 58q26 -8 49.5 -11.5t43.5 -3.5q43 0 71 9.5t47 29t34 52.5l-7 -39l4 514l-146 21v24h315v-22q-21 -7 -46.5 -12.5t-57.5 -8.5v-399q0 -220 -223 -220q-21 0 -44.5 2.5t-48.5 5.5zM81 0v217h22l46 -217h-68z" />
    <glyph glyph-name="uni0409" unicode="&#x409;" horiz-adv-x="978" 
d="M23 -6v93l131 -13l-42 -31q22 29 40 72.5t31.5 105.5t24 145.5t19.5 192.5l3 50l-133 21v24h568v-22q-43 -15 -118 -22v-562h184q57 13 88.5 48t31.5 87q0 69 -40.5 104.5t-115.5 35.5h-180v48h193q64 0 112 -22t74 -63t26 -97q0 -59 -29 -101t-82 -65t-126 -23h-319v22
q40 16 111 22l9 562h-205q-10 -177 -27.5 -296t-46.5 -189.5t-73.5 -100t-108.5 -26.5z" />
    <glyph glyph-name="uni040A" unicode="&#x40a;" horiz-adv-x="1087" 
d="M474 0v22q24 8 53 13.5t55 8.5l10 565l-118 21v24h319v-22q-35 -9 -69 -14t-69 -8l1 -562h186q56 13 87.5 48t31.5 87q0 69 -40 104.5t-116 35.5h-182v48h195q65 0 112.5 -22t73.5 -63t26 -97q0 -59 -29 -101t-82 -65t-125 -23h-320zM56 0v22q28 8 55.5 13.5t54.5 8.5
l9 565l-119 21v24h291v-22q-24 -7 -51.5 -12.5t-56.5 -8.5v-567l108 -20v-24h-291zM205 321v48h417v-48h-417z" />
    <glyph glyph-name="uni040B" unicode="&#x40b;" horiz-adv-x="873" 
d="M174 0v22q24 8 58 14t80 8l9 562h-194l-35 -202h-23v250h573v-220h-22l-36 172h-201v-561l98 -21v-24h-307zM587 0v19q27 10 50.5 16.5t46.5 8.5l4 238q-23 28 -62 40t-94 12q-46 0 -90 -12.5t-91 -39.5v43q47 28 98.5 45t104.5 17q92 0 146.5 -39t54.5 -112v-191l98 -21
v-24h-266z" />
    </font>
</defs>
</svg>
